<svg version="1.1" viewBox="0.0 0.0 600.0 371.0" fill="none" stroke="none" stroke-linecap="square" stroke-miterlimit="10" width="600" height="371" xmlns:xlink="http://www.w3.org/1999/xlink" xmlns="http://www.w3.org/2000/svg"><path fill="#ffffff" d="M0 0L600.0 0L600.0 371.0L0 371.0L0 0Z" fill-rule="nonzero"/><path stroke="#333333" stroke-width="1.0" stroke-linecap="butt" d="M45.5 298.5L581.5 298.5" fill-rule="nonzero"/><path stroke="#cccccc" stroke-width="1.0" stroke-linecap="butt" d="M45.5 219.5L581.5 219.5" fill-rule="nonzero"/><path stroke="#cccccc" stroke-width="1.0" stroke-linecap="butt" d="M45.5 141.5L581.5 141.5" fill-rule="nonzero"/><path stroke="#cccccc" stroke-width="1.0" stroke-linecap="butt" d="M45.5 62.5L581.5 62.5" fill-rule="nonzero"/><clipPath id="id_0"><path d="M45.55 62.416668L581.45 62.416668L581.45 298.45L45.55 298.45L45.55 62.416668Z" clip-rule="nonzero"/></clipPath><path stroke="#000000" stroke-width="2.0" stroke-linecap="butt" stroke-opacity="0.0" clip-path="url(#id_0)" d="M121.0 298.0L47.0 298.0L47.0 159.0C47.0 157.89543 47.89543 157.0 49.0 157.0L119.0 157.0C120.10457 157.0 121.0 157.89543 121.0 159.0Z" fill-rule="nonzero"/><path fill="#4285f4" clip-path="url(#id_0)" d="M121.0 298.0L47.0 298.0L47.0 159.0C47.0 157.89543 47.89543 157.0 49.0 157.0L119.0 157.0C120.10457 157.0 121.0 157.89543 121.0 159.0Z" fill-rule="nonzero"/><path stroke="#000000" stroke-width="2.0" stroke-linecap="butt" stroke-opacity="0.0" clip-path="url(#id_0)" d="M197.0 298.0L123.0 298.0L123.0 127.0C123.0 125.89543 123.89543 125.0 125.0 125.0L195.0 125.0C196.10457 125.0 197.0 125.89543 197.0 127.0Z" fill-rule="nonzero"/><path fill="#4285f4" clip-path="url(#id_0)" d="M197.0 298.0L123.0 298.0L123.0 127.0C123.0 125.89543 123.89543 125.0 125.0 125.0L195.0 125.0C196.10457 125.0 197.0 125.89543 197.0 127.0Z" fill-rule="nonzero"/><path stroke="#000000" stroke-width="2.0" stroke-linecap="butt" stroke-opacity="0.0" clip-path="url(#id_0)" d="M274.0 298.0L200.0 298.0L200.0 64.0C200.0 62.89543 200.89543 62.0 202.0 62.0L272.0 62.0C273.10458 62.0 274.0 62.89543 274.0 64.0Z" fill-rule="nonzero"/><path fill="#4285f4" clip-path="url(#id_0)" d="M274.0 298.0L200.0 298.0L200.0 64.0C200.0 62.89543 200.89543 62.0 202.0 62.0L272.0 62.0C273.10458 62.0 274.0 62.89543 274.0 64.0Z" fill-rule="nonzero"/><path stroke="#000000" stroke-width="2.0" stroke-linecap="butt" stroke-opacity="0.0" clip-path="url(#id_0)" d="M351.0 298.0L277.0 298.0L277.0 96.0C277.0 94.89543 277.89542 94.0 279.0 94.0L349.0 94.0C350.10458 94.0 351.0 94.89543 351.0 96.0Z" fill-rule="nonzero"/><path fill="#4285f4" clip-path="url(#id_0)" d="M351.0 298.0L277.0 298.0L277.0 96.0C277.0 94.89543 277.89542 94.0 279.0 94.0L349.0 94.0C350.10458 94.0 351.0 94.89543 351.0 96.0Z" fill-rule="nonzero"/><path stroke="#000000" stroke-width="2.0" stroke-linecap="butt" stroke-opacity="0.0" clip-path="url(#id_0)" d="M427.0 298.0L353.0 298.0L353.0 269.0C353.0 267.89542 353.89542 267.0 355.0 267.0L425.0 267.0C426.10458 267.0 427.0 267.89542 427.0 269.0Z" fill-rule="nonzero"/><path fill="#4285f4" clip-path="url(#id_0)" d="M427.0 298.0L353.0 298.0L353.0 269.0C353.0 267.89542 353.89542 267.0 355.0 267.0L425.0 267.0C426.10458 267.0 427.0 267.89542 427.0 269.0Z" fill-rule="nonzero"/><path stroke="#000000" stroke-width="2.0" stroke-linecap="butt" stroke-opacity="0.0" clip-path="url(#id_0)" d="M504.0 298.0L430.0 298.0L430.0 269.0C430.0 267.89542 430.89542 267.0 432.0 267.0L502.0 267.0C503.10458 267.0 504.0 267.89542 504.0 269.0Z" fill-rule="nonzero"/><path fill="#4285f4" clip-path="url(#id_0)" d="M504.0 298.0L430.0 298.0L430.0 269.0C430.0 267.89542 430.89542 267.0 432.0 267.0L502.0 267.0C503.10458 267.0 504.0 267.89542 504.0 269.0Z" fill-rule="nonzero"/><path stroke="#000000" stroke-width="2.0" stroke-linecap="butt" stroke-opacity="0.0" clip-path="url(#id_0)" d="M580.0 298.0L506.0 298.0L506.0 269.0C506.0 267.89542 506.89542 267.0 508.0 267.0L578.0 267.0C579.10455 267.0 580.0 267.89542 580.0 269.0Z" fill-rule="nonzero"/><path fill="#4285f4" clip-path="url(#id_0)" d="M580.0 298.0L506.0 298.0L506.0 269.0C506.0 267.89542 506.89542 267.0 508.0 267.0L578.0 267.0C579.10455 267.0 580.0 267.89542 580.0 269.0Z" fill-rule="nonzero"/><path fill="#424242" d="M298.73438 349.45Q298.64062 349.2625 298.57812 348.77814Q297.82812 349.575 296.78125 349.575Q295.84375 349.575 295.23438 349.04376Q294.64062 348.5125 294.64062 347.6844Q294.64062 346.7 295.39062 346.15314Q296.14062 345.60626 297.51562 345.60626L298.5625 345.60626L298.5625 345.10626Q298.5625 344.54376 298.21875 344.21564Q297.89062 343.8719 297.21875 343.8719Q296.64062 343.8719 296.25 344.16876Q295.85938 344.45 295.85938 344.8719L294.76562 344.8719Q294.76562 344.3875 295.09375 343.95Q295.4375 343.5125 296.01562 343.2625Q296.59375 342.9969 297.28125 342.9969Q298.39062 342.9969 299.0 343.54376Q299.625 344.09064 299.65625 345.04376L299.65625 347.96564Q299.65625 348.84064 299.875 349.35626L299.875 349.45L298.73438 349.45ZM296.9375 348.6219Q297.45312 348.6219 297.90625 348.35626Q298.35938 348.09064 298.5625 347.66876L298.5625 346.3719L297.71875 346.3719Q295.71875 346.3719 295.71875 347.54376Q295.71875 348.04376 296.0625 348.34064Q296.40625 348.6219 296.9375 348.6219ZM301.5625 346.23126Q301.5625 344.7469 302.25 343.8719Q302.9375 342.9969 304.0625 342.9969Q305.21875 342.9969 305.875 343.8094L305.92188 343.10626L306.92188 343.10626L306.92188 349.29376Q306.92188 350.52814 306.1875 351.23126Q305.45312 351.95 304.23438 351.95Q303.54688 351.95 302.89062 351.65314Q302.23438 351.35626 301.89062 350.85626L302.45312 350.2Q303.14062 351.0594 304.15625 351.0594Q304.9375 351.0594 305.375 350.60626Q305.82812 350.16876 305.82812 349.35626L305.82812 348.8094Q305.17188 349.575 304.04688 349.575Q302.9375 349.575 302.25 348.6844Q301.5625 347.77814 301.5625 346.23126ZM302.65625 346.35626Q302.65625 347.41876 303.09375 348.04376Q303.53125 348.65314 304.32812 348.65314Q305.34375 348.65314 305.82812 347.71564L305.82812 344.825Q305.32812 343.91876 304.32812 343.91876Q303.54688 343.91876 303.09375 344.52814Q302.65625 345.1375 302.65625 346.35626ZM311.45312 349.575Q310.15625 349.575 309.34375 348.73126Q308.54688 347.8719 308.54688 346.45L308.54688 346.2625Q308.54688 345.3094 308.90625 344.575Q309.26562 343.825 309.90625 343.41876Q310.5625 342.9969 311.3125 342.9969Q312.54688 342.9969 313.23438 343.8094Q313.92188 344.6219 313.92188 346.1375L313.92188 346.59064L309.625 346.59064Q309.65625 347.52814 310.17188 348.10626Q310.70312 348.6844 311.51562 348.6844Q312.07812 348.6844 312.46875 348.45Q312.875 348.21564 313.1875 347.825L313.84375 348.34064Q313.04688 349.575 311.45312 349.575ZM311.3125 343.8875Q310.65625 343.8875 310.20312 344.3719Q309.76562 344.84064 309.67188 345.7L312.84375 345.7L312.84375 345.6219Q312.79688 344.79376 312.39062 344.34064Q312.0 343.8875 311.3125 343.8875ZM319.39062 350.34064L314.03125 350.34064L314.03125 349.45L319.39062 349.45L319.39062 350.34064ZM323.26562 349.45L322.1875 349.45L322.1875 342.23126L320.0 343.02814L320.0 342.04376L323.10938 340.8719L323.26562 340.8719L323.26562 349.45ZM330.26562 349.45L329.1875 349.45L329.1875 342.23126L327.0 343.02814L327.0 342.04376L330.10938 340.8719L330.26562 340.8719L330.26562 349.45Z" fill-rule="nonzero"/><path fill="#757575" d="M38.6125 299.3094Q38.6125 301.21564 37.95625 302.15314Q37.315624 303.075 35.925 303.075Q34.565624 303.075 33.909374 302.16876Q33.253124 301.2625 33.221874 299.45L33.221874 298.0125Q33.221874 296.1219 33.8625 295.21564Q34.51875 294.29376 35.909374 294.29376Q37.284374 294.29376 37.940624 295.1844Q38.596874 296.0594 38.6125 297.90314L38.6125 299.3094ZM37.51875 297.825Q37.51875 296.45 37.128124 295.825Q36.753124 295.1844 35.909374 295.1844Q35.08125 295.1844 34.690624 295.825Q34.315624 296.45 34.315624 297.7469L34.315624 299.48126Q34.315624 300.85626 34.70625 301.52814Q35.1125 302.1844 35.925 302.1844Q36.721874 302.1844 37.1125 301.5594Q37.503124 300.9344 37.51875 299.60626L37.51875 297.825Z" fill-rule="nonzero"/><path fill="#757575" d="M33.753124 219.99097L34.190624 215.74097L38.565624 215.74097L38.565624 216.74097L35.1125 216.74097L34.846874 219.06909Q35.4875 218.69409 36.284374 218.69409Q37.440624 218.69409 38.128124 219.47534Q38.815624 220.24097 38.815624 221.55347Q38.815624 222.86597 38.096874 223.63159Q37.39375 224.39722 36.1125 224.39722Q34.9875 224.39722 34.26875 223.77222Q33.55 223.13159 33.45625 222.02222L34.471874 222.02222Q34.58125 222.75659 35.003124 223.13159Q35.425 223.50659 36.1125 223.50659Q36.8625 223.50659 37.3 222.99097Q37.7375 222.47534 37.7375 221.56909Q37.7375 220.70972 37.26875 220.19409Q36.8 219.67847 36.01875 219.67847Q35.315624 219.67847 34.909374 219.97534L34.628124 220.20972L33.753124 219.99097Z" fill-rule="nonzero"/><path fill="#757575" d="M29.815624 145.59445L28.7375 145.59445L28.7375 138.3757L26.55 139.17258L26.55 138.1882L29.659374 137.01633L29.815624 137.01633L29.815624 145.59445ZM38.6125 141.95383Q38.6125 143.86008 37.95625 144.79758Q37.315624 145.71945 35.925 145.71945Q34.565624 145.71945 33.909374 144.8132Q33.253124 143.90695 33.221874 142.09445L33.221874 140.65695Q33.221874 138.76633 33.8625 137.86008Q34.51875 136.9382 35.909374 136.9382Q37.284374 136.9382 37.940624 137.82883Q38.596874 138.70383 38.6125 140.54758L38.6125 141.95383ZM37.51875 140.46945Q37.51875 139.09445 37.128124 138.46945Q36.753124 137.82883 35.909374 137.82883Q35.08125 137.82883 34.690624 138.46945Q34.315624 139.09445 34.315624 140.39133L34.315624 142.1257Q34.315624 143.5007 34.70625 144.17258Q35.1125 144.82883 35.925 144.82883Q36.721874 144.82883 37.1125 144.20383Q37.503124 143.57883 37.51875 142.2507L37.51875 140.46945Z" fill-rule="nonzero"/><path fill="#757575" d="M29.815624 66.916664L28.7375 66.916664L28.7375 59.697914L26.55 60.49479L26.55 59.510414L29.659374 58.33854L29.815624 58.33854L29.815624 66.916664ZM33.753124 62.635414L34.190624 58.385414L38.565624 58.385414L38.565624 59.385414L35.1125 59.385414L34.846874 61.71354Q35.4875 61.33854 36.284374 61.33854Q37.440624 61.33854 38.128124 62.11979Q38.815624 62.885414 38.815624 64.197914Q38.815624 65.510414 38.096874 66.27604Q37.39375 67.041664 36.1125 67.041664Q34.9875 67.041664 34.26875 66.416664Q33.55 65.77604 33.45625 64.666664L34.471874 64.666664Q34.58125 65.40104 35.003124 65.77604Q35.425 66.15104 36.1125 66.15104Q36.8625 66.15104 37.3 65.635414Q37.7375 65.11979 37.7375 64.21354Q37.7375 63.354164 37.26875 62.83854Q36.8 62.322914 36.01875 62.322914Q35.315624 62.322914 34.909374 62.61979L34.628124 62.854164L33.753124 62.635414Z" fill-rule="nonzero"/><path fill="#757575" d="M36.346874 316.45L30.753124 316.45L30.753124 315.66876L33.70625 312.3875Q34.3625 311.6375 34.6125 311.1844Q34.8625 310.71564 34.8625 310.21564Q34.8625 309.54376 34.45625 309.1219Q34.065624 308.6844 33.378124 308.6844Q32.58125 308.6844 32.128124 309.15314Q31.675 309.60626 31.675 310.4344L30.596874 310.4344Q30.596874 309.2469 31.346874 308.52814Q32.1125 307.79376 33.378124 307.79376Q34.58125 307.79376 35.26875 308.41876Q35.95625 309.04376 35.95625 310.09064Q35.95625 311.34064 34.346874 313.09064L32.065624 315.5594L36.346874 315.5594L36.346874 316.45ZM43.1125 312.8094Q43.1125 314.71564 42.45625 315.65314Q41.815624 316.575 40.425 316.575Q39.065624 316.575 38.409374 315.66876Q37.753124 314.7625 37.721874 312.95L37.721874 311.5125Q37.721874 309.6219 38.3625 308.71564Q39.01875 307.79376 40.409374 307.79376Q41.784374 307.79376 42.440624 308.6844Q43.096874 309.5594 43.1125 311.40314L43.1125 312.8094ZM42.01875 311.325Q42.01875 309.95 41.628124 309.325Q41.253124 308.6844 40.409374 308.6844Q39.58125 308.6844 39.190624 309.325Q38.815624 309.95 38.815624 311.2469L38.815624 312.98126Q38.815624 314.35626 39.20625 315.02814Q39.6125 315.6844 40.425 315.6844Q41.221874 315.6844 41.6125 315.0594Q42.003124 314.4344 42.01875 313.10626L42.01875 311.325ZM44.89375 315.8875Q44.89375 315.60626 45.05 315.41876Q45.221874 315.23126 45.55 315.23126Q45.89375 315.23126 46.065624 315.41876Q46.2375 315.60626 46.2375 315.8875Q46.2375 316.15314 46.065624 316.34064Q45.89375 316.5125 45.55 316.5125Q45.221874 316.5125 45.05 316.34064Q44.89375 316.15314 44.89375 315.8875ZM53.1125 312.8094Q53.1125 314.71564 52.45625 315.65314Q51.815624 316.575 50.425 316.575Q49.065624 316.575 48.409374 315.66876Q47.753124 314.7625 47.721874 312.95L47.721874 311.5125Q47.721874 309.6219 48.3625 308.71564Q49.01875 307.79376 50.409374 307.79376Q51.784374 307.79376 52.440624 308.6844Q53.096874 309.5594 53.1125 311.40314L53.1125 312.8094ZM52.01875 311.325Q52.01875 309.95 51.628124 309.325Q51.253124 308.6844 50.409374 308.6844Q49.58125 308.6844 49.190624 309.325Q48.815624 309.95 48.815624 311.2469L48.815624 312.98126Q48.815624 314.35626 49.20625 315.02814Q49.6125 315.6844 50.425 315.6844Q51.221874 315.6844 51.6125 315.0594Q52.003124 314.4344 52.01875 313.10626L52.01875 311.325ZM60.1125 312.8094Q60.1125 314.71564 59.45625 315.65314Q58.815624 316.575 57.425 316.575Q56.065624 316.575 55.409374 315.66876Q54.753124 314.7625 54.721874 312.95L54.721874 311.5125Q54.721874 309.6219 55.3625 308.71564Q56.01875 307.79376 57.409374 307.79376Q58.784374 307.79376 59.440624 308.6844Q60.096874 309.5594 60.1125 311.40314L60.1125 312.8094ZM59.01875 311.325Q59.01875 309.95 58.628124 309.325Q58.253124 308.6844 57.409374 308.6844Q56.58125 308.6844 56.190624 309.325Q55.815624 309.95 55.815624 311.2469L55.815624 312.98126Q55.815624 314.35626 56.20625 315.02814Q56.6125 315.6844 57.425 315.6844Q58.221874 315.6844 58.6125 315.0594Q59.003124 314.4344 59.01875 313.10626L59.01875 311.325Z" fill-rule="nonzero"/><path fill="#757575" d="M112.904015 316.45L107.310265 316.45L107.310265 315.66876L110.26339 312.3875Q110.91964 311.6375 111.16964 311.1844Q111.41964 310.71564 111.41964 310.21564Q111.41964 309.54376 111.01339 309.1219Q110.622765 308.6844 109.935265 308.6844Q109.13839 308.6844 108.685265 309.15314Q108.23214 309.60626 108.23214 310.4344L107.154015 310.4344Q107.154015 309.2469 107.904015 308.52814Q108.66964 307.79376 109.935265 307.79376Q111.13839 307.79376 111.82589 308.41876Q112.51339 309.04376 112.51339 310.09064Q112.51339 311.34064 110.904015 313.09064L108.622765 315.5594L112.904015 315.5594L112.904015 316.45ZM119.82589 308.52814L116.29464 316.45L115.154015 316.45L118.66964 308.8094L114.060265 308.8094L114.060265 307.91876L119.82589 307.91876L119.82589 308.52814ZM121.45089 315.8875Q121.45089 315.60626 121.60714 315.41876Q121.779015 315.23126 122.10714 315.23126Q122.45089 315.23126 122.622765 315.41876Q122.79464 315.60626 122.79464 315.8875Q122.79464 316.15314 122.622765 316.34064Q122.45089 316.5125 122.10714 316.5125Q121.779015 316.5125 121.60714 316.34064Q121.45089 316.15314 121.45089 315.8875ZM129.49777 310.1375Q129.49777 310.77814 129.15402 311.27814Q128.81027 311.77814 128.24777 312.0594Q128.90402 312.34064 129.29465 312.90314Q129.68527 313.45 129.68527 314.15314Q129.68527 315.2469 128.93527 315.91876Q128.2009 316.575 126.98214 316.575Q125.747765 316.575 124.997765 315.91876Q124.26339 315.2469 124.26339 314.15314Q124.26339 313.45 124.63839 312.90314Q125.01339 312.34064 125.685265 312.0594Q125.122765 311.77814 124.79464 311.27814Q124.466515 310.77814 124.466515 310.1375Q124.466515 309.0594 125.154015 308.4344Q125.841515 307.79376 126.98214 307.79376Q128.10715 307.79376 128.79465 308.4344Q129.49777 309.0594 129.49777 310.1375ZM128.60715 314.1219Q128.60715 313.40314 128.15402 312.96564Q127.70089 312.5125 126.966515 312.5125Q126.23214 312.5125 125.779015 312.96564Q125.341515 313.40314 125.341515 314.1375Q125.341515 314.85626 125.779015 315.27814Q126.216515 315.6844 126.98214 315.6844Q127.73214 315.6844 128.16965 315.2625Q128.60715 314.84064 128.60715 314.1219ZM126.98214 308.6844Q126.341515 308.6844 125.935265 309.09064Q125.54464 309.48126 125.54464 310.16876Q125.54464 310.8094 125.935265 311.21564Q126.32589 311.6219 126.966515 311.6219Q127.622765 311.6219 128.0134 311.21564Q128.40402 310.8094 128.40402 310.16876Q128.40402 309.5125 127.997765 309.10626Q127.591515 308.6844 126.98214 308.6844ZM135.5759 307.91876L135.5759 308.825L135.37277 308.825Q134.10715 308.85626 133.35715 309.59064Q132.60715 310.3094 132.48215 311.6219Q133.16965 310.85626 134.3259 310.85626Q135.43527 310.85626 136.10715 311.6375Q136.77902 312.41876 136.77902 313.66876Q136.77902 314.98126 136.06027 315.77814Q135.34152 316.575 134.12277 316.575Q132.90402 316.575 132.1384 315.6375Q131.3884 314.6844 131.3884 313.2L131.3884 312.79376Q131.3884 310.4344 132.3884 309.1844Q133.3884 307.9344 135.37277 307.91876L135.5759 307.91876ZM134.15402 311.7625Q133.59152 311.7625 133.12277 312.09064Q132.65402 312.41876 132.46652 312.9344L132.46652 313.325Q132.46652 314.3875 132.93527 315.02814Q133.41965 315.66876 134.12277 315.66876Q134.85715 315.66876 135.27902 315.1375Q135.7009 314.59064 135.7009 313.71564Q135.7009 312.84064 135.27902 312.3094Q134.85715 311.7625 134.15402 311.7625Z" fill-rule="nonzero"/><path fill="#757575" d="M185.44554 311.65314L186.25804 311.65314Q187.03929 311.6375 187.47679 311.2469Q187.91429 310.85626 187.91429 310.1844Q187.91429 308.6844 186.41429 308.6844Q185.71117 308.6844 185.28929 309.09064Q184.88304 309.4969 184.88304 310.15314L183.78929 310.15314Q183.78929 309.1375 184.52367 308.46564Q185.27367 307.79376 186.41429 307.79376Q187.61742 307.79376 188.30492 308.4344Q188.99242 309.075 188.99242 310.21564Q188.99242 310.77814 188.63304 311.29376Q188.27367 311.8094 187.64867 312.075Q188.35179 312.29376 188.72679 312.8094Q189.11742 313.325 189.11742 314.075Q189.11742 315.21564 188.36742 315.90314Q187.61742 316.575 186.41429 316.575Q185.22679 316.575 184.46117 315.91876Q183.71117 315.2625 183.71117 314.2L184.80492 314.2Q184.80492 314.8719 185.24242 315.27814Q185.67992 315.6844 186.42992 315.6844Q187.21117 315.6844 187.61742 315.27814Q188.03929 314.85626 188.03929 314.09064Q188.03929 313.35626 187.58617 312.96564Q187.13304 312.5594 186.25804 312.54376L185.44554 312.54376L185.44554 311.65314ZM191.36742 312.16876L191.80492 307.91876L196.17992 307.91876L196.17992 308.91876L192.72679 308.91876L192.46117 311.2469Q193.10179 310.8719 193.89867 310.8719Q195.05492 310.8719 195.74242 311.65314Q196.42992 312.41876 196.42992 313.73126Q196.42992 315.04376 195.71117 315.8094Q195.00804 316.575 193.72679 316.575Q192.60179 316.575 191.88304 315.95Q191.16429 315.3094 191.07054 314.2L192.08617 314.2Q192.19554 314.9344 192.61742 315.3094Q193.03929 315.6844 193.72679 315.6844Q194.47679 315.6844 194.91429 315.16876Q195.35179 314.65314 195.35179 313.7469Q195.35179 312.8875 194.88304 312.3719Q194.41429 311.85626 193.63304 311.85626Q192.92992 311.85626 192.52367 312.15314L192.24242 312.3875L191.36742 312.16876ZM198.00804 315.8875Q198.00804 315.60626 198.16429 315.41876Q198.33617 315.23126 198.66429 315.23126Q199.00804 315.23126 199.17992 315.41876Q199.35179 315.60626 199.35179 315.8875Q199.35179 316.15314 199.17992 316.34064Q199.00804 316.5125 198.66429 316.5125Q198.33617 316.5125 198.16429 316.34064Q198.00804 316.15314 198.00804 315.8875ZM206.38304 308.52814L202.85179 316.45L201.71117 316.45L205.22679 308.8094L200.61742 308.8094L200.61742 307.91876L206.38304 307.91876L206.38304 308.52814ZM211.42992 316.45L210.35179 316.45L210.35179 309.23126L208.16429 310.02814L208.16429 309.04376L211.27367 307.8719L211.42992 307.8719L211.42992 316.45Z" fill-rule="nonzero"/><path fill="#757575" d="M265.0027 313.59064L266.1902 313.59064L266.1902 314.46564L265.0027 314.46564L265.0027 316.45L263.92456 316.45L263.92456 314.46564L260.03394 314.46564L260.03394 313.825L263.84644 307.91876L265.0027 307.91876L265.0027 313.59064ZM261.2683 313.59064L263.92456 313.59064L263.92456 309.40314L263.78394 309.6375L261.2683 313.59064ZM269.0027 311.65314L269.8152 311.65314Q270.59644 311.6375 271.03394 311.2469Q271.47144 310.85626 271.47144 310.1844Q271.47144 308.6844 269.97144 308.6844Q269.2683 308.6844 268.84644 309.09064Q268.4402 309.4969 268.4402 310.15314L267.34644 310.15314Q267.34644 309.1375 268.0808 308.46564Q268.8308 307.79376 269.97144 307.79376Q271.17456 307.79376 271.86206 308.4344Q272.54956 309.075 272.54956 310.21564Q272.54956 310.77814 272.1902 311.29376Q271.8308 311.8094 271.2058 312.075Q271.90894 312.29376 272.28394 312.8094Q272.67456 313.325 272.67456 314.075Q272.67456 315.21564 271.92456 315.90314Q271.17456 316.575 269.97144 316.575Q268.78394 316.575 268.0183 315.91876Q267.2683 315.2625 267.2683 314.2L268.36206 314.2Q268.36206 314.8719 268.79956 315.27814Q269.23706 315.6844 269.98706 315.6844Q270.7683 315.6844 271.17456 315.27814Q271.59644 314.85626 271.59644 314.09064Q271.59644 313.35626 271.1433 312.96564Q270.6902 312.5594 269.8152 312.54376L269.0027 312.54376L269.0027 311.65314ZM274.5652 315.8875Q274.5652 315.60626 274.72144 315.41876Q274.8933 315.23126 275.22144 315.23126Q275.5652 315.23126 275.73706 315.41876Q275.90894 315.60626 275.90894 315.8875Q275.90894 316.15314 275.73706 316.34064Q275.5652 316.5125 275.22144 316.5125Q274.8933 316.5125 274.72144 316.34064Q274.5652 316.15314 274.5652 315.8875ZM277.92456 312.16876L278.36206 307.91876L282.73706 307.91876L282.73706 308.91876L279.28394 308.91876L279.0183 311.2469Q279.65894 310.8719 280.4558 310.8719Q281.61206 310.8719 282.29956 311.65314Q282.98706 312.41876 282.98706 313.73126Q282.98706 315.04376 282.2683 315.8094Q281.5652 316.575 280.28394 316.575Q279.15894 316.575 278.4402 315.95Q277.72144 315.3094 277.6277 314.2L278.6433 314.2Q278.7527 314.9344 279.17456 315.3094Q279.59644 315.6844 280.28394 315.6844Q281.03394 315.6844 281.47144 315.16876Q281.90894 314.65314 281.90894 313.7469Q281.90894 312.8875 281.4402 312.3719Q280.97144 311.85626 280.1902 311.85626Q279.48706 311.85626 279.0808 312.15314L278.79956 312.3875L277.92456 312.16876ZM289.9402 308.52814L286.40894 316.45L285.2683 316.45L288.78394 308.8094L284.17456 308.8094L284.17456 307.91876L289.9402 307.91876L289.9402 308.52814Z" fill-rule="nonzero"/><path fill="#757575" d="M337.4817 312.16876L337.9192 307.91876L342.2942 307.91876L342.2942 308.91876L338.84106 308.91876L338.57544 311.2469Q339.21606 310.8719 340.01294 310.8719Q341.1692 310.8719 341.8567 311.65314Q342.5442 312.41876 342.5442 313.73126Q342.5442 315.04376 341.82544 315.8094Q341.1223 316.575 339.84106 316.575Q338.71606 316.575 337.9973 315.95Q337.27856 315.3094 337.1848 314.2L338.20044 314.2Q338.3098 314.9344 338.7317 315.3094Q339.15356 315.6844 339.84106 315.6844Q340.59106 315.6844 341.02856 315.16876Q341.46606 314.65314 341.46606 313.7469Q341.46606 312.8875 340.9973 312.3719Q340.52856 311.85626 339.7473 311.85626Q339.0442 311.85626 338.63794 312.15314L338.3567 312.3875L337.4817 312.16876ZM347.5442 316.45L346.46606 316.45L346.46606 309.23126L344.27856 310.02814L344.27856 309.04376L347.38794 307.8719L347.5442 307.8719L347.5442 316.45ZM351.1223 315.8875Q351.1223 315.60626 351.27856 315.41876Q351.45044 315.23126 351.77856 315.23126Q352.1223 315.23126 352.2942 315.41876Q352.46606 315.60626 352.46606 315.8875Q352.46606 316.15314 352.2942 316.34064Q352.1223 316.5125 351.77856 316.5125Q351.45044 316.5125 351.27856 316.34064Q351.1223 316.15314 351.1223 315.8875ZM358.5598 313.59064L359.7473 313.59064L359.7473 314.46564L358.5598 314.46564L358.5598 316.45L357.4817 316.45L357.4817 314.46564L353.59106 314.46564L353.59106 313.825L357.40356 307.91876L358.5598 307.91876L358.5598 313.59064ZM354.82544 313.59064L357.4817 313.59064L357.4817 309.40314L357.34106 309.6375L354.82544 313.59064ZM362.5598 311.65314L363.3723 311.65314Q364.15356 311.6375 364.59106 311.2469Q365.02856 310.85626 365.02856 310.1844Q365.02856 308.6844 363.52856 308.6844Q362.82544 308.6844 362.40356 309.09064Q361.9973 309.4969 361.9973 310.15314L360.90356 310.15314Q360.90356 309.1375 361.63794 308.46564Q362.38794 307.79376 363.52856 307.79376Q364.7317 307.79376 365.4192 308.4344Q366.1067 309.075 366.1067 310.21564Q366.1067 310.77814 365.7473 311.29376Q365.38794 311.8094 364.76294 312.075Q365.46606 312.29376 365.84106 312.8094Q366.2317 313.325 366.2317 314.075Q366.2317 315.21564 365.4817 315.90314Q364.7317 316.575 363.52856 316.575Q362.34106 316.575 361.57544 315.91876Q360.82544 315.2625 360.82544 314.2L361.9192 314.2Q361.9192 314.8719 362.3567 315.27814Q362.7942 315.6844 363.5442 315.6844Q364.32544 315.6844 364.7317 315.27814Q365.15356 314.85626 365.15356 314.09064Q365.15356 313.35626 364.70044 312.96564Q364.2473 312.5594 363.3723 312.54376L362.5598 312.54376L362.5598 311.65314Z" fill-rule="nonzero"/><path fill="#757575" d="M414.03885 312.16876L414.47635 307.91876L418.85135 307.91876L418.85135 308.91876L415.39822 308.91876L415.1326 311.2469Q415.77322 310.8719 416.5701 310.8719Q417.72635 310.8719 418.41385 311.65314Q419.10135 312.41876 419.10135 313.73126Q419.10135 315.04376 418.3826 315.8094Q417.67947 316.575 416.39822 316.575Q415.27322 316.575 414.55447 315.95Q413.83572 315.3094 413.74197 314.2L414.7576 314.2Q414.86697 314.9344 415.28885 315.3094Q415.71072 315.6844 416.39822 315.6844Q417.14822 315.6844 417.58572 315.16876Q418.02322 314.65314 418.02322 313.7469Q418.02322 312.8875 417.55447 312.3719Q417.08572 311.85626 416.30447 311.85626Q415.60135 311.85626 415.1951 312.15314L414.91385 312.3875L414.03885 312.16876ZM424.6951 312.7Q424.36697 313.10626 423.8826 313.35626Q423.41385 313.59064 422.85135 313.59064Q422.11697 313.59064 421.5701 313.23126Q421.02322 312.8719 420.72635 312.21564Q420.42947 311.54376 420.42947 310.7469Q420.42947 309.90314 420.74197 309.21564Q421.0701 308.52814 421.66385 308.16876Q422.27322 307.79376 423.0701 307.79376Q424.33572 307.79376 425.05447 308.7469Q425.78885 309.7 425.78885 311.325L425.78885 311.6375Q425.78885 314.1375 424.80447 315.27814Q423.8201 316.41876 421.83572 316.45L421.61697 316.45L421.61697 315.54376L421.85135 315.54376Q423.1951 315.5125 423.91385 314.84064Q424.6326 314.16876 424.6951 312.7ZM423.02322 312.7Q423.5701 312.7 424.02322 312.3719Q424.49197 312.02814 424.71072 311.54376L424.71072 311.10626Q424.71072 310.04376 424.24197 309.3719Q423.77322 308.7 423.0701 308.7Q422.35135 308.7 421.91385 309.2469Q421.49197 309.79376 421.49197 310.7Q421.49197 311.575 421.89822 312.1375Q422.3201 312.7 423.02322 312.7ZM427.67947 315.8875Q427.67947 315.60626 427.83572 315.41876Q428.0076 315.23126 428.33572 315.23126Q428.67947 315.23126 428.85135 315.41876Q429.02322 315.60626 429.02322 315.8875Q429.02322 316.15314 428.85135 316.34064Q428.67947 316.5125 428.33572 316.5125Q428.0076 316.5125 427.83572 316.34064Q427.67947 316.15314 427.67947 315.8875ZM436.1326 316.45L430.53885 316.45L430.53885 315.66876L433.49197 312.3875Q434.14822 311.6375 434.39822 311.1844Q434.64822 310.71564 434.64822 310.21564Q434.64822 309.54376 434.24197 309.1219Q433.85135 308.6844 433.16385 308.6844Q432.36697 308.6844 431.91385 309.15314Q431.46072 309.60626 431.46072 310.4344L430.3826 310.4344Q430.3826 309.2469 431.1326 308.52814Q431.89822 307.79376 433.16385 307.79376Q434.36697 307.79376 435.05447 308.41876Q435.74197 309.04376 435.74197 310.09064Q435.74197 311.34064 434.1326 313.09064L431.85135 315.5594L436.1326 315.5594L436.1326 316.45ZM441.6951 312.7Q441.36697 313.10626 440.8826 313.35626Q440.41385 313.59064 439.85135 313.59064Q439.11697 313.59064 438.5701 313.23126Q438.02322 312.8719 437.72635 312.21564Q437.42947 311.54376 437.42947 310.7469Q437.42947 309.90314 437.74197 309.21564Q438.0701 308.52814 438.66385 308.16876Q439.27322 307.79376 440.0701 307.79376Q441.33572 307.79376 442.05447 308.7469Q442.78885 309.7 442.78885 311.325L442.78885 311.6375Q442.78885 314.1375 441.80447 315.27814Q440.8201 316.41876 438.83572 316.45L438.61697 316.45L438.61697 315.54376L438.85135 315.54376Q440.1951 315.5125 440.91385 314.84064Q441.6326 314.16876 441.6951 312.7ZM440.02322 312.7Q440.5701 312.7 441.02322 312.3719Q441.49197 312.02814 441.71072 311.54376L441.71072 311.10626Q441.71072 310.04376 441.24197 309.3719Q440.77322 308.7 440.0701 308.7Q439.35135 308.7 438.91385 309.2469Q438.49197 309.79376 438.49197 310.7Q438.49197 311.575 438.89822 312.1375Q439.3201 312.7 440.02322 312.7Z" fill-rule="nonzero"/><path fill="#757575" d="M494.3616 307.91876L494.3616 308.825L494.15848 308.825Q492.89285 308.85626 492.14285 309.59064Q491.39285 310.3094 491.26785 311.6219Q491.95535 310.85626 493.1116 310.85626Q494.22098 310.85626 494.89285 311.6375Q495.56473 312.41876 495.56473 313.66876Q495.56473 314.98126 494.84598 315.77814Q494.12723 316.575 492.90848 316.575Q491.68973 316.575 490.9241 315.6375Q490.1741 314.6844 490.1741 313.2L490.1741 312.79376Q490.1741 310.4344 491.1741 309.1844Q492.1741 307.9344 494.15848 307.91876L494.3616 307.91876ZM492.93973 311.7625Q492.37723 311.7625 491.90848 312.09064Q491.43973 312.41876 491.25223 312.9344L491.25223 313.325Q491.25223 314.3875 491.72098 315.02814Q492.20535 315.66876 492.90848 315.66876Q493.64285 315.66876 494.06473 315.1375Q494.4866 314.59064 494.4866 313.71564Q494.4866 312.84064 494.06473 312.3094Q493.64285 311.7625 492.93973 311.7625ZM502.6116 308.52814L499.08035 316.45L497.93973 316.45L501.45535 308.8094L496.84598 308.8094L496.84598 307.91876L502.6116 307.91876L502.6116 308.52814ZM504.2366 315.8875Q504.2366 315.60626 504.39285 315.41876Q504.56473 315.23126 504.89285 315.23126Q505.2366 315.23126 505.40848 315.41876Q505.58035 315.60626 505.58035 315.8875Q505.58035 316.15314 505.40848 316.34064Q505.2366 316.5125 504.89285 316.5125Q504.56473 316.5125 504.39285 316.34064Q504.2366 316.15314 504.2366 315.8875ZM510.65848 316.45L509.58035 316.45L509.58035 309.23126L507.39285 310.02814L507.39285 309.04376L510.50223 307.8719L510.65848 307.8719L510.65848 316.45ZM518.6741 313.59064L519.8616 313.59064L519.8616 314.46564L518.6741 314.46564L518.6741 316.45L517.59595 316.45L517.59595 314.46564L513.7053 314.46564L513.7053 313.825L517.5178 307.91876L518.6741 307.91876L518.6741 313.59064ZM514.9397 313.59064L517.59595 313.59064L517.59595 309.40314L517.4553 309.6375L514.9397 313.59064Z" fill-rule="nonzero"/><path fill="#757575" d="M572.16876 308.52814L568.6375 316.45L567.4969 316.45L571.0125 308.8094L566.40314 308.8094L566.40314 307.91876L572.16876 307.91876L572.16876 308.52814ZM574.15314 312.16876L574.59064 307.91876L578.96564 307.91876L578.96564 308.91876L575.5125 308.91876L575.2469 311.2469Q575.8875 310.8719 576.6844 310.8719Q577.84064 310.8719 578.52814 311.65314Q579.21564 312.41876 579.21564 313.73126Q579.21564 315.04376 578.4969 315.8094Q577.79376 316.575 576.5125 316.575Q575.3875 316.575 574.66876 315.95Q573.95 315.3094 573.85626 314.2L574.8719 314.2Q574.98126 314.9344 575.40314 315.3094Q575.825 315.6844 576.5125 315.6844Q577.2625 315.6844 577.7 315.16876Q578.1375 314.65314 578.1375 313.7469Q578.1375 312.8875 577.66876 312.3719Q577.2 311.85626 576.41876 311.85626Q575.71564 311.85626 575.3094 312.15314L575.02814 312.3875L574.15314 312.16876ZM580.79376 315.8875Q580.79376 315.60626 580.95 315.41876Q581.1219 315.23126 581.45 315.23126Q581.79376 315.23126 581.96564 315.41876Q582.1375 315.60626 582.1375 315.8875Q582.1375 316.15314 581.96564 316.34064Q581.79376 316.5125 581.45 316.5125Q581.1219 316.5125 580.95 316.34064Q580.79376 316.15314 580.79376 315.8875ZM589.0125 312.8094Q589.0125 314.71564 588.35626 315.65314Q587.71564 316.575 586.325 316.575Q584.96564 316.575 584.3094 315.66876Q583.65314 314.7625 583.6219 312.95L583.6219 311.5125Q583.6219 309.6219 584.2625 308.71564Q584.91876 307.79376 586.3094 307.79376Q587.6844 307.79376 588.34064 308.6844Q588.9969 309.5594 589.0125 311.40314L589.0125 312.8094ZM587.91876 311.325Q587.91876 309.95 587.52814 309.325Q587.15314 308.6844 586.3094 308.6844Q585.48126 308.6844 585.09064 309.325Q584.71564 309.95 584.71564 311.2469L584.71564 312.98126Q584.71564 314.35626 585.10626 315.02814Q585.5125 315.6844 586.325 315.6844Q587.1219 315.6844 587.5125 315.0594Q587.90314 314.4344 587.91876 313.10626L587.91876 311.325ZM596.0125 312.8094Q596.0125 314.71564 595.35626 315.65314Q594.71564 316.575 593.325 316.575Q591.96564 316.575 591.3094 315.66876Q590.65314 314.7625 590.6219 312.95L590.6219 311.5125Q590.6219 309.6219 591.2625 308.71564Q591.91876 307.79376 593.3094 307.79376Q594.6844 307.79376 595.34064 308.6844Q595.9969 309.5594 596.0125 311.40314L596.0125 312.8094ZM594.91876 311.325Q594.91876 309.95 594.52814 309.325Q594.15314 308.6844 593.3094 308.6844Q592.48126 308.6844 592.09064 309.325Q591.71564 309.95 591.71564 311.2469L591.71564 312.98126Q591.71564 314.35626 592.10626 315.02814Q592.5125 315.6844 593.325 315.6844Q594.1219 315.6844 594.5125 315.0594Q594.90314 314.4344 594.91876 313.10626L594.91876 311.325Z" fill-rule="nonzero"/><path fill="#757575" d="M31.128124 37.55L29.2375 37.55L29.2375 30.971874L22.08125 30.971874L22.08125 37.55L20.20625 37.55L20.20625 23.33125L22.08125 23.33125L22.08125 29.440624L29.2375 29.440624L29.2375 23.33125L31.128124 23.33125L31.128124 37.55ZM35.878124 37.55L34.08125 37.55L34.08125 26.9875L35.878124 26.9875L35.878124 37.55ZM33.925 24.175Q33.925 23.7375 34.190624 23.440624Q34.471874 23.128124 34.9875 23.128124Q35.51875 23.128124 35.784374 23.440624Q36.065624 23.7375 36.065624 24.175Q36.065624 24.6125 35.784374 24.909374Q35.51875 25.20625 34.9875 25.20625Q34.471874 25.20625 34.190624 24.909374Q33.925 24.6125 33.925 24.175ZM45.065624 34.753124Q45.065624 34.01875 44.51875 33.6125Q43.971874 33.20625 42.596874 32.909374Q41.221874 32.6125 40.409374 32.20625Q39.6125 31.8 39.221874 31.2375Q38.846874 30.659374 38.846874 29.878124Q38.846874 28.58125 39.940624 27.690624Q41.034374 26.784374 42.753124 26.784374Q44.55 26.784374 45.659374 27.721874Q46.784374 28.64375 46.784374 30.08125L44.95625 30.08125Q44.95625 29.346874 44.33125 28.815624Q43.70625 28.26875 42.753124 28.26875Q41.753124 28.26875 41.190624 28.70625Q40.64375 29.128124 40.64375 29.83125Q40.64375 30.471874 41.159374 30.815624Q41.675 31.14375 43.034374 31.45625Q44.39375 31.753124 45.221874 32.175Q46.065624 32.58125 46.471874 33.175Q46.878124 33.76875 46.878124 34.6125Q46.878124 36.034374 45.7375 36.89375Q44.6125 37.753124 42.8 37.753124Q41.534374 37.753124 40.55 37.3Q39.58125 36.846874 39.01875 36.05Q38.471874 35.2375 38.471874 34.3L40.284374 34.3Q40.33125 35.20625 41.003124 35.7375Q41.690624 36.26875 42.8 36.26875Q43.83125 36.26875 44.440624 35.8625Q45.065624 35.440624 45.065624 34.753124ZM51.3625 24.425L51.3625 26.9875L53.346874 26.9875L53.346874 28.378124L51.3625 28.378124L51.3625 34.925Q51.3625 35.565624 51.628124 35.89375Q51.89375 36.20625 52.534374 36.20625Q52.846874 36.20625 53.39375 36.08125L53.39375 37.55Q52.675 37.753124 52.003124 37.753124Q50.8 37.753124 50.175 37.01875Q49.565624 36.284374 49.565624 34.925L49.565624 28.378124L47.64375 28.378124L47.64375 26.9875L49.565624 26.9875L49.565624 24.425L51.3625 24.425ZM55.440624 32.175Q55.440624 30.6125 56.05 29.378124Q56.659374 28.128124 57.7375 27.45625Q58.83125 26.784374 60.2375 26.784374Q62.39375 26.784374 63.721874 28.284374Q65.06563 29.76875 65.06563 32.253124L65.06563 32.378124Q65.06563 33.925 64.47188 35.159374Q63.878124 36.378124 62.76875 37.065624Q61.675 37.753124 60.253124 37.753124Q58.1125 37.753124 56.76875 36.253124Q55.440624 34.753124 55.440624 32.3L55.440624 32.175ZM57.253124 32.378124Q57.253124 34.14375 58.065624 35.20625Q58.89375 36.26875 60.253124 36.26875Q61.628124 36.26875 62.440624 35.190624Q63.253124 34.1125 63.253124 32.175Q63.253124 30.425 62.425 29.346874Q61.596874 28.26875 60.2375 28.26875Q58.89375 28.26875 58.065624 29.33125Q57.253124 30.39375 57.253124 32.378124ZM66.4875 32.175Q66.4875 29.70625 67.62813 28.253124Q68.76875 26.784374 70.65938 26.784374Q72.59688 26.784374 73.675 28.159374L73.76875 26.9875L75.40938 26.9875L75.40938 37.3Q75.40938 39.346874 74.19063 40.51875Q72.9875 41.70625 70.925 41.70625Q69.78438 41.70625 68.69063 41.221874Q67.59688 40.7375 67.01875 39.878124L67.95625 38.8Q69.12813 40.2375 70.8 40.2375Q72.12813 40.2375 72.8625 39.4875Q73.59688 38.753124 73.59688 37.409374L73.59688 36.4875Q72.51875 37.753124 70.64375 37.753124Q68.78438 37.753124 67.62813 36.253124Q66.4875 34.753124 66.4875 32.175ZM68.3 32.378124Q68.3 34.175 69.03438 35.190624Q69.76875 36.20625 71.08125 36.20625Q72.8 36.20625 73.59688 34.659374L73.59688 29.83125Q72.76875 28.315624 71.1125 28.315624Q69.78438 28.315624 69.03438 29.346874Q68.3 30.378124 68.3 32.378124ZM83.01875 28.596874Q82.6125 28.534374 82.14375 28.534374Q80.3625 28.534374 79.72188 30.05L79.72188 37.55L77.925 37.55L77.925 26.9875L79.675 26.9875L79.70625 28.20625Q80.59688 26.784374 82.22188 26.784374Q82.75313 26.784374 83.01875 26.925L83.01875 28.596874ZM91.44063 37.55Q91.28438 37.2375 91.19063 36.440624Q89.925 37.753124 88.175 37.753124Q86.6125 37.753124 85.6125 36.8625Q84.6125 35.971874 84.6125 34.6125Q84.6125 32.971874 85.8625 32.065624Q87.12813 31.14375 89.39375 31.14375L91.15938 31.14375L91.15938 30.315624Q91.15938 29.3625 90.58125 28.8Q90.01875 28.2375 88.925 28.2375Q87.95625 28.2375 87.3 28.7375Q86.64375 29.221874 86.64375 29.909374L84.83125 29.909374Q84.83125 29.128124 85.39375 28.39375Q85.95625 27.64375 86.90938 27.221874Q87.87813 26.784374 89.03438 26.784374Q90.8625 26.784374 91.89375 27.70625Q92.925 28.6125 92.97188 30.221874L92.97188 35.08125Q92.97188 36.534374 93.33125 37.39375L93.33125 37.55L91.44063 37.55ZM88.44063 36.175Q89.3 36.175 90.05 35.7375Q90.81563 35.3 91.15938 34.596874L91.15938 32.425L89.7375 32.425Q86.425 32.425 86.425 34.3625Q86.425 35.221874 86.9875 35.70625Q87.55 36.175 88.44063 36.175ZM97.6125 26.9875L97.65938 28.159374Q98.83125 26.784374 100.8 26.784374Q103.01875 26.784374 103.81563 28.4875Q104.34688 27.721874 105.19063 27.253124Q106.03438 26.784374 107.19063 26.784374Q110.65938 26.784374 110.72188 30.471874L110.72188 37.55L108.90938 37.55L108.90938 30.58125Q108.90938 29.440624 108.39375 28.878124Q107.87813 28.315624 106.65938 28.315624Q105.65938 28.315624 104.9875 28.925Q104.33125 29.51875 104.22188 30.534374L104.22188 37.55L102.40938 37.55L102.40938 30.628124Q102.40938 28.315624 100.14375 28.315624Q98.3625 28.315624 97.72188 29.83125L97.72188 37.55L95.90938 37.55L95.90938 26.9875L97.6125 26.9875ZM118.44063 32.175Q118.44063 30.6125 119.05 29.378124Q119.65938 28.128124 120.7375 27.45625Q121.83125 26.784374 123.2375 26.784374Q125.39375 26.784374 126.72188 28.284374Q128.06563 29.76875 128.06563 32.253124L128.06563 32.378124Q128.06563 33.925 127.47188 35.159374Q126.87813 36.378124 125.76875 37.065624Q124.675 37.753124 123.25313 37.753124Q121.1125 37.753124 119.76875 36.253124Q118.44063 34.753124 118.44063 32.3L118.44063 32.175ZM120.25313 32.378124Q120.25313 34.14375 121.06563 35.20625Q121.89375 36.26875 123.25313 36.26875Q124.62813 36.26875 125.44063 35.190624Q126.25313 34.1125 126.25313 32.175Q126.25313 30.425 125.425 29.346874Q124.59688 28.26875 123.2375 28.26875Q121.89375 28.26875 121.06563 29.33125Q120.25313 30.39375 120.25313 32.378124ZM130.8 37.55L130.8 28.378124L129.14375 28.378124L129.14375 26.9875L130.8 26.9875L130.8 25.89375Q130.8 24.20625 131.70625 23.284374Q132.62813 22.346874 134.28438 22.346874Q134.90938 22.346874 135.51875 22.503124L135.425 23.971874Q134.97188 23.89375 134.45625 23.89375Q133.56563 23.89375 133.08125 24.409374Q132.6125 24.909374 132.6125 25.8625L132.6125 26.9875L134.8625 26.9875L134.8625 28.378124L132.6125 28.378124L132.6125 37.55L130.8 37.55ZM148.44063 37.55Q148.28438 37.2375 148.19063 36.440624Q146.925 37.753124 145.175 37.753124Q143.6125 37.753124 142.6125 36.8625Q141.6125 35.971874 141.6125 34.6125Q141.6125 32.971874 142.8625 32.065624Q144.12813 31.14375 146.39375 31.14375L148.15938 31.14375L148.15938 30.315624Q148.15938 29.3625 147.58125 28.8Q147.01875 28.2375 145.925 28.2375Q144.95625 28.2375 144.3 28.7375Q143.64375 29.221874 143.64375 29.909374L141.83125 29.909374Q141.83125 29.128124 142.39375 28.39375Q142.95625 27.64375 143.90938 27.221874Q144.87813 26.784374 146.03438 26.784374Q147.8625 26.784374 148.89375 27.70625Q149.925 28.6125 149.97188 30.221874L149.97188 35.08125Q149.97188 36.534374 150.33125 37.39375L150.33125 37.55L148.44063 37.55ZM145.44063 36.175Q146.3 36.175 147.05 35.7375Q147.81563 35.3 148.15938 34.596874L148.15938 32.425L146.7375 32.425Q143.425 32.425 143.425 34.3625Q143.425 35.221874 143.9875 35.70625Q144.55 36.175 145.44063 36.175ZM152.4875 32.175Q152.4875 29.70625 153.62813 28.253124Q154.76875 26.784374 156.65938 26.784374Q158.59688 26.784374 159.675 28.159374L159.76875 26.9875L161.40938 26.9875L161.40938 37.3Q161.40938 39.346874 160.19063 40.51875Q158.9875 41.70625 156.925 41.70625Q155.78438 41.70625 154.69063 41.221874Q153.59688 40.7375 153.01875 39.878124L153.95625 38.8Q155.12813 40.2375 156.8 40.2375Q158.12813 40.2375 158.8625 39.4875Q159.59688 38.753124 159.59688 37.409374L159.59688 36.4875Q158.51875 37.753124 156.64375 37.753124Q154.78438 37.753124 153.62813 36.253124Q152.4875 34.753124 152.4875 32.175ZM154.3 32.378124Q154.3 34.175 155.03438 35.190624Q155.76875 36.20625 157.08125 36.20625Q158.8 36.20625 159.59688 34.659374L159.59688 29.83125Q158.76875 28.315624 157.1125 28.315624Q155.78438 28.315624 155.03438 29.346874Q154.3 30.378124 154.3 32.378124ZM168.3 37.753124Q166.15938 37.753124 164.8 36.346874Q163.45625 34.925 163.45625 32.565624L163.45625 32.221874Q163.45625 30.659374 164.05 29.425Q164.65938 28.190624 165.7375 27.4875Q166.81563 26.784374 168.08125 26.784374Q170.14375 26.784374 171.28438 28.14375Q172.425 29.503124 172.425 32.034374L172.425 32.784374L165.26875 32.784374Q165.3 34.346874 166.175 35.315624Q167.05 36.26875 168.39375 36.26875Q169.3625 36.26875 170.01875 35.878124Q170.69063 35.4875 171.19063 34.846874L172.28438 35.70625Q170.95625 37.753124 168.3 37.753124ZM168.08125 28.26875Q166.9875 28.26875 166.2375 29.065624Q165.50313 29.8625 165.33125 31.3L170.6125 31.3L170.6125 31.159374Q170.53438 29.784374 169.8625 29.034374Q169.20625 28.26875 168.08125 28.26875ZM182.53438 39.01875L173.59688 39.01875L173.59688 37.55L182.53438 37.55L182.53438 39.01875ZM189.675 37.55L187.84688 37.55L187.84688 25.503124L184.20625 26.846874L184.20625 25.20625L189.39375 23.26875L189.675 23.26875L189.675 37.55ZM200.675 37.55L198.84688 37.55L198.84688 25.503124L195.20625 26.846874L195.20625 25.20625L200.39375 23.26875L200.675 23.26875L200.675 37.55Z" fill-rule="nonzero"/></svg>