<svg version="1.1" viewBox="0.0 0.0 600.0 371.0" fill="none" stroke="none" stroke-linecap="square" stroke-miterlimit="10" width="600" height="371" xmlns:xlink="http://www.w3.org/1999/xlink" xmlns="http://www.w3.org/2000/svg"><path fill="#ffffff" d="M0 0L600.0 0L600.0 371.0L0 371.0L0 0Z" fill-rule="nonzero"/><path stroke="#333333" stroke-width="1.0" stroke-linecap="butt" d="M45.5 298.5L581.5 298.5" fill-rule="nonzero"/><path stroke="#cccccc" stroke-width="1.0" stroke-linecap="butt" d="M45.5 251.5L581.5 251.5" fill-rule="nonzero"/><path stroke="#cccccc" stroke-width="1.0" stroke-linecap="butt" d="M45.5 204.5L581.5 204.5" fill-rule="nonzero"/><path stroke="#cccccc" stroke-width="1.0" stroke-linecap="butt" d="M45.5 156.5L581.5 156.5" fill-rule="nonzero"/><path stroke="#cccccc" stroke-width="1.0" stroke-linecap="butt" d="M45.5 109.5L581.5 109.5" fill-rule="nonzero"/><path stroke="#cccccc" stroke-width="1.0" stroke-linecap="butt" d="M45.5 62.5L581.5 62.5" fill-rule="nonzero"/><clipPath id="id_0"><path d="M45.55 62.416668L581.45 62.416668L581.45 298.45L45.55 298.45L45.55 62.416668Z" clip-rule="nonzero"/></clipPath><path stroke="#000000" stroke-width="2.0" stroke-linecap="butt" stroke-opacity="0.0" clip-path="url(#id_0)" d="M103.0 298.0L66.0 298.0L66.0 225.0C66.0 223.89543 66.89543 223.0 68.0 223.0L101.0 223.0C102.10457 223.0 103.0 223.89543 103.0 225.0Z" fill-rule="nonzero"/><path fill="#4285f4" clip-path="url(#id_0)" d="M103.0 298.0L66.0 298.0L66.0 225.0C66.0 223.89543 66.89543 223.0 68.0 223.0L101.0 223.0C102.10457 223.0 103.0 223.89543 103.0 225.0Z" fill-rule="nonzero"/><path stroke="#000000" stroke-width="2.0" stroke-linecap="butt" stroke-opacity="0.0" clip-path="url(#id_0)" d="M161.0 298.0L124.0 298.0L124.0 272.0C124.0 270.89542 124.89543 270.0 126.0 270.0L159.0 270.0C160.10457 270.0 161.0 270.89542 161.0 272.0Z" fill-rule="nonzero"/><path fill="#4285f4" clip-path="url(#id_0)" d="M161.0 298.0L124.0 298.0L124.0 272.0C124.0 270.89542 124.89543 270.0 126.0 270.0L159.0 270.0C160.10457 270.0 161.0 270.89542 161.0 272.0Z" fill-rule="nonzero"/><path stroke="#000000" stroke-width="2.0" stroke-linecap="butt" stroke-opacity="0.0" clip-path="url(#id_0)" d="M218.0 298.0L181.0 298.0L181.0 272.0C181.0 270.89542 181.89543 270.0 183.0 270.0L216.0 270.0C217.10457 270.0 218.0 270.89542 218.0 272.0Z" fill-rule="nonzero"/><path fill="#4285f4" clip-path="url(#id_0)" d="M218.0 298.0L181.0 298.0L181.0 272.0C181.0 270.89542 181.89543 270.0 183.0 270.0L216.0 270.0C217.10457 270.0 218.0 270.89542 218.0 272.0Z" fill-rule="nonzero"/><path stroke="#000000" stroke-width="2.0" stroke-linecap="butt" stroke-opacity="0.0" clip-path="url(#id_0)" d="M275.0 298.0L238.0 298.0L238.0 263.0C238.0 261.89542 238.89543 261.0 240.0 261.0L273.0 261.0C274.10458 261.0 275.0 261.89542 275.0 263.0Z" fill-rule="nonzero"/><path fill="#4285f4" clip-path="url(#id_0)" d="M275.0 298.0L238.0 298.0L238.0 263.0C238.0 261.89542 238.89543 261.0 240.0 261.0L273.0 261.0C274.10458 261.0 275.0 261.89542 275.0 263.0Z" fill-rule="nonzero"/><path stroke="#000000" stroke-width="2.0" stroke-linecap="butt" stroke-opacity="0.0" clip-path="url(#id_0)" d="M333.0 298.0L296.0 298.0L296.0 215.0C296.0 213.89543 296.89542 213.0 298.0 213.0L331.0 213.0C332.10458 213.0 333.0 213.89543 333.0 215.0Z" fill-rule="nonzero"/><path fill="#4285f4" clip-path="url(#id_0)" d="M333.0 298.0L296.0 298.0L296.0 215.0C296.0 213.89543 296.89542 213.0 298.0 213.0L331.0 213.0C332.10458 213.0 333.0 213.89543 333.0 215.0Z" fill-rule="nonzero"/><path stroke="#000000" stroke-width="2.0" stroke-linecap="butt" stroke-opacity="0.0" clip-path="url(#id_0)" d="M390.0 298.0L353.0 298.0L353.0 291.0C353.0 289.89542 353.89542 289.0 355.0 289.0L388.0 289.0C389.10458 289.0 390.0 289.89542 390.0 291.0Z" fill-rule="nonzero"/><path fill="#4285f4" clip-path="url(#id_0)" d="M390.0 298.0L353.0 298.0L353.0 291.0C353.0 289.89542 353.89542 289.0 355.0 289.0L388.0 289.0C389.10458 289.0 390.0 289.89542 390.0 291.0Z" fill-rule="nonzero"/><path stroke="#000000" stroke-width="2.0" stroke-linecap="butt" stroke-opacity="0.0" clip-path="url(#id_0)" d="M447.0 298.0L410.0 298.0L410.0 272.0C410.0 270.89542 410.89542 270.0 412.0 270.0L445.0 270.0C446.10458 270.0 447.0 270.89542 447.0 272.0Z" fill-rule="nonzero"/><path fill="#4285f4" clip-path="url(#id_0)" d="M447.0 298.0L410.0 298.0L410.0 272.0C410.0 270.89542 410.89542 270.0 412.0 270.0L445.0 270.0C446.10458 270.0 447.0 270.89542 447.0 272.0Z" fill-rule="nonzero"/><path stroke="#000000" stroke-width="2.0" stroke-linecap="butt" stroke-opacity="0.0" clip-path="url(#id_0)" d="M504.0 298.0L467.0 298.0L467.0 282.0C467.0 280.89542 467.89542 280.0 469.0 280.0L502.0 280.0C503.10458 280.0 504.0 280.89542 504.0 282.0Z" fill-rule="nonzero"/><path fill="#4285f4" clip-path="url(#id_0)" d="M504.0 298.0L467.0 298.0L467.0 282.0C467.0 280.89542 467.89542 280.0 469.0 280.0L502.0 280.0C503.10458 280.0 504.0 280.89542 504.0 282.0Z" fill-rule="nonzero"/><path stroke="#000000" stroke-width="2.0" stroke-linecap="butt" stroke-opacity="0.0" clip-path="url(#id_0)" d="M562.0 298.0L525.0 298.0L525.0 102.0C525.0 100.89543 525.89545 100.0 527.0 100.0L560.0 100.0C561.10455 100.0 562.0 100.89543 562.0 102.0Z" fill-rule="nonzero"/><path fill="#4285f4" clip-path="url(#id_0)" d="M562.0 298.0L525.0 298.0L525.0 102.0C525.0 100.89543 525.89545 100.0 527.0 100.0L560.0 100.0C561.10455 100.0 562.0 100.89543 562.0 102.0Z" fill-rule="nonzero"/><path fill="#424242" d="M259.26562 346.7469Q259.10938 348.09064 258.26562 348.84064Q257.42188 349.575 256.03125 349.575Q254.51562 349.575 253.60938 348.4969Q252.70312 347.40314 252.70312 345.575L252.70312 344.7625Q252.70312 343.575 253.125 342.66876Q253.54688 341.7625 254.32812 341.27814Q255.10938 340.79376 256.125 340.79376Q257.48438 340.79376 258.29688 341.5594Q259.125 342.325 259.26562 343.65314L258.14062 343.65314Q257.98438 342.6375 257.5 342.1844Q257.01562 341.73126 256.125 341.73126Q255.04688 341.73126 254.4375 342.52814Q253.82812 343.325 253.82812 344.79376L253.82812 345.6219Q253.82812 347.0125 254.40625 347.84064Q254.98438 348.65314 256.03125 348.65314Q256.96875 348.65314 257.46875 348.23126Q257.96875 347.79376 258.14062 346.7469L259.26562 346.7469ZM260.53125 346.21564Q260.53125 345.29376 260.89062 344.54376Q261.26562 343.79376 261.92188 343.40314Q262.57812 342.9969 263.40625 342.9969Q264.70312 342.9969 265.5 343.8875Q266.3125 344.77814 266.3125 346.27814L266.3125 346.35626Q266.3125 347.27814 265.95312 348.0125Q265.59375 348.7469 264.9375 349.16876Q264.28125 349.575 263.42188 349.575Q262.14062 349.575 261.32812 348.6844Q260.53125 347.77814 260.53125 346.29376L260.53125 346.21564ZM261.625 346.35626Q261.625 347.40314 262.10938 348.04376Q262.60938 348.6844 263.42188 348.6844Q264.25 348.6844 264.73438 348.04376Q265.21875 347.3875 265.21875 346.21564Q265.21875 345.1844 264.71875 344.54376Q264.23438 343.8875 263.40625 343.8875Q262.60938 343.8875 262.10938 344.52814Q261.625 345.15314 261.625 346.35626ZM271.73438 348.825Q271.10938 349.575 269.875 349.575Q268.85938 349.575 268.32812 348.98126Q267.79688 348.3875 267.79688 347.23126L267.79688 343.10626L268.875 343.10626L268.875 347.2Q268.875 348.65314 270.04688 348.65314Q271.29688 348.65314 271.70312 347.71564L271.70312 343.10626L272.79688 343.10626L272.79688 349.45L271.76562 349.45L271.73438 348.825ZM275.84375 343.10626L275.875 343.90314Q276.60938 342.9969 277.78125 342.9969Q279.79688 342.9969 279.8125 345.2625L279.8125 349.45L278.71875 349.45L278.71875 345.2469Q278.71875 344.575 278.40625 344.2469Q278.10938 343.91876 277.45312 343.91876Q276.92188 343.91876 276.51562 344.2Q276.125 344.48126 275.90625 344.9344L275.90625 349.45L274.82812 349.45L274.82812 343.10626L275.84375 343.10626ZM283.29688 341.575L283.29688 343.10626L284.46875 343.10626L284.46875 343.95L283.29688 343.95L283.29688 347.8719Q283.29688 348.2625 283.45312 348.45Q283.60938 348.6375 283.98438 348.6375Q284.17188 348.6375 284.5 348.575L284.5 349.45Q284.07812 349.575 283.67188 349.575Q282.95312 349.575 282.57812 349.1375Q282.20312 348.6844 282.20312 347.8719L282.20312 343.95L281.04688 343.95L281.04688 343.10626L282.20312 343.10626L282.20312 341.575L283.29688 341.575ZM288.53125 346.21564Q288.53125 345.29376 288.89062 344.54376Q289.26562 343.79376 289.92188 343.40314Q290.57812 342.9969 291.40625 342.9969Q292.70312 342.9969 293.5 343.8875Q294.3125 344.77814 294.3125 346.27814L294.3125 346.35626Q294.3125 347.27814 293.95312 348.0125Q293.59375 348.7469 292.9375 349.16876Q292.28125 349.575 291.42188 349.575Q290.14062 349.575 289.32812 348.6844Q288.53125 347.77814 288.53125 346.29376L288.53125 346.21564ZM289.625 346.35626Q289.625 347.40314 290.10938 348.04376Q290.60938 348.6844 291.42188 348.6844Q292.25 348.6844 292.73438 348.04376Q293.21875 347.3875 293.21875 346.21564Q293.21875 345.1844 292.71875 344.54376Q292.23438 343.8875 291.40625 343.8875Q290.60938 343.8875 290.10938 344.52814Q289.625 345.15314 289.625 346.35626ZM296.35938 349.45L296.35938 343.95L295.35938 343.95L295.35938 343.10626L296.35938 343.10626L296.35938 342.46564Q296.35938 341.4344 296.89062 340.8875Q297.4375 340.325 298.4375 340.325Q298.8125 340.325 299.1875 340.41876L299.125 341.3094Q298.84375 341.2469 298.54688 341.2469Q298.01562 341.2469 297.71875 341.5594Q297.4375 341.8719 297.4375 342.4344L297.4375 343.10626L298.79688 343.10626L298.79688 343.95L297.4375 343.95L297.4375 349.45L296.35938 349.45ZM305.45312 349.575Q304.15625 349.575 303.34375 348.73126Q302.54688 347.8719 302.54688 346.45L302.54688 346.2625Q302.54688 345.3094 302.90625 344.575Q303.26562 343.825 303.90625 343.41876Q304.5625 342.9969 305.3125 342.9969Q306.54688 342.9969 307.23438 343.8094Q307.92188 344.6219 307.92188 346.1375L307.92188 346.59064L303.625 346.59064Q303.65625 347.52814 304.17188 348.10626Q304.70312 348.6844 305.51562 348.6844Q306.07812 348.6844 306.46875 348.45Q306.875 348.21564 307.1875 347.825L307.84375 348.34064Q307.04688 349.575 305.45312 349.575ZM305.3125 343.8875Q304.65625 343.8875 304.20312 344.3719Q303.76562 344.84064 303.67188 345.7L306.84375 345.7L306.84375 345.6219Q306.79688 344.79376 306.39062 344.34064Q306.0 343.8875 305.3125 343.8875ZM308.5625 346.23126Q308.5625 344.7625 309.25 343.8875Q309.9375 342.9969 311.0625 342.9969Q312.17188 342.9969 312.82812 343.7469L312.82812 340.45L313.90625 340.45L313.90625 349.45L312.90625 349.45L312.85938 348.7625Q312.20312 349.575 311.04688 349.575Q309.95312 349.575 309.25 348.66876Q308.5625 347.7625 308.5625 346.3094L308.5625 346.23126ZM309.64062 346.35626Q309.64062 347.4344 310.07812 348.04376Q310.53125 348.65314 311.3125 348.65314Q312.34375 348.65314 312.82812 347.71564L312.82812 344.8094Q312.34375 343.91876 311.32812 343.91876Q310.53125 343.91876 310.07812 344.52814Q309.64062 345.1375 309.64062 346.35626ZM319.73438 348.825Q319.10938 349.575 317.875 349.575Q316.85938 349.575 316.32812 348.98126Q315.79688 348.3875 315.79688 347.23126L315.79688 343.10626L316.875 343.10626L316.875 347.2Q316.875 348.65314 318.04688 348.65314Q319.29688 348.65314 319.70312 347.71564L319.70312 343.10626L320.79688 343.10626L320.79688 349.45L319.76562 349.45L319.73438 348.825ZM325.35938 348.6844Q325.9375 348.6844 326.375 348.34064Q326.8125 347.98126 326.85938 347.45L327.89062 347.45Q327.85938 347.9969 327.5 348.4969Q327.15625 348.98126 326.57812 349.27814Q326.01562 349.575 325.35938 349.575Q324.0625 349.575 323.29688 348.71564Q322.54688 347.84064 322.54688 346.34064L322.54688 346.15314Q322.54688 345.23126 322.875 344.5125Q323.21875 343.79376 323.84375 343.40314Q324.48438 342.9969 325.35938 342.9969Q326.42188 342.9969 327.125 343.6375Q327.84375 344.2625 327.89062 345.29376L326.85938 345.29376Q326.8125 344.66876 326.39062 344.27814Q325.96875 343.8875 325.35938 343.8875Q324.53125 343.8875 324.07812 344.48126Q323.625 345.075 323.625 346.2L323.625 346.40314Q323.625 347.4969 324.07812 348.09064Q324.53125 348.6844 325.35938 348.6844ZM332.73438 349.45Q332.64062 349.2625 332.57812 348.77814Q331.82812 349.575 330.78125 349.575Q329.84375 349.575 329.23438 349.04376Q328.64062 348.5125 328.64062 347.6844Q328.64062 346.7 329.39062 346.15314Q330.14062 345.60626 331.51562 345.60626L332.5625 345.60626L332.5625 345.10626Q332.5625 344.54376 332.21875 344.21564Q331.89062 343.8719 331.21875 343.8719Q330.64062 343.8719 330.25 344.16876Q329.85938 344.45 329.85938 344.8719L328.76562 344.8719Q328.76562 344.3875 329.09375 343.95Q329.4375 343.5125 330.01562 343.2625Q330.59375 342.9969 331.28125 342.9969Q332.39062 342.9969 333.0 343.54376Q333.625 344.09064 333.65625 345.04376L333.65625 347.96564Q333.65625 348.84064 333.875 349.35626L333.875 349.45L332.73438 349.45ZM330.9375 348.6219Q331.45312 348.6219 331.90625 348.35626Q332.35938 348.09064 332.5625 347.66876L332.5625 346.3719L331.71875 346.3719Q329.71875 346.3719 329.71875 347.54376Q329.71875 348.04376 330.0625 348.34064Q330.40625 348.6219 330.9375 348.6219ZM337.29688 341.575L337.29688 343.10626L338.46875 343.10626L338.46875 343.95L337.29688 343.95L337.29688 347.8719Q337.29688 348.2625 337.45312 348.45Q337.60938 348.6375 337.98438 348.6375Q338.17188 348.6375 338.5 348.575L338.5 349.45Q338.07812 349.575 337.67188 349.575Q336.95312 349.575 336.57812 349.1375Q336.20312 348.6844 336.20312 347.8719L336.20312 343.95L335.04688 343.95L335.04688 343.10626L336.20312 343.10626L336.20312 341.575L337.29688 341.575ZM341.0 349.45L339.92188 349.45L339.92188 343.10626L341.0 343.10626L341.0 349.45ZM339.82812 341.4344Q339.82812 341.16876 339.98438 340.98126Q340.15625 340.79376 340.46875 340.79376Q340.78125 340.79376 340.9375 340.98126Q341.10938 341.16876 341.10938 341.4344Q341.10938 341.6844 340.9375 341.8719Q340.78125 342.04376 340.46875 342.04376Q340.15625 342.04376 339.98438 341.8719Q339.82812 341.6844 339.82812 341.4344ZM342.53125 346.21564Q342.53125 345.29376 342.89062 344.54376Q343.26562 343.79376 343.92188 343.40314Q344.57812 342.9969 345.40625 342.9969Q346.70312 342.9969 347.5 343.8875Q348.3125 344.77814 348.3125 346.27814L348.3125 346.35626Q348.3125 347.27814 347.95312 348.0125Q347.59375 348.7469 346.9375 349.16876Q346.28125 349.575 345.42188 349.575Q344.14062 349.575 343.32812 348.6844Q342.53125 347.77814 342.53125 346.29376L342.53125 346.21564ZM343.625 346.35626Q343.625 347.40314 344.10938 348.04376Q344.60938 348.6844 345.42188 348.6844Q346.25 348.6844 346.73438 348.04376Q347.21875 347.3875 347.21875 346.21564Q347.21875 345.1844 346.71875 344.54376Q346.23438 343.8875 345.40625 343.8875Q344.60938 343.8875 344.10938 344.52814Q343.625 345.15314 343.625 346.35626ZM350.84375 343.10626L350.875 343.90314Q351.60938 342.9969 352.78125 342.9969Q354.79688 342.9969 354.8125 345.2625L354.8125 349.45L353.71875 349.45L353.71875 345.2469Q353.71875 344.575 353.40625 344.2469Q353.10938 343.91876 352.45312 343.91876Q351.92188 343.91876 351.51562 344.2Q351.125 344.48126 350.90625 344.9344L350.90625 349.45L349.82812 349.45L349.82812 343.10626L350.84375 343.10626ZM361.39062 350.34064L356.03125 350.34064L356.03125 349.45L361.39062 349.45L361.39062 350.34064ZM365.26562 349.45L364.1875 349.45L364.1875 342.23126L362.0 343.02814L362.0 342.04376L365.10938 340.8719L365.26562 340.8719L365.26562 349.45ZM373.28125 346.59064L374.46875 346.59064L374.46875 347.46564L373.28125 347.46564L373.28125 349.45L372.20312 349.45L372.20312 347.46564L368.3125 347.46564L368.3125 346.825L372.125 340.91876L373.28125 340.91876L373.28125 346.59064ZM369.54688 346.59064L372.20312 346.59064L372.20312 342.40314L372.0625 342.6375L369.54688 346.59064Z" fill-rule="nonzero"/><path fill="#757575" d="M38.6125 299.3094Q38.6125 301.21564 37.95625 302.15314Q37.315624 303.075 35.925 303.075Q34.565624 303.075 33.909374 302.16876Q33.253124 301.2625 33.221874 299.45L33.221874 298.0125Q33.221874 296.1219 33.8625 295.21564Q34.51875 294.29376 35.909374 294.29376Q37.284374 294.29376 37.940624 295.1844Q38.596874 296.0594 38.6125 297.90314L38.6125 299.3094ZM37.51875 297.825Q37.51875 296.45 37.128124 295.825Q36.753124 295.1844 35.909374 295.1844Q35.08125 295.1844 34.690624 295.825Q34.315624 296.45 34.315624 297.7469L34.315624 299.48126Q34.315624 300.85626 34.70625 301.52814Q35.1125 302.1844 35.925 302.1844Q36.721874 302.1844 37.1125 301.5594Q37.503124 300.9344 37.51875 299.60626L37.51875 297.825Z" fill-rule="nonzero"/><path fill="#757575" d="M33.753124 251.46208L34.190624 247.21208L38.565624 247.21208L38.565624 248.21208L35.1125 248.21208L34.846874 250.5402Q35.4875 250.1652 36.284374 250.1652Q37.440624 250.1652 38.128124 250.94646Q38.815624 251.71208 38.815624 253.02458Q38.815624 254.33708 38.096874 255.1027Q37.39375 255.86833 36.1125 255.86833Q34.9875 255.86833 34.26875 255.24333Q33.55 254.6027 33.45625 253.49333L34.471874 253.49333Q34.58125 254.2277 35.003124 254.6027Q35.425 254.9777 36.1125 254.9777Q36.8625 254.9777 37.3 254.46208Q37.7375 253.94646 37.7375 253.0402Q37.7375 252.18083 37.26875 251.6652Q36.8 251.14958 36.01875 251.14958Q35.315624 251.14958 34.909374 251.44646L34.628124 251.68083L33.753124 251.46208Z" fill-rule="nonzero"/><path fill="#757575" d="M29.815624 208.53667L28.7375 208.53667L28.7375 201.31792L26.55 202.11479L26.55 201.13042L29.659374 199.95854L29.815624 199.95854L29.815624 208.53667ZM38.6125 204.89604Q38.6125 206.80229 37.95625 207.73979Q37.315624 208.66167 35.925 208.66167Q34.565624 208.66167 33.909374 207.75542Q33.253124 206.84917 33.221874 205.03667L33.221874 203.59917Q33.221874 201.70854 33.8625 200.80229Q34.51875 199.88042 35.909374 199.88042Q37.284374 199.88042 37.940624 200.77104Q38.596874 201.64604 38.6125 203.48979L38.6125 204.89604ZM37.51875 203.41167Q37.51875 202.03667 37.128124 201.41167Q36.753124 200.77104 35.909374 200.77104Q35.08125 200.77104 34.690624 201.41167Q34.315624 202.03667 34.315624 203.33354L34.315624 205.06792Q34.315624 206.44292 34.70625 207.11479Q35.1125 207.77104 35.925 207.77104Q36.721874 207.77104 37.1125 207.14604Q37.503124 206.52104 37.51875 205.19292L37.51875 203.41167Z" fill-rule="nonzero"/><path fill="#757575" d="M29.815624 161.33L28.7375 161.33L28.7375 154.11125L26.55 154.90813L26.55 153.92375L29.659374 152.75188L29.815624 152.75188L29.815624 161.33ZM33.753124 157.04875L34.190624 152.79875L38.565624 152.79875L38.565624 153.79875L35.1125 153.79875L34.846874 156.12688Q35.4875 155.75188 36.284374 155.75188Q37.440624 155.75188 38.128124 156.53313Q38.815624 157.29875 38.815624 158.61125Q38.815624 159.92375 38.096874 160.68938Q37.39375 161.455 36.1125 161.455Q34.9875 161.455 34.26875 160.83Q33.55 160.18938 33.45625 159.08L34.471874 159.08Q34.58125 159.81438 35.003124 160.18938Q35.425 160.56438 36.1125 160.56438Q36.8625 160.56438 37.3 160.04875Q37.7375 159.53313 37.7375 158.62688Q37.7375 157.7675 37.26875 157.25188Q36.8 156.73625 36.01875 156.73625Q35.315624 156.73625 34.909374 157.03313L34.628124 157.2675L33.753124 157.04875Z" fill-rule="nonzero"/><path fill="#757575" d="M31.846874 114.12334L26.253124 114.12334L26.253124 113.34209L29.20625 110.06084Q29.8625 109.31084 30.1125 108.85771Q30.3625 108.38896 30.3625 107.88896Q30.3625 107.21709 29.95625 106.79521Q29.565624 106.35771 28.878124 106.35771Q28.08125 106.35771 27.628124 106.82646Q27.175 107.27959 27.175 108.10771L26.096874 108.10771Q26.096874 106.92021 26.846874 106.20146Q27.6125 105.46709 28.878124 105.46709Q30.08125 105.46709 30.76875 106.09209Q31.45625 106.71709 31.45625 107.76396Q31.45625 109.01396 29.846874 110.76396L27.565624 113.23271L31.846874 113.23271L31.846874 114.12334ZM38.6125 110.48271Q38.6125 112.38896 37.95625 113.32646Q37.315624 114.24834 35.925 114.24834Q34.565624 114.24834 33.909374 113.34209Q33.253124 112.43584 33.221874 110.62334L33.221874 109.18584Q33.221874 107.29521 33.8625 106.38896Q34.51875 105.46709 35.909374 105.46709Q37.284374 105.46709 37.940624 106.35771Q38.596874 107.23271 38.6125 109.07646L38.6125 110.48271ZM37.51875 108.99834Q37.51875 107.62334 37.128124 106.99834Q36.753124 106.35771 35.909374 106.35771Q35.08125 106.35771 34.690624 106.99834Q34.315624 107.62334 34.315624 108.92021L34.315624 110.65459Q34.315624 112.02959 34.70625 112.70146Q35.1125 113.35771 35.925 113.35771Q36.721874 113.35771 37.1125 112.73271Q37.503124 112.10771 37.51875 110.77959L37.51875 108.99834Z" fill-rule="nonzero"/><path fill="#757575" d="M31.846874 66.916664L26.253124 66.916664L26.253124 66.135414L29.20625 62.854164Q29.8625 62.104164 30.1125 61.65104Q30.3625 61.18229 30.3625 60.68229Q30.3625 60.010414 29.95625 59.58854Q29.565624 59.15104 28.878124 59.15104Q28.08125 59.15104 27.628124 59.61979Q27.175 60.072914 27.175 60.90104L26.096874 60.90104Q26.096874 59.71354 26.846874 58.99479Q27.6125 58.260414 28.878124 58.260414Q30.08125 58.260414 30.76875 58.885414Q31.45625 59.510414 31.45625 60.55729Q31.45625 61.80729 29.846874 63.55729L27.565624 66.02604L31.846874 66.02604L31.846874 66.916664ZM33.753124 62.635414L34.190624 58.385414L38.565624 58.385414L38.565624 59.385414L35.1125 59.385414L34.846874 61.71354Q35.4875 61.33854 36.284374 61.33854Q37.440624 61.33854 38.128124 62.11979Q38.815624 62.885414 38.815624 64.197914Q38.815624 65.510414 38.096874 66.27604Q37.39375 67.041664 36.1125 67.041664Q34.9875 67.041664 34.26875 66.416664Q33.55 65.77604 33.45625 64.666664L34.471874 64.666664Q34.58125 65.40104 35.003124 65.77604Q35.425 66.15104 36.1125 66.15104Q36.8625 66.15104 37.3 65.635414Q37.7375 65.11979 37.7375 64.21354Q37.7375 63.354164 37.26875 62.83854Q36.8 62.322914 36.01875 62.322914Q35.315624 62.322914 34.909374 62.61979L34.628124 62.854164L33.753124 62.635414Z" fill-rule="nonzero"/><path fill="#757575" d="M86.62859 310.1375Q86.62859 310.77814 86.28484 311.27814Q85.94109 311.77814 85.37859 312.0594Q86.03484 312.34064 86.42547 312.90314Q86.81609 313.45 86.81609 314.15314Q86.81609 315.2469 86.06609 315.91876Q85.33172 316.575 84.11297 316.575Q82.87859 316.575 82.12859 315.91876Q81.39422 315.2469 81.39422 314.15314Q81.39422 313.45 81.76922 312.90314Q82.14422 312.34064 82.81609 312.0594Q82.25359 311.77814 81.92547 311.27814Q81.59734 310.77814 81.59734 310.1375Q81.59734 309.0594 82.28484 308.4344Q82.97234 307.79376 84.11297 307.79376Q85.23797 307.79376 85.92547 308.4344Q86.62859 309.0594 86.62859 310.1375ZM85.73797 314.1219Q85.73797 313.40314 85.28484 312.96564Q84.83172 312.5125 84.09734 312.5125Q83.36297 312.5125 82.90984 312.96564Q82.47234 313.40314 82.47234 314.1375Q82.47234 314.85626 82.90984 315.27814Q83.34734 315.6844 84.11297 315.6844Q84.86297 315.6844 85.30047 315.2625Q85.73797 314.84064 85.73797 314.1219ZM84.11297 308.6844Q83.47234 308.6844 83.06609 309.09064Q82.67547 309.48126 82.67547 310.16876Q82.67547 310.8094 83.06609 311.21564Q83.45672 311.6219 84.09734 311.6219Q84.75359 311.6219 85.14422 311.21564Q85.53484 310.8094 85.53484 310.16876Q85.53484 309.5125 85.12859 309.10626Q84.72234 308.6844 84.11297 308.6844Z" fill-rule="nonzero"/><path fill="#757575" d="M139.8191 313.7469Q139.66286 315.09064 138.8191 315.84064Q137.97536 316.575 136.58473 316.575Q135.0691 316.575 134.16286 315.4969Q133.2566 314.40314 133.2566 312.575L133.2566 311.7625Q133.2566 310.575 133.67848 309.66876Q134.10036 308.7625 134.8816 308.27814Q135.66286 307.79376 136.67848 307.79376Q138.03786 307.79376 138.85036 308.5594Q139.67848 309.325 139.8191 310.65314L138.6941 310.65314Q138.53786 309.6375 138.05348 309.1844Q137.5691 308.73126 136.67848 308.73126Q135.60036 308.73126 134.99098 309.52814Q134.3816 310.325 134.3816 311.79376L134.3816 312.6219Q134.3816 314.0125 134.95973 314.84064Q135.53786 315.65314 136.58473 315.65314Q137.52223 315.65314 138.02223 315.23126Q138.52223 314.79376 138.6941 313.7469L139.8191 313.7469ZM143.6316 313.2625L140.77223 313.2625L140.77223 312.3875L143.6316 312.3875L143.6316 313.2625ZM147.8191 316.45L146.74098 316.45L146.74098 309.23126L144.55348 310.02814L144.55348 309.04376L147.66286 307.8719L147.8191 307.8719L147.8191 316.45Z" fill-rule="nonzero"/><path fill="#757575" d="M197.13461 313.7469Q196.97836 315.09064 196.13461 315.84064Q195.29086 316.575 193.90024 316.575Q192.38461 316.575 191.47836 315.4969Q190.57211 314.40314 190.57211 312.575L190.57211 311.7625Q190.57211 310.575 190.99399 309.66876Q191.41586 308.7625 192.19711 308.27814Q192.97836 307.79376 193.99399 307.79376Q195.35336 307.79376 196.16586 308.5594Q196.99399 309.325 197.13461 310.65314L196.00961 310.65314Q195.85336 309.6375 195.36899 309.1844Q194.88461 308.73126 193.99399 308.73126Q192.91586 308.73126 192.30649 309.52814Q191.69711 310.325 191.69711 311.79376L191.69711 312.6219Q191.69711 314.0125 192.27524 314.84064Q192.85336 315.65314 193.90024 315.65314Q194.83774 315.65314 195.33774 315.23126Q195.83774 314.79376 196.00961 313.7469L197.13461 313.7469ZM200.94711 313.2625L198.08774 313.2625L198.08774 312.3875L200.94711 312.3875L200.94711 313.2625ZM207.16586 316.45L201.57211 316.45L201.57211 315.66876L204.52524 312.3875Q205.18149 311.6375 205.43149 311.1844Q205.68149 310.71564 205.68149 310.21564Q205.68149 309.54376 205.27524 309.1219Q204.88461 308.6844 204.19711 308.6844Q203.40024 308.6844 202.94711 309.15314Q202.49399 309.60626 202.49399 310.4344L201.41586 310.4344Q201.41586 309.2469 202.16586 308.52814Q202.93149 307.79376 204.19711 307.79376Q205.40024 307.79376 206.08774 308.41876Q206.77524 309.04376 206.77524 310.09064Q206.77524 311.34064 205.16586 313.09064L202.88461 315.5594L207.16586 315.5594L207.16586 316.45Z" fill-rule="nonzero"/><path fill="#757575" d="M254.45012 313.7469Q254.29387 315.09064 253.45012 315.84064Q252.60637 316.575 251.21574 316.575Q249.70012 316.575 248.79387 315.4969Q247.88762 314.40314 247.88762 312.575L247.88762 311.7625Q247.88762 310.575 248.3095 309.66876Q248.73137 308.7625 249.51262 308.27814Q250.29387 307.79376 251.3095 307.79376Q252.66887 307.79376 253.48137 308.5594Q254.3095 309.325 254.45012 310.65314L253.32512 310.65314Q253.16887 309.6375 252.6845 309.1844Q252.20012 308.73126 251.3095 308.73126Q250.23137 308.73126 249.622 309.52814Q249.01262 310.325 249.01262 311.79376L249.01262 312.6219Q249.01262 314.0125 249.59074 314.84064Q250.16887 315.65314 251.21574 315.65314Q252.15324 315.65314 252.65324 315.23126Q253.15324 314.79376 253.32512 313.7469L254.45012 313.7469ZM258.26263 313.2625L255.40324 313.2625L255.40324 312.3875L258.26263 312.3875L258.26263 313.2625ZM260.46576 311.65314L261.27826 311.65314Q262.0595 311.6375 262.497 311.2469Q262.9345 310.85626 262.9345 310.1844Q262.9345 308.6844 261.4345 308.6844Q260.73138 308.6844 260.3095 309.09064Q259.90326 309.4969 259.90326 310.15314L258.8095 310.15314Q258.8095 309.1375 259.54388 308.46564Q260.29388 307.79376 261.4345 307.79376Q262.63763 307.79376 263.32513 308.4344Q264.01263 309.075 264.01263 310.21564Q264.01263 310.77814 263.65326 311.29376Q263.29388 311.8094 262.66888 312.075Q263.372 312.29376 263.747 312.8094Q264.13763 313.325 264.13763 314.075Q264.13763 315.21564 263.38763 315.90314Q262.63763 316.575 261.4345 316.575Q260.247 316.575 259.48138 315.91876Q258.73138 315.2625 258.73138 314.2L259.82513 314.2Q259.82513 314.8719 260.26263 315.27814Q260.70013 315.6844 261.45013 315.6844Q262.23138 315.6844 262.63763 315.27814Q263.0595 314.85626 263.0595 314.09064Q263.0595 313.35626 262.60638 312.96564Q262.15326 312.5594 261.27826 312.54376L260.46576 312.54376L260.46576 311.65314Z" fill-rule="nonzero"/><path fill="#757575" d="M311.76562 313.7469Q311.60938 315.09064 310.76562 315.84064Q309.92188 316.575 308.53125 316.575Q307.01562 316.575 306.10938 315.4969Q305.20312 314.40314 305.20312 312.575L305.20312 311.7625Q305.20312 310.575 305.625 309.66876Q306.04688 308.7625 306.82812 308.27814Q307.60938 307.79376 308.625 307.79376Q309.98438 307.79376 310.79688 308.5594Q311.625 309.325 311.76562 310.65314L310.64062 310.65314Q310.48438 309.6375 310.0 309.1844Q309.51562 308.73126 308.625 308.73126Q307.54688 308.73126 306.9375 309.52814Q306.32812 310.325 306.32812 311.79376L306.32812 312.6219Q306.32812 314.0125 306.90625 314.84064Q307.48438 315.65314 308.53125 315.65314Q309.46875 315.65314 309.96875 315.23126Q310.46875 314.79376 310.64062 313.7469L311.76562 313.7469ZM315.57812 313.2625L312.71875 313.2625L312.71875 312.3875L315.57812 312.3875L315.57812 313.2625ZM320.78125 313.59064L321.96875 313.59064L321.96875 314.46564L320.78125 314.46564L320.78125 316.45L319.70312 316.45L319.70312 314.46564L315.8125 314.46564L315.8125 313.825L319.625 307.91876L320.78125 307.91876L320.78125 313.59064ZM317.04688 313.59064L319.70312 313.59064L319.70312 309.40314L319.5625 309.6375L317.04688 313.59064Z" fill-rule="nonzero"/><path fill="#757575" d="M368.8624 316.45L367.7374 316.45L367.7374 312.5125L363.4249 312.5125L363.4249 316.45L362.2999 316.45L362.2999 307.91876L363.4249 307.91876L363.4249 311.59064L367.7374 311.59064L367.7374 307.91876L368.8624 307.91876L368.8624 316.45ZM373.39365 313.2625L370.53427 313.2625L370.53427 312.3875L373.39365 312.3875L373.39365 313.2625ZM377.58115 316.45L376.50302 316.45L376.50302 309.23126L374.31552 310.02814L374.31552 309.04376L377.4249 307.8719L377.58115 307.8719L377.58115 316.45Z" fill-rule="nonzero"/><path fill="#757575" d="M426.1779 316.45L425.0529 316.45L425.0529 312.5125L420.7404 312.5125L420.7404 316.45L419.6154 316.45L419.6154 307.91876L420.7404 307.91876L420.7404 311.59064L425.0529 311.59064L425.0529 307.91876L426.1779 307.91876L426.1779 316.45ZM430.70914 313.2625L427.84976 313.2625L427.84976 312.3875L430.70914 312.3875L430.70914 313.2625ZM436.9279 316.45L431.33414 316.45L431.33414 315.66876L434.28726 312.3875Q434.9435 311.6375 435.1935 311.1844Q435.4435 310.71564 435.4435 310.21564Q435.4435 309.54376 435.03726 309.1219Q434.64664 308.6844 433.95914 308.6844Q433.16226 308.6844 432.70914 309.15314Q432.256 309.60626 432.256 310.4344L431.1779 310.4344Q431.1779 309.2469 431.9279 308.52814Q432.6935 307.79376 433.95914 307.79376Q435.16226 307.79376 435.84976 308.41876Q436.53726 309.04376 436.53726 310.09064Q436.53726 311.34064 434.9279 313.09064L432.64664 315.5594L436.9279 315.5594L436.9279 316.45Z" fill-rule="nonzero"/><path fill="#757575" d="M483.4934 316.45L482.3684 316.45L482.3684 312.5125L478.0559 312.5125L478.0559 316.45L476.9309 316.45L476.9309 307.91876L478.0559 307.91876L478.0559 311.59064L482.3684 311.59064L482.3684 307.91876L483.4934 307.91876L483.4934 316.45ZM488.02466 313.2625L485.16528 313.2625L485.16528 312.3875L488.02466 312.3875L488.02466 313.2625ZM490.22778 311.65314L491.04028 311.65314Q491.82153 311.6375 492.25903 311.2469Q492.69653 310.85626 492.69653 310.1844Q492.69653 308.6844 491.19653 308.6844Q490.4934 308.6844 490.07153 309.09064Q489.66528 309.4969 489.66528 310.15314L488.57153 310.15314Q488.57153 309.1375 489.3059 308.46564Q490.0559 307.79376 491.19653 307.79376Q492.39966 307.79376 493.08716 308.4344Q493.77466 309.075 493.77466 310.21564Q493.77466 310.77814 493.41528 311.29376Q493.0559 311.8094 492.4309 312.075Q493.13403 312.29376 493.50903 312.8094Q493.89966 313.325 493.89966 314.075Q493.89966 315.21564 493.14966 315.90314Q492.39966 316.575 491.19653 316.575Q490.00903 316.575 489.2434 315.91876Q488.4934 315.2625 488.4934 314.2L489.58716 314.2Q489.58716 314.8719 490.02466 315.27814Q490.46216 315.6844 491.21216 315.6844Q491.9934 315.6844 492.39966 315.27814Q492.82153 314.85626 492.82153 314.09064Q492.82153 313.35626 492.3684 312.96564Q491.91528 312.5594 491.04028 312.54376L490.22778 312.54376L490.22778 311.65314Z" fill-rule="nonzero"/><path fill="#757575" d="M540.8089 316.45L539.6839 316.45L539.6839 312.5125L535.3714 312.5125L535.3714 316.45L534.2464 316.45L534.2464 307.91876L535.3714 307.91876L535.3714 311.59064L539.6839 311.59064L539.6839 307.91876L540.8089 307.91876L540.8089 316.45ZM545.34015 313.2625L542.4808 313.2625L542.4808 312.3875L545.34015 312.3875L545.34015 313.2625ZM550.5433 313.59064L551.7308 313.59064L551.7308 314.46564L550.5433 314.46564L550.5433 316.45L549.46515 316.45L549.46515 314.46564L545.5745 314.46564L545.5745 313.825L549.387 307.91876L550.5433 307.91876L550.5433 313.59064ZM546.8089 313.59064L549.46515 313.59064L549.46515 309.40314L549.3245 309.6375L546.8089 313.59064Z" fill-rule="nonzero"/><path fill="#757575" d="M30.659374 33.034374Q30.39375 35.3 28.9875 36.534374Q27.596874 37.753124 25.26875 37.753124Q22.753124 37.753124 21.221874 35.940624Q19.70625 34.128124 19.70625 31.096874L19.70625 29.7375Q19.70625 27.753124 20.409374 26.253124Q21.128124 24.753124 22.425 23.940624Q23.721874 23.128124 25.440624 23.128124Q27.70625 23.128124 29.065624 24.39375Q30.440624 25.659374 30.659374 27.89375L28.76875 27.89375Q28.534374 26.20625 27.70625 25.440624Q26.89375 24.675 25.440624 24.675Q23.64375 24.675 22.6125 26.003124Q21.596874 27.33125 21.596874 29.784374L21.596874 31.159374Q21.596874 33.471874 22.565624 34.846874Q23.534374 36.20625 25.26875 36.20625Q26.83125 36.20625 27.659374 35.503124Q28.503124 34.8 28.76875 33.034374L30.659374 33.034374ZM32.440624 32.175Q32.440624 30.6125 33.05 29.378124Q33.659374 28.128124 34.7375 27.45625Q35.83125 26.784374 37.2375 26.784374Q39.39375 26.784374 40.721874 28.284374Q42.065624 29.76875 42.065624 32.253124L42.065624 32.378124Q42.065624 33.925 41.471874 35.159374Q40.878124 36.378124 39.76875 37.065624Q38.675 37.753124 37.253124 37.753124Q35.1125 37.753124 33.76875 36.253124Q32.440624 34.753124 32.440624 32.3L32.440624 32.175ZM34.253124 32.378124Q34.253124 34.14375 35.065624 35.20625Q35.89375 36.26875 37.253124 36.26875Q38.628124 36.26875 39.440624 35.190624Q40.253124 34.1125 40.253124 32.175Q40.253124 30.425 39.425 29.346874Q38.596874 28.26875 37.2375 28.26875Q35.89375 28.26875 35.065624 29.33125Q34.253124 30.39375 34.253124 32.378124ZM50.440624 36.503124Q49.39375 37.753124 47.346874 37.753124Q45.659374 37.753124 44.76875 36.76875Q43.89375 35.784374 43.878124 33.8625L43.878124 26.9875L45.690624 26.9875L45.690624 33.815624Q45.690624 36.20625 47.64375 36.20625Q49.70625 36.20625 50.39375 34.675L50.39375 26.9875L52.20625 26.9875L52.20625 37.55L50.4875 37.55L50.440624 36.503124ZM56.628124 26.9875L56.690624 28.315624Q57.89375 26.784374 59.846874 26.784374Q63.20625 26.784374 63.221874 30.565624L63.221874 37.55L61.425 37.55L61.425 30.55Q61.409374 29.409374 60.89375 28.8625Q60.39375 28.315624 59.3 28.315624Q58.425 28.315624 57.753124 28.784374Q57.096874 29.253124 56.721874 30.01875L56.721874 37.55L54.925 37.55L54.925 26.9875L56.628124 26.9875ZM68.3625 24.425L68.3625 26.9875L70.34688 26.9875L70.34688 28.378124L68.3625 28.378124L68.3625 34.925Q68.3625 35.565624 68.62813 35.89375Q68.89375 36.20625 69.53438 36.20625Q69.84688 36.20625 70.39375 36.08125L70.39375 37.55Q69.675 37.753124 69.00313 37.753124Q67.8 37.753124 67.175 37.01875Q66.56563 36.284374 66.56563 34.925L66.56563 28.378124L64.64375 28.378124L64.64375 26.9875L66.56563 26.9875L66.56563 24.425L68.3625 24.425ZM77.44063 32.175Q77.44063 30.6125 78.05 29.378124Q78.65938 28.128124 79.7375 27.45625Q80.83125 26.784374 82.2375 26.784374Q84.39375 26.784374 85.72188 28.284374Q87.06563 29.76875 87.06563 32.253124L87.06563 32.378124Q87.06563 33.925 86.47188 35.159374Q85.87813 36.378124 84.76875 37.065624Q83.675 37.753124 82.25313 37.753124Q80.1125 37.753124 78.76875 36.253124Q77.44063 34.753124 77.44063 32.3L77.44063 32.175ZM79.25313 32.378124Q79.25313 34.14375 80.06563 35.20625Q80.89375 36.26875 82.25313 36.26875Q83.62813 36.26875 84.44063 35.190624Q85.25313 34.1125 85.25313 32.175Q85.25313 30.425 84.425 29.346874Q83.59688 28.26875 82.2375 28.26875Q80.89375 28.26875 80.06563 29.33125Q79.25313 30.39375 79.25313 32.378124ZM89.8 37.55L89.8 28.378124L88.14375 28.378124L88.14375 26.9875L89.8 26.9875L89.8 25.89375Q89.8 24.20625 90.70625 23.284374Q91.62813 22.346874 93.28438 22.346874Q93.90938 22.346874 94.51875 22.503124L94.425 23.971874Q93.97188 23.89375 93.45625 23.89375Q92.56563 23.89375 92.08125 24.409374Q91.6125 24.909374 91.6125 25.8625L91.6125 26.9875L93.8625 26.9875L93.8625 28.378124L91.6125 28.378124L91.6125 37.55L89.8 37.55ZM105.3 37.753124Q103.15938 37.753124 101.8 36.346874Q100.45625 34.925 100.45625 32.565624L100.45625 32.221874Q100.45625 30.659374 101.05 29.425Q101.65938 28.190624 102.7375 27.4875Q103.81563 26.784374 105.08125 26.784374Q107.14375 26.784374 108.28438 28.14375Q109.425 29.503124 109.425 32.034374L109.425 32.784374L102.26875 32.784374Q102.3 34.346874 103.175 35.315624Q104.05 36.26875 105.39375 36.26875Q106.3625 36.26875 107.01875 35.878124Q107.69063 35.4875 108.19063 34.846874L109.28438 35.70625Q107.95625 37.753124 105.3 37.753124ZM105.08125 28.26875Q103.9875 28.26875 103.2375 29.065624Q102.50313 29.8625 102.33125 31.3L107.6125 31.3L107.6125 31.159374Q107.53438 29.784374 106.8625 29.034374Q106.20625 28.26875 105.08125 28.26875ZM111.47188 32.175Q111.47188 29.753124 112.62813 28.26875Q113.78438 26.784374 115.64375 26.784374Q117.50313 26.784374 118.58125 28.05L118.58125 22.55L120.39375 22.55L120.39375 37.55L118.7375 37.55L118.64375 36.409374Q117.56563 37.753124 115.62813 37.753124Q113.8 37.753124 112.62813 36.253124Q111.47188 34.7375 111.47188 32.315624L111.47188 32.175ZM113.28438 32.378124Q113.28438 34.175 114.01875 35.190624Q114.76875 36.20625 116.08125 36.20625Q117.8 36.20625 118.58125 34.675L118.58125 29.815624Q117.78438 28.315624 116.09688 28.315624Q114.76875 28.315624 114.01875 29.346874Q113.28438 30.378124 113.28438 32.378124ZM129.44063 36.503124Q128.39375 37.753124 126.34688 37.753124Q124.65938 37.753124 123.76875 36.76875Q122.89375 35.784374 122.87813 33.8625L122.87813 26.9875L124.69063 26.9875L124.69063 33.815624Q124.69063 36.20625 126.64375 36.20625Q128.70625 36.20625 129.39375 34.675L129.39375 26.9875L131.20625 26.9875L131.20625 37.55L129.4875 37.55L129.44063 36.503124ZM138.15938 36.26875Q139.12813 36.26875 139.84688 35.690624Q140.56563 35.096874 140.64375 34.221874L142.3625 34.221874Q142.3 35.128124 141.72188 35.95625Q141.15938 36.76875 140.19063 37.26875Q139.2375 37.753124 138.15938 37.753124Q136.00313 37.753124 134.72188 36.315624Q133.45625 34.8625 133.45625 32.3625L133.45625 32.065624Q133.45625 30.51875 134.01875 29.315624Q134.58125 28.1125 135.64375 27.45625Q136.70625 26.784374 138.14375 26.784374Q139.925 26.784374 141.09688 27.846874Q142.28438 28.909374 142.3625 30.6125L140.64375 30.6125Q140.56563 29.596874 139.8625 28.940624Q139.175 28.26875 138.14375 28.26875Q136.76875 28.26875 136.00313 29.26875Q135.25313 30.253124 135.25313 32.128124L135.25313 32.471874Q135.25313 34.3 136.00313 35.284374Q136.75313 36.26875 138.15938 36.26875ZM150.44063 37.55Q150.28438 37.2375 150.19063 36.440624Q148.925 37.753124 147.175 37.753124Q145.6125 37.753124 144.6125 36.8625Q143.6125 35.971874 143.6125 34.6125Q143.6125 32.971874 144.8625 32.065624Q146.12813 31.14375 148.39375 31.14375L150.15938 31.14375L150.15938 30.315624Q150.15938 29.3625 149.58125 28.8Q149.01875 28.2375 147.925 28.2375Q146.95625 28.2375 146.3 28.7375Q145.64375 29.221874 145.64375 29.909374L143.83125 29.909374Q143.83125 29.128124 144.39375 28.39375Q144.95625 27.64375 145.90938 27.221874Q146.87813 26.784374 148.03438 26.784374Q149.8625 26.784374 150.89375 27.70625Q151.925 28.6125 151.97188 30.221874L151.97188 35.08125Q151.97188 36.534374 152.33125 37.39375L152.33125 37.55L150.44063 37.55ZM147.44063 36.175Q148.3 36.175 149.05 35.7375Q149.81563 35.3 150.15938 34.596874L150.15938 32.425L148.7375 32.425Q145.425 32.425 145.425 34.3625Q145.425 35.221874 145.9875 35.70625Q146.55 36.175 147.44063 36.175ZM157.3625 24.425L157.3625 26.9875L159.34688 26.9875L159.34688 28.378124L157.3625 28.378124L157.3625 34.925Q157.3625 35.565624 157.62813 35.89375Q157.89375 36.20625 158.53438 36.20625Q158.84688 36.20625 159.39375 36.08125L159.39375 37.55Q158.675 37.753124 158.00313 37.753124Q156.8 37.753124 156.175 37.01875Q155.56563 36.284374 155.56563 34.925L155.56563 28.378124L153.64375 28.378124L153.64375 26.9875L155.56563 26.9875L155.56563 24.425L157.3625 24.425ZM163.87813 37.55L162.08125 37.55L162.08125 26.9875L163.87813 26.9875L163.87813 37.55ZM161.925 24.175Q161.925 23.7375 162.19063 23.440624Q162.47188 23.128124 162.9875 23.128124Q163.51875 23.128124 163.78438 23.440624Q164.06563 23.7375 164.06563 24.175Q164.06563 24.6125 163.78438 24.909374Q163.51875 25.20625 162.9875 25.20625Q162.47188 25.20625 162.19063 24.909374Q161.925 24.6125 161.925 24.175ZM166.44063 32.175Q166.44063 30.6125 167.05 29.378124Q167.65938 28.128124 168.7375 27.45625Q169.83125 26.784374 171.2375 26.784374Q173.39375 26.784374 174.72188 28.284374Q176.06563 29.76875 176.06563 32.253124L176.06563 32.378124Q176.06563 33.925 175.47188 35.159374Q174.87813 36.378124 173.76875 37.065624Q172.675 37.753124 171.25313 37.753124Q169.1125 37.753124 167.76875 36.253124Q166.44063 34.753124 166.44063 32.3L166.44063 32.175ZM168.25313 32.378124Q168.25313 34.14375 169.06563 35.20625Q169.89375 36.26875 171.25313 36.26875Q172.62813 36.26875 173.44063 35.190624Q174.25313 34.1125 174.25313 32.175Q174.25313 30.425 173.425 29.346874Q172.59688 28.26875 171.2375 28.26875Q169.89375 28.26875 169.06563 29.33125Q168.25313 30.39375 168.25313 32.378124ZM179.62813 26.9875L179.69063 28.315624Q180.89375 26.784374 182.84688 26.784374Q186.20625 26.784374 186.22188 30.565624L186.22188 37.55L184.425 37.55L184.425 30.55Q184.40938 29.409374 183.89375 28.8625Q183.39375 28.315624 182.3 28.315624Q181.425 28.315624 180.75313 28.784374Q180.09688 29.253124 179.72188 30.01875L179.72188 37.55L177.925 37.55L177.925 26.9875L179.62813 26.9875ZM196.53438 39.01875L187.59688 39.01875L187.59688 37.55L196.53438 37.55L196.53438 39.01875ZM203.675 37.55L201.84688 37.55L201.84688 25.503124L198.20625 26.846874L198.20625 25.20625L203.39375 23.26875L203.675 23.26875L203.675 37.55ZM216.3625 32.76875L218.33125 32.76875L218.33125 34.253124L216.3625 34.253124L216.3625 37.55L214.55 37.55L214.55 34.253124L208.06563 34.253124L208.06563 33.190624L214.44063 23.33125L216.3625 23.33125L216.3625 32.76875ZM210.1125 32.76875L214.55 32.76875L214.55 25.8L214.33125 26.190624L210.1125 32.76875Z" fill-rule="nonzero"/></svg>