<svg version="1.1" viewBox="0.0 0.0 600.0 371.0" fill="none" stroke="none" stroke-linecap="square" stroke-miterlimit="10" width="600" height="371" xmlns:xlink="http://www.w3.org/1999/xlink" xmlns="http://www.w3.org/2000/svg"><path fill="#ffffff" d="M0 0L600.0 0L600.0 371.0L0 371.0L0 0Z" fill-rule="nonzero"/><path stroke="#333333" stroke-width="1.0" stroke-linecap="butt" d="M45.5 298.5L581.5 298.5" fill-rule="nonzero"/><path stroke="#cccccc" stroke-width="1.0" stroke-linecap="butt" d="M45.5 251.5L581.5 251.5" fill-rule="nonzero"/><path stroke="#cccccc" stroke-width="1.0" stroke-linecap="butt" d="M45.5 204.5L581.5 204.5" fill-rule="nonzero"/><path stroke="#cccccc" stroke-width="1.0" stroke-linecap="butt" d="M45.5 156.5L581.5 156.5" fill-rule="nonzero"/><path stroke="#cccccc" stroke-width="1.0" stroke-linecap="butt" d="M45.5 109.5L581.5 109.5" fill-rule="nonzero"/><path stroke="#cccccc" stroke-width="1.0" stroke-linecap="butt" d="M45.5 62.5L581.5 62.5" fill-rule="nonzero"/><clipPath id="id_0"><path d="M45.55 62.416668L581.45 62.416668L581.45 298.45L45.55 298.45L45.55 62.416668Z" clip-rule="nonzero"/></clipPath><path stroke="#000000" stroke-width="2.0" stroke-linecap="butt" stroke-opacity="0.0" clip-path="url(#id_0)" d="M169.0 298.0L89.0 298.0L89.0 102.0C89.0 100.89543 89.89543 100.0 91.0 100.0L167.0 100.0C168.10457 100.0 169.0 100.89543 169.0 102.0Z" fill-rule="nonzero"/><path fill="#4285f4" clip-path="url(#id_0)" d="M169.0 298.0L89.0 298.0L89.0 102.0C89.0 100.89543 89.89543 100.0 91.0 100.0L167.0 100.0C168.10457 100.0 169.0 100.89543 169.0 102.0Z" fill-rule="nonzero"/><path stroke="#000000" stroke-width="2.0" stroke-linecap="butt" stroke-opacity="0.0" clip-path="url(#id_0)" d="M292.0 298.0L212.0 298.0L212.0 102.0C212.0 100.89543 212.89543 100.0 214.0 100.0L290.0 100.0C291.10458 100.0 292.0 100.89543 292.0 102.0Z" fill-rule="nonzero"/><path fill="#4285f4" clip-path="url(#id_0)" d="M292.0 298.0L212.0 298.0L212.0 102.0C212.0 100.89543 212.89543 100.0 214.0 100.0L290.0 100.0C291.10458 100.0 292.0 100.89543 292.0 102.0Z" fill-rule="nonzero"/><path stroke="#000000" stroke-width="2.0" stroke-linecap="butt" stroke-opacity="0.0" clip-path="url(#id_0)" d="M415.0 298.0L335.0 298.0L335.0 253.0C335.0 251.89543 335.89542 251.0 337.0 251.0L413.0 251.0C414.10458 251.0 415.0 251.89543 415.0 253.0Z" fill-rule="nonzero"/><path fill="#4285f4" clip-path="url(#id_0)" d="M415.0 298.0L335.0 298.0L335.0 253.0C335.0 251.89543 335.89542 251.0 337.0 251.0L413.0 251.0C414.10458 251.0 415.0 251.89543 415.0 253.0Z" fill-rule="nonzero"/><path stroke="#000000" stroke-width="2.0" stroke-linecap="butt" stroke-opacity="0.0" clip-path="url(#id_0)" d="M538.0 298.0L458.0 298.0L458.0 244.0C458.0 242.89543 458.89542 242.0 460.0 242.0L536.0 242.0C537.10455 242.0 538.0 242.89543 538.0 244.0Z" fill-rule="nonzero"/><path fill="#4285f4" clip-path="url(#id_0)" d="M538.0 298.0L458.0 298.0L458.0 244.0C458.0 242.89543 458.89542 242.0 460.0 242.0L536.0 242.0C537.10455 242.0 538.0 242.89543 538.0 244.0Z" fill-rule="nonzero"/><path fill="#424242" d="M266.76562 346.7469Q266.60938 348.09064 265.76562 348.84064Q264.92188 349.575 263.53125 349.575Q262.01562 349.575 261.10938 348.4969Q260.20312 347.40314 260.20312 345.575L260.20312 344.7625Q260.20312 343.575 260.625 342.66876Q261.04688 341.7625 261.82812 341.27814Q262.60938 340.79376 263.625 340.79376Q264.98438 340.79376 265.79688 341.5594Q266.625 342.325 266.76562 343.65314L265.64062 343.65314Q265.48438 342.6375 265.0 342.1844Q264.51562 341.73126 263.625 341.73126Q262.54688 341.73126 261.9375 342.52814Q261.32812 343.325 261.32812 344.79376L261.32812 345.6219Q261.32812 347.0125 261.90625 347.84064Q262.48438 348.65314 263.53125 348.65314Q264.46875 348.65314 264.96875 348.23126Q265.46875 347.79376 265.64062 346.7469L266.76562 346.7469ZM268.03125 346.21564Q268.03125 345.29376 268.39062 344.54376Q268.76562 343.79376 269.42188 343.40314Q270.07812 342.9969 270.90625 342.9969Q272.20312 342.9969 273.0 343.8875Q273.8125 344.77814 273.8125 346.27814L273.8125 346.35626Q273.8125 347.27814 273.45312 348.0125Q273.09375 348.7469 272.4375 349.16876Q271.78125 349.575 270.92188 349.575Q269.64062 349.575 268.82812 348.6844Q268.03125 347.77814 268.03125 346.29376L268.03125 346.21564ZM269.125 346.35626Q269.125 347.40314 269.60938 348.04376Q270.10938 348.6844 270.92188 348.6844Q271.75 348.6844 272.23438 348.04376Q272.71875 347.3875 272.71875 346.21564Q272.71875 345.1844 272.21875 344.54376Q271.73438 343.8875 270.90625 343.8875Q270.10938 343.8875 269.60938 344.52814Q269.125 345.15314 269.125 346.35626ZM279.23438 348.825Q278.60938 349.575 277.375 349.575Q276.35938 349.575 275.82812 348.98126Q275.29688 348.3875 275.29688 347.23126L275.29688 343.10626L276.375 343.10626L276.375 347.2Q276.375 348.65314 277.54688 348.65314Q278.79688 348.65314 279.20312 347.71564L279.20312 343.10626L280.29688 343.10626L280.29688 349.45L279.26562 349.45L279.23438 348.825ZM283.34375 343.10626L283.375 343.90314Q284.10938 342.9969 285.28125 342.9969Q287.29688 342.9969 287.3125 345.2625L287.3125 349.45L286.21875 349.45L286.21875 345.2469Q286.21875 344.575 285.90625 344.2469Q285.60938 343.91876 284.95312 343.91876Q284.42188 343.91876 284.01562 344.2Q283.625 344.48126 283.40625 344.9344L283.40625 349.45L282.32812 349.45L282.32812 343.10626L283.34375 343.10626ZM290.79688 341.575L290.79688 343.10626L291.96875 343.10626L291.96875 343.95L290.79688 343.95L290.79688 347.8719Q290.79688 348.2625 290.95312 348.45Q291.10938 348.6375 291.48438 348.6375Q291.67188 348.6375 292.0 348.575L292.0 349.45Q291.57812 349.575 291.17188 349.575Q290.45312 349.575 290.07812 349.1375Q289.70312 348.6844 289.70312 347.8719L289.70312 343.95L288.54688 343.95L288.54688 343.10626L289.70312 343.10626L289.70312 341.575L290.79688 341.575ZM296.03125 346.21564Q296.03125 345.29376 296.39062 344.54376Q296.76562 343.79376 297.42188 343.40314Q298.07812 342.9969 298.90625 342.9969Q300.20312 342.9969 301.0 343.8875Q301.8125 344.77814 301.8125 346.27814L301.8125 346.35626Q301.8125 347.27814 301.45312 348.0125Q301.09375 348.7469 300.4375 349.16876Q299.78125 349.575 298.92188 349.575Q297.64062 349.575 296.82812 348.6844Q296.03125 347.77814 296.03125 346.29376L296.03125 346.21564ZM297.125 346.35626Q297.125 347.40314 297.60938 348.04376Q298.10938 348.6844 298.92188 348.6844Q299.75 348.6844 300.23438 348.04376Q300.71875 347.3875 300.71875 346.21564Q300.71875 345.1844 300.21875 344.54376Q299.73438 343.8875 298.90625 343.8875Q298.10938 343.8875 297.60938 344.52814Q297.125 345.15314 297.125 346.35626ZM303.85938 349.45L303.85938 343.95L302.85938 343.95L302.85938 343.10626L303.85938 343.10626L303.85938 342.46564Q303.85938 341.4344 304.39062 340.8875Q304.9375 340.325 305.9375 340.325Q306.3125 340.325 306.6875 340.41876L306.625 341.3094Q306.34375 341.2469 306.04688 341.2469Q305.51562 341.2469 305.21875 341.5594Q304.9375 341.8719 304.9375 342.4344L304.9375 343.10626L306.29688 343.10626L306.29688 343.95L304.9375 343.95L304.9375 349.45L303.85938 349.45ZM311.34375 343.10626L311.375 343.8094Q312.0625 342.9969 313.25 342.9969Q314.57812 342.9969 315.0625 344.0125Q315.375 343.5594 315.875 343.27814Q316.39062 342.9969 317.07812 342.9969Q319.17188 342.9969 319.20312 345.2L319.20312 349.45L318.125 349.45L318.125 345.2625Q318.125 344.59064 317.8125 344.2625Q317.5 343.91876 316.76562 343.91876Q316.15625 343.91876 315.75 344.27814Q315.35938 344.6375 315.29688 345.2469L315.29688 349.45L314.21875 349.45L314.21875 345.29376Q314.21875 343.91876 312.85938 343.91876Q311.79688 343.91876 311.40625 344.825L311.40625 349.45L310.3125 349.45L310.3125 343.10626L311.34375 343.10626ZM325.23438 349.45Q325.14062 349.2625 325.07812 348.77814Q324.32812 349.575 323.28125 349.575Q322.34375 349.575 321.73438 349.04376Q321.14062 348.5125 321.14062 347.6844Q321.14062 346.7 321.89062 346.15314Q322.64062 345.60626 324.01562 345.60626L325.0625 345.60626L325.0625 345.10626Q325.0625 344.54376 324.71875 344.21564Q324.39062 343.8719 323.71875 343.8719Q323.14062 343.8719 322.75 344.16876Q322.35938 344.45 322.35938 344.8719L321.26562 344.8719Q321.26562 344.3875 321.59375 343.95Q321.9375 343.5125 322.51562 343.2625Q323.09375 342.9969 323.78125 342.9969Q324.89062 342.9969 325.5 343.54376Q326.125 344.09064 326.15625 345.04376L326.15625 347.96564Q326.15625 348.84064 326.375 349.35626L326.375 349.45L325.23438 349.45ZM323.4375 348.6219Q323.95312 348.6219 324.40625 348.35626Q324.85938 348.09064 325.0625 347.66876L325.0625 346.3719L324.21875 346.3719Q322.21875 346.3719 322.21875 347.54376Q322.21875 348.04376 322.5625 348.34064Q322.90625 348.6219 323.4375 348.6219ZM331.39062 344.075Q331.14062 344.04376 330.85938 344.04376Q329.78125 344.04376 329.40625 344.95L329.40625 349.45L328.32812 349.45L328.32812 343.10626L329.375 343.10626L329.39062 343.84064Q329.92188 342.9969 330.90625 342.9969Q331.21875 342.9969 331.39062 343.075L331.39062 344.075ZM333.5 349.45L332.42188 349.45L332.42188 343.10626L333.5 343.10626L333.5 349.45ZM332.32812 341.4344Q332.32812 341.16876 332.48438 340.98126Q332.65625 340.79376 332.96875 340.79376Q333.28125 340.79376 333.4375 340.98126Q333.60938 341.16876 333.60938 341.4344Q333.60938 341.6844 333.4375 341.8719Q333.28125 342.04376 332.96875 342.04376Q332.65625 342.04376 332.48438 341.8719Q332.32812 341.6844 332.32812 341.4344ZM336.79688 341.575L336.79688 343.10626L337.96875 343.10626L337.96875 343.95L336.79688 343.95L336.79688 347.8719Q336.79688 348.2625 336.95312 348.45Q337.10938 348.6375 337.48438 348.6375Q337.67188 348.6375 338.0 348.575L338.0 349.45Q337.57812 349.575 337.17188 349.575Q336.45312 349.575 336.07812 349.1375Q335.70312 348.6844 335.70312 347.8719L335.70312 343.95L334.54688 343.95L334.54688 343.10626L335.70312 343.10626L335.70312 341.575L336.79688 341.575ZM343.23438 349.45Q343.14062 349.2625 343.07812 348.77814Q342.32812 349.575 341.28125 349.575Q340.34375 349.575 339.73438 349.04376Q339.14062 348.5125 339.14062 347.6844Q339.14062 346.7 339.89062 346.15314Q340.64062 345.60626 342.01562 345.60626L343.0625 345.60626L343.0625 345.10626Q343.0625 344.54376 342.71875 344.21564Q342.39062 343.8719 341.71875 343.8719Q341.14062 343.8719 340.75 344.16876Q340.35938 344.45 340.35938 344.8719L339.26562 344.8719Q339.26562 344.3875 339.59375 343.95Q339.9375 343.5125 340.51562 343.2625Q341.09375 342.9969 341.78125 342.9969Q342.89062 342.9969 343.5 343.54376Q344.125 344.09064 344.15625 345.04376L344.15625 347.96564Q344.15625 348.84064 344.375 349.35626L344.375 349.45L343.23438 349.45ZM341.4375 348.6219Q341.95312 348.6219 342.40625 348.35626Q342.85938 348.09064 343.0625 347.66876L343.0625 346.3719L342.21875 346.3719Q340.21875 346.3719 340.21875 347.54376Q340.21875 348.04376 340.5625 348.34064Q340.90625 348.6219 341.4375 348.6219ZM347.5 349.45L346.42188 349.45L346.42188 340.45L347.5 340.45L347.5 349.45ZM353.89062 350.34064L348.53125 350.34064L348.53125 349.45L353.89062 349.45L353.89062 350.34064ZM357.76562 349.45L356.6875 349.45L356.6875 342.23126L354.5 343.02814L354.5 342.04376L357.60938 340.8719L357.76562 340.8719L357.76562 349.45ZM366.79688 349.45L361.20312 349.45L361.20312 348.66876L364.15625 345.3875Q364.8125 344.6375 365.0625 344.1844Q365.3125 343.71564 365.3125 343.21564Q365.3125 342.54376 364.90625 342.1219Q364.51562 341.6844 363.82812 341.6844Q363.03125 341.6844 362.57812 342.15314Q362.125 342.60626 362.125 343.4344L361.04688 343.4344Q361.04688 342.2469 361.79688 341.52814Q362.5625 340.79376 363.82812 340.79376Q365.03125 340.79376 365.71875 341.41876Q366.40625 342.04376 366.40625 343.09064Q366.40625 344.34064 364.79688 346.09064L362.51562 348.5594L366.79688 348.5594L366.79688 349.45Z" fill-rule="nonzero"/><path fill="#757575" d="M38.6125 299.3094Q38.6125 301.21564 37.95625 302.15314Q37.315624 303.075 35.925 303.075Q34.565624 303.075 33.909374 302.16876Q33.253124 301.2625 33.221874 299.45L33.221874 298.0125Q33.221874 296.1219 33.8625 295.21564Q34.51875 294.29376 35.909374 294.29376Q37.284374 294.29376 37.940624 295.1844Q38.596874 296.0594 38.6125 297.90314L38.6125 299.3094ZM37.51875 297.825Q37.51875 296.45 37.128124 295.825Q36.753124 295.1844 35.909374 295.1844Q35.08125 295.1844 34.690624 295.825Q34.315624 296.45 34.315624 297.7469L34.315624 299.48126Q34.315624 300.85626 34.70625 301.52814Q35.1125 302.1844 35.925 302.1844Q36.721874 302.1844 37.1125 301.5594Q37.503124 300.9344 37.51875 299.60626L37.51875 297.825Z" fill-rule="nonzero"/><path fill="#757575" d="M33.753124 251.46208L34.190624 247.21208L38.565624 247.21208L38.565624 248.21208L35.1125 248.21208L34.846874 250.5402Q35.4875 250.1652 36.284374 250.1652Q37.440624 250.1652 38.128124 250.94646Q38.815624 251.71208 38.815624 253.02458Q38.815624 254.33708 38.096874 255.1027Q37.39375 255.86833 36.1125 255.86833Q34.9875 255.86833 34.26875 255.24333Q33.55 254.6027 33.45625 253.49333L34.471874 253.49333Q34.58125 254.2277 35.003124 254.6027Q35.425 254.9777 36.1125 254.9777Q36.8625 254.9777 37.3 254.46208Q37.7375 253.94646 37.7375 253.0402Q37.7375 252.18083 37.26875 251.6652Q36.8 251.14958 36.01875 251.14958Q35.315624 251.14958 34.909374 251.44646L34.628124 251.68083L33.753124 251.46208Z" fill-rule="nonzero"/><path fill="#757575" d="M29.815624 208.53667L28.7375 208.53667L28.7375 201.31792L26.55 202.11479L26.55 201.13042L29.659374 199.95854L29.815624 199.95854L29.815624 208.53667ZM38.6125 204.89604Q38.6125 206.80229 37.95625 207.73979Q37.315624 208.66167 35.925 208.66167Q34.565624 208.66167 33.909374 207.75542Q33.253124 206.84917 33.221874 205.03667L33.221874 203.59917Q33.221874 201.70854 33.8625 200.80229Q34.51875 199.88042 35.909374 199.88042Q37.284374 199.88042 37.940624 200.77104Q38.596874 201.64604 38.6125 203.48979L38.6125 204.89604ZM37.51875 203.41167Q37.51875 202.03667 37.128124 201.41167Q36.753124 200.77104 35.909374 200.77104Q35.08125 200.77104 34.690624 201.41167Q34.315624 202.03667 34.315624 203.33354L34.315624 205.06792Q34.315624 206.44292 34.70625 207.11479Q35.1125 207.77104 35.925 207.77104Q36.721874 207.77104 37.1125 207.14604Q37.503124 206.52104 37.51875 205.19292L37.51875 203.41167Z" fill-rule="nonzero"/><path fill="#757575" d="M29.815624 161.33L28.7375 161.33L28.7375 154.11125L26.55 154.90813L26.55 153.92375L29.659374 152.75188L29.815624 152.75188L29.815624 161.33ZM33.753124 157.04875L34.190624 152.79875L38.565624 152.79875L38.565624 153.79875L35.1125 153.79875L34.846874 156.12688Q35.4875 155.75188 36.284374 155.75188Q37.440624 155.75188 38.128124 156.53313Q38.815624 157.29875 38.815624 158.61125Q38.815624 159.92375 38.096874 160.68938Q37.39375 161.455 36.1125 161.455Q34.9875 161.455 34.26875 160.83Q33.55 160.18938 33.45625 159.08L34.471874 159.08Q34.58125 159.81438 35.003124 160.18938Q35.425 160.56438 36.1125 160.56438Q36.8625 160.56438 37.3 160.04875Q37.7375 159.53313 37.7375 158.62688Q37.7375 157.7675 37.26875 157.25188Q36.8 156.73625 36.01875 156.73625Q35.315624 156.73625 34.909374 157.03313L34.628124 157.2675L33.753124 157.04875Z" fill-rule="nonzero"/><path fill="#757575" d="M31.846874 114.12334L26.253124 114.12334L26.253124 113.34209L29.20625 110.06084Q29.8625 109.31084 30.1125 108.85771Q30.3625 108.38896 30.3625 107.88896Q30.3625 107.21709 29.95625 106.79521Q29.565624 106.35771 28.878124 106.35771Q28.08125 106.35771 27.628124 106.82646Q27.175 107.27959 27.175 108.10771L26.096874 108.10771Q26.096874 106.92021 26.846874 106.20146Q27.6125 105.46709 28.878124 105.46709Q30.08125 105.46709 30.76875 106.09209Q31.45625 106.71709 31.45625 107.76396Q31.45625 109.01396 29.846874 110.76396L27.565624 113.23271L31.846874 113.23271L31.846874 114.12334ZM38.6125 110.48271Q38.6125 112.38896 37.95625 113.32646Q37.315624 114.24834 35.925 114.24834Q34.565624 114.24834 33.909374 113.34209Q33.253124 112.43584 33.221874 110.62334L33.221874 109.18584Q33.221874 107.29521 33.8625 106.38896Q34.51875 105.46709 35.909374 105.46709Q37.284374 105.46709 37.940624 106.35771Q38.596874 107.23271 38.6125 109.07646L38.6125 110.48271ZM37.51875 108.99834Q37.51875 107.62334 37.128124 106.99834Q36.753124 106.35771 35.909374 106.35771Q35.08125 106.35771 34.690624 106.99834Q34.315624 107.62334 34.315624 108.92021L34.315624 110.65459Q34.315624 112.02959 34.70625 112.70146Q35.1125 113.35771 35.925 113.35771Q36.721874 113.35771 37.1125 112.73271Q37.503124 112.10771 37.51875 110.77959L37.51875 108.99834Z" fill-rule="nonzero"/><path fill="#757575" d="M31.846874 66.916664L26.253124 66.916664L26.253124 66.135414L29.20625 62.854164Q29.8625 62.104164 30.1125 61.65104Q30.3625 61.18229 30.3625 60.68229Q30.3625 60.010414 29.95625 59.58854Q29.565624 59.15104 28.878124 59.15104Q28.08125 59.15104 27.628124 59.61979Q27.175 60.072914 27.175 60.90104L26.096874 60.90104Q26.096874 59.71354 26.846874 58.99479Q27.6125 58.260414 28.878124 58.260414Q30.08125 58.260414 30.76875 58.885414Q31.45625 59.510414 31.45625 60.55729Q31.45625 61.80729 29.846874 63.55729L27.565624 66.02604L31.846874 66.02604L31.846874 66.916664ZM33.753124 62.635414L34.190624 58.385414L38.565624 58.385414L38.565624 59.385414L35.1125 59.385414L34.846874 61.71354Q35.4875 61.33854 36.284374 61.33854Q37.440624 61.33854 38.128124 62.11979Q38.815624 62.885414 38.815624 64.197914Q38.815624 65.510414 38.096874 66.27604Q37.39375 67.041664 36.1125 67.041664Q34.9875 67.041664 34.26875 66.416664Q33.55 65.77604 33.45625 64.666664L34.471874 64.666664Q34.58125 65.40104 35.003124 65.77604Q35.425 66.15104 36.1125 66.15104Q36.8625 66.15104 37.3 65.635414Q37.7375 65.11979 37.7375 64.21354Q37.7375 63.354164 37.26875 62.83854Q36.8 62.322914 36.01875 62.322914Q35.315624 62.322914 34.909374 62.61979L34.628124 62.854164L33.753124 62.635414Z" fill-rule="nonzero"/><path fill="#757575" d="M126.144394 307.91876L128.94127 314.8719L131.72252 307.91876L133.19127 307.91876L133.19127 316.45L132.06627 316.45L132.06627 313.1219L132.17564 309.54376L129.36314 316.45L128.50377 316.45L125.706894 309.5594L125.81627 313.1219L125.81627 316.45L124.69127 316.45L124.69127 307.91876L126.144394 307.91876Z" fill-rule="nonzero"/><path fill="#757575" d="M251.9023 312.65314Q250.4648 312.23126 249.79292 311.6219Q249.13667 311.0125 249.13667 310.1219Q249.13667 309.1219 249.93355 308.46564Q250.74605 307.79376 252.04292 307.79376Q252.91792 307.79376 253.60542 308.1375Q254.29292 308.48126 254.66792 309.075Q255.05855 309.66876 255.05855 310.3875L253.91792 310.3875Q253.91792 309.60626 253.41792 309.16876Q252.93355 308.73126 252.04292 308.73126Q251.2148 308.73126 250.74605 309.10626Q250.2773 309.46564 250.2773 310.10626Q250.2773 310.6375 250.7148 310.9969Q251.16792 311.35626 252.23042 311.65314Q253.29292 311.95 253.88667 312.3094Q254.49605 312.66876 254.7773 313.15314Q255.07417 313.6375 255.07417 314.27814Q255.07417 315.325 254.26167 315.95Q253.44917 316.575 252.10542 316.575Q251.2148 316.575 250.44917 316.23126Q249.69917 315.8875 249.2773 315.3094Q248.87105 314.71564 248.87105 313.98126L249.99605 313.98126Q249.99605 314.7469 250.57417 315.2Q251.1523 315.65314 252.10542 315.65314Q252.99605 315.65314 253.4648 315.29376Q253.93355 314.91876 253.93355 314.29376Q253.93355 313.66876 253.49605 313.325Q253.05855 312.98126 251.9023 312.65314Z" fill-rule="nonzero"/><path fill="#757575" d="M368.9258 313.7625L369.0977 314.8875L369.33206 313.8719L371.01956 307.91876L371.9727 307.91876L373.6133 313.8719L373.8477 314.90314L374.0352 313.7469L375.3633 307.91876L376.4883 307.91876L374.4258 316.45L373.39456 316.45L371.62894 310.23126L371.50394 309.575L371.3633 310.23126L369.5508 316.45L368.51956 316.45L366.45706 307.91876L367.58206 307.91876L368.9258 313.7625ZM377.6602 313.23126Q377.6602 311.7625 378.3477 310.8875Q379.0352 309.9969 380.1602 309.9969Q381.26956 309.9969 381.9258 310.7469L381.9258 307.45L383.00394 307.45L383.00394 316.45L382.00394 316.45L381.95706 315.7625Q381.3008 316.575 380.14456 316.575Q379.0508 316.575 378.3477 315.66876Q377.6602 314.7625 377.6602 313.3094L377.6602 313.23126ZM378.7383 313.35626Q378.7383 314.4344 379.1758 315.04376Q379.62894 315.65314 380.4102 315.65314Q381.44144 315.65314 381.9258 314.71564L381.9258 311.8094Q381.44144 310.91876 380.4258 310.91876Q379.62894 310.91876 379.1758 311.52814Q378.7383 312.1375 378.7383 313.35626Z" fill-rule="nonzero"/><path fill="#757575" d="M495.27747 316.45L495.27747 307.91876L497.69934 307.91876Q498.80872 307.91876 499.65247 308.41876Q500.51184 308.90314 500.9806 309.8094Q501.44934 310.71564 501.44934 311.90314L501.44934 312.4344Q501.44934 313.65314 500.9806 314.5594Q500.52747 315.46564 499.65247 315.95Q498.7931 316.4344 497.65247 316.45L495.27747 316.45ZM496.40247 308.84064L496.40247 315.52814L497.58997 315.52814Q498.88684 315.52814 499.6056 314.73126Q500.33997 313.91876 500.33997 312.41876L500.33997 311.91876Q500.33997 310.46564 499.65247 309.66876Q498.9806 308.85626 497.71497 308.84064L496.40247 308.84064Z" fill-rule="nonzero"/><path fill="#757575" d="M30.659374 33.034374Q30.39375 35.3 28.9875 36.534374Q27.596874 37.753124 25.26875 37.753124Q22.753124 37.753124 21.221874 35.940624Q19.70625 34.128124 19.70625 31.096874L19.70625 29.7375Q19.70625 27.753124 20.409374 26.253124Q21.128124 24.753124 22.425 23.940624Q23.721874 23.128124 25.440624 23.128124Q27.70625 23.128124 29.065624 24.39375Q30.440624 25.659374 30.659374 27.89375L28.76875 27.89375Q28.534374 26.20625 27.70625 25.440624Q26.89375 24.675 25.440624 24.675Q23.64375 24.675 22.6125 26.003124Q21.596874 27.33125 21.596874 29.784374L21.596874 31.159374Q21.596874 33.471874 22.565624 34.846874Q23.534374 36.20625 25.26875 36.20625Q26.83125 36.20625 27.659374 35.503124Q28.503124 34.8 28.76875 33.034374L30.659374 33.034374ZM32.440624 32.175Q32.440624 30.6125 33.05 29.378124Q33.659374 28.128124 34.7375 27.45625Q35.83125 26.784374 37.2375 26.784374Q39.39375 26.784374 40.721874 28.284374Q42.065624 29.76875 42.065624 32.253124L42.065624 32.378124Q42.065624 33.925 41.471874 35.159374Q40.878124 36.378124 39.76875 37.065624Q38.675 37.753124 37.253124 37.753124Q35.1125 37.753124 33.76875 36.253124Q32.440624 34.753124 32.440624 32.3L32.440624 32.175ZM34.253124 32.378124Q34.253124 34.14375 35.065624 35.20625Q35.89375 36.26875 37.253124 36.26875Q38.628124 36.26875 39.440624 35.190624Q40.253124 34.1125 40.253124 32.175Q40.253124 30.425 39.425 29.346874Q38.596874 28.26875 37.2375 28.26875Q35.89375 28.26875 35.065624 29.33125Q34.253124 30.39375 34.253124 32.378124ZM50.440624 36.503124Q49.39375 37.753124 47.346874 37.753124Q45.659374 37.753124 44.76875 36.76875Q43.89375 35.784374 43.878124 33.8625L43.878124 26.9875L45.690624 26.9875L45.690624 33.815624Q45.690624 36.20625 47.64375 36.20625Q49.70625 36.20625 50.39375 34.675L50.39375 26.9875L52.20625 26.9875L52.20625 37.55L50.4875 37.55L50.440624 36.503124ZM56.628124 26.9875L56.690624 28.315624Q57.89375 26.784374 59.846874 26.784374Q63.20625 26.784374 63.221874 30.565624L63.221874 37.55L61.425 37.55L61.425 30.55Q61.409374 29.409374 60.89375 28.8625Q60.39375 28.315624 59.3 28.315624Q58.425 28.315624 57.753124 28.784374Q57.096874 29.253124 56.721874 30.01875L56.721874 37.55L54.925 37.55L54.925 26.9875L56.628124 26.9875ZM68.3625 24.425L68.3625 26.9875L70.34688 26.9875L70.34688 28.378124L68.3625 28.378124L68.3625 34.925Q68.3625 35.565624 68.62813 35.89375Q68.89375 36.20625 69.53438 36.20625Q69.84688 36.20625 70.39375 36.08125L70.39375 37.55Q69.675 37.753124 69.00313 37.753124Q67.8 37.753124 67.175 37.01875Q66.56563 36.284374 66.56563 34.925L66.56563 28.378124L64.64375 28.378124L64.64375 26.9875L66.56563 26.9875L66.56563 24.425L68.3625 24.425ZM77.44063 32.175Q77.44063 30.6125 78.05 29.378124Q78.65938 28.128124 79.7375 27.45625Q80.83125 26.784374 82.2375 26.784374Q84.39375 26.784374 85.72188 28.284374Q87.06563 29.76875 87.06563 32.253124L87.06563 32.378124Q87.06563 33.925 86.47188 35.159374Q85.87813 36.378124 84.76875 37.065624Q83.675 37.753124 82.25313 37.753124Q80.1125 37.753124 78.76875 36.253124Q77.44063 34.753124 77.44063 32.3L77.44063 32.175ZM79.25313 32.378124Q79.25313 34.14375 80.06563 35.20625Q80.89375 36.26875 82.25313 36.26875Q83.62813 36.26875 84.44063 35.190624Q85.25313 34.1125 85.25313 32.175Q85.25313 30.425 84.425 29.346874Q83.59688 28.26875 82.2375 28.26875Q80.89375 28.26875 80.06563 29.33125Q79.25313 30.39375 79.25313 32.378124ZM89.8 37.55L89.8 28.378124L88.14375 28.378124L88.14375 26.9875L89.8 26.9875L89.8 25.89375Q89.8 24.20625 90.70625 23.284374Q91.62813 22.346874 93.28438 22.346874Q93.90938 22.346874 94.51875 22.503124L94.425 23.971874Q93.97188 23.89375 93.45625 23.89375Q92.56563 23.89375 92.08125 24.409374Q91.6125 24.909374 91.6125 25.8625L91.6125 26.9875L93.8625 26.9875L93.8625 28.378124L91.6125 28.378124L91.6125 37.55L89.8 37.55ZM102.6125 26.9875L102.65938 28.159374Q103.83125 26.784374 105.8 26.784374Q108.01875 26.784374 108.81563 28.4875Q109.34688 27.721874 110.19063 27.253124Q111.03438 26.784374 112.19063 26.784374Q115.65938 26.784374 115.72188 30.471874L115.72188 37.55L113.90938 37.55L113.90938 30.58125Q113.90938 29.440624 113.39375 28.878124Q112.87813 28.315624 111.65938 28.315624Q110.65938 28.315624 109.9875 28.925Q109.33125 29.51875 109.22188 30.534374L109.22188 37.55L107.40938 37.55L107.40938 30.628124Q107.40938 28.315624 105.14375 28.315624Q103.3625 28.315624 102.72188 29.83125L102.72188 37.55L100.90938 37.55L100.90938 26.9875L102.6125 26.9875ZM125.44063 37.55Q125.28438 37.2375 125.19063 36.440624Q123.925 37.753124 122.175 37.753124Q120.6125 37.753124 119.6125 36.8625Q118.6125 35.971874 118.6125 34.6125Q118.6125 32.971874 119.8625 32.065624Q121.12813 31.14375 123.39375 31.14375L125.15938 31.14375L125.15938 30.315624Q125.15938 29.3625 124.58125 28.8Q124.01875 28.2375 122.925 28.2375Q121.95625 28.2375 121.3 28.7375Q120.64375 29.221874 120.64375 29.909374L118.83125 29.909374Q118.83125 29.128124 119.39375 28.39375Q119.95625 27.64375 120.90938 27.221874Q121.87813 26.784374 123.03438 26.784374Q124.8625 26.784374 125.89375 27.70625Q126.925 28.6125 126.97188 30.221874L126.97188 35.08125Q126.97188 36.534374 127.33125 37.39375L127.33125 37.55L125.44063 37.55ZM122.44063 36.175Q123.3 36.175 124.05 35.7375Q124.81563 35.3 125.15938 34.596874L125.15938 32.425L123.7375 32.425Q120.425 32.425 120.425 34.3625Q120.425 35.221874 120.9875 35.70625Q121.55 36.175 122.44063 36.175ZM135.01875 28.596874Q134.6125 28.534374 134.14375 28.534374Q132.3625 28.534374 131.72188 30.05L131.72188 37.55L129.925 37.55L129.925 26.9875L131.675 26.9875L131.70625 28.20625Q132.59688 26.784374 134.22188 26.784374Q134.75313 26.784374 135.01875 26.925L135.01875 28.596874ZM138.87813 37.55L137.08125 37.55L137.08125 26.9875L138.87813 26.9875L138.87813 37.55ZM136.925 24.175Q136.925 23.7375 137.19063 23.440624Q137.47188 23.128124 137.9875 23.128124Q138.51875 23.128124 138.78438 23.440624Q139.06563 23.7375 139.06563 24.175Q139.06563 24.6125 138.78438 24.909374Q138.51875 25.20625 137.9875 25.20625Q137.47188 25.20625 137.19063 24.909374Q136.925 24.6125 136.925 24.175ZM144.3625 24.425L144.3625 26.9875L146.34688 26.9875L146.34688 28.378124L144.3625 28.378124L144.3625 34.925Q144.3625 35.565624 144.62813 35.89375Q144.89375 36.20625 145.53438 36.20625Q145.84688 36.20625 146.39375 36.08125L146.39375 37.55Q145.675 37.753124 145.00313 37.753124Q143.8 37.753124 143.175 37.01875Q142.56563 36.284374 142.56563 34.925L142.56563 28.378124L140.64375 28.378124L140.64375 26.9875L142.56563 26.9875L142.56563 24.425L144.3625 24.425ZM155.44063 37.55Q155.28438 37.2375 155.19063 36.440624Q153.925 37.753124 152.175 37.753124Q150.6125 37.753124 149.6125 36.8625Q148.6125 35.971874 148.6125 34.6125Q148.6125 32.971874 149.8625 32.065624Q151.12813 31.14375 153.39375 31.14375L155.15938 31.14375L155.15938 30.315624Q155.15938 29.3625 154.58125 28.8Q154.01875 28.2375 152.925 28.2375Q151.95625 28.2375 151.3 28.7375Q150.64375 29.221874 150.64375 29.909374L148.83125 29.909374Q148.83125 29.128124 149.39375 28.39375Q149.95625 27.64375 150.90938 27.221874Q151.87813 26.784374 153.03438 26.784374Q154.8625 26.784374 155.89375 27.70625Q156.925 28.6125 156.97188 30.221874L156.97188 35.08125Q156.97188 36.534374 157.33125 37.39375L157.33125 37.55L155.44063 37.55ZM152.44063 36.175Q153.3 36.175 154.05 35.7375Q154.81563 35.3 155.15938 34.596874L155.15938 32.425L153.7375 32.425Q150.425 32.425 150.425 34.3625Q150.425 35.221874 150.9875 35.70625Q151.55 36.175 152.44063 36.175ZM161.87813 37.55L160.08125 37.55L160.08125 22.55L161.87813 22.55L161.87813 37.55ZM172.53438 39.01875L163.59688 39.01875L163.59688 37.55L172.53438 37.55L172.53438 39.01875ZM179.675 37.55L177.84688 37.55L177.84688 25.503124L174.20625 26.846874L174.20625 25.20625L179.39375 23.26875L179.675 23.26875L179.675 37.55ZM194.05 37.55L184.7375 37.55L184.7375 36.253124L189.65938 30.784374Q190.75313 29.534374 191.15938 28.76875Q191.58125 27.9875 191.58125 27.159374Q191.58125 26.05 190.90938 25.33125Q190.2375 24.6125 189.1125 24.6125Q187.75313 24.6125 187.00313 25.39375Q186.26875 26.159374 186.26875 27.51875L184.45625 27.51875Q184.45625 25.55 185.72188 24.346874Q186.9875 23.128124 189.1125 23.128124Q191.09688 23.128124 192.2375 24.175Q193.39375 25.221874 193.39375 26.940624Q193.39375 29.05 190.72188 31.940624L186.90938 36.08125L194.05 36.08125L194.05 37.55Z" fill-rule="nonzero"/></svg>