<svg version="1.1" viewBox="0.0 0.0 600.0 371.0" fill="none" stroke="none" stroke-linecap="square" stroke-miterlimit="10" width="600" height="371" xmlns:xlink="http://www.w3.org/1999/xlink" xmlns="http://www.w3.org/2000/svg"><path fill="#ffffff" d="M0 0L600.0 0L600.0 371.0L0 371.0L0 0Z" fill-rule="nonzero"/><path stroke="#333333" stroke-width="1.0" stroke-linecap="butt" d="M45.5 298.5L581.5 298.5" fill-rule="nonzero"/><path stroke="#cccccc" stroke-width="1.0" stroke-linecap="butt" d="M45.5 219.5L581.5 219.5" fill-rule="nonzero"/><path stroke="#cccccc" stroke-width="1.0" stroke-linecap="butt" d="M45.5 141.5L581.5 141.5" fill-rule="nonzero"/><path stroke="#cccccc" stroke-width="1.0" stroke-linecap="butt" d="M45.5 62.5L581.5 62.5" fill-rule="nonzero"/><clipPath id="id_0"><path d="M45.55 62.416668L581.45 62.416668L581.45 298.45L45.55 298.45L45.55 62.416668Z" clip-rule="nonzero"/></clipPath><path stroke="#000000" stroke-width="2.0" stroke-linecap="butt" stroke-opacity="0.0" clip-path="url(#id_0)" d="M273.0 298.0L125.0 298.0L125.0 100.0C125.0 98.89543 125.89543 98.0 127.0 98.0L271.0 98.0C272.10458 98.0 273.0 98.89543 273.0 100.0Z" fill-rule="nonzero"/><path fill="#4285f4" clip-path="url(#id_0)" d="M273.0 298.0L125.0 298.0L125.0 100.0C125.0 98.89543 125.89543 98.0 127.0 98.0L271.0 98.0C272.10458 98.0 273.0 98.89543 273.0 100.0Z" fill-rule="nonzero"/><path stroke="#000000" stroke-width="2.0" stroke-linecap="butt" stroke-opacity="0.0" clip-path="url(#id_0)" d="M502.0 298.0L354.0 298.0L354.0 289.0C354.0 287.89542 354.89542 287.0 356.0 287.0L500.0 287.0C501.10458 287.0 502.0 287.89542 502.0 289.0Z" fill-rule="nonzero"/><path fill="#4285f4" clip-path="url(#id_0)" d="M502.0 298.0L354.0 298.0L354.0 289.0C354.0 287.89542 354.89542 287.0 356.0 287.0L500.0 287.0C501.10458 287.0 502.0 287.89542 502.0 289.0Z" fill-rule="nonzero"/><path fill="#424242" d="M274.76562 346.7469Q274.60938 348.09064 273.76562 348.84064Q272.92188 349.575 271.53125 349.575Q270.01562 349.575 269.10938 348.4969Q268.20312 347.40314 268.20312 345.575L268.20312 344.7625Q268.20312 343.575 268.625 342.66876Q269.04688 341.7625 269.82812 341.27814Q270.60938 340.79376 271.625 340.79376Q272.98438 340.79376 273.79688 341.5594Q274.625 342.325 274.76562 343.65314L273.64062 343.65314Q273.48438 342.6375 273.0 342.1844Q272.51562 341.73126 271.625 341.73126Q270.54688 341.73126 269.9375 342.52814Q269.32812 343.325 269.32812 344.79376L269.32812 345.6219Q269.32812 347.0125 269.90625 347.84064Q270.48438 348.65314 271.53125 348.65314Q272.46875 348.65314 272.96875 348.23126Q273.46875 347.79376 273.64062 346.7469L274.76562 346.7469ZM276.03125 346.21564Q276.03125 345.29376 276.39062 344.54376Q276.76562 343.79376 277.42188 343.40314Q278.07812 342.9969 278.90625 342.9969Q280.20312 342.9969 281.0 343.8875Q281.8125 344.77814 281.8125 346.27814L281.8125 346.35626Q281.8125 347.27814 281.45312 348.0125Q281.09375 348.7469 280.4375 349.16876Q279.78125 349.575 278.92188 349.575Q277.64062 349.575 276.82812 348.6844Q276.03125 347.77814 276.03125 346.29376L276.03125 346.21564ZM277.125 346.35626Q277.125 347.40314 277.60938 348.04376Q278.10938 348.6844 278.92188 348.6844Q279.75 348.6844 280.23438 348.04376Q280.71875 347.3875 280.71875 346.21564Q280.71875 345.1844 280.21875 344.54376Q279.73438 343.8875 278.90625 343.8875Q278.10938 343.8875 277.60938 344.52814Q277.125 345.15314 277.125 346.35626ZM287.23438 348.825Q286.60938 349.575 285.375 349.575Q284.35938 349.575 283.82812 348.98126Q283.29688 348.3875 283.29688 347.23126L283.29688 343.10626L284.375 343.10626L284.375 347.2Q284.375 348.65314 285.54688 348.65314Q286.79688 348.65314 287.20312 347.71564L287.20312 343.10626L288.29688 343.10626L288.29688 349.45L287.26562 349.45L287.23438 348.825ZM291.34375 343.10626L291.375 343.90314Q292.10938 342.9969 293.28125 342.9969Q295.29688 342.9969 295.3125 345.2625L295.3125 349.45L294.21875 349.45L294.21875 345.2469Q294.21875 344.575 293.90625 344.2469Q293.60938 343.91876 292.95312 343.91876Q292.42188 343.91876 292.01562 344.2Q291.625 344.48126 291.40625 344.9344L291.40625 349.45L290.32812 349.45L290.32812 343.10626L291.34375 343.10626ZM298.79688 341.575L298.79688 343.10626L299.96875 343.10626L299.96875 343.95L298.79688 343.95L298.79688 347.8719Q298.79688 348.2625 298.95312 348.45Q299.10938 348.6375 299.48438 348.6375Q299.67188 348.6375 300.0 348.575L300.0 349.45Q299.57812 349.575 299.17188 349.575Q298.45312 349.575 298.07812 349.1375Q297.70312 348.6844 297.70312 347.8719L297.70312 343.95L296.54688 343.95L296.54688 343.10626L297.70312 343.10626L297.70312 341.575L298.79688 341.575ZM304.03125 346.21564Q304.03125 345.29376 304.39062 344.54376Q304.76562 343.79376 305.42188 343.40314Q306.07812 342.9969 306.90625 342.9969Q308.20312 342.9969 309.0 343.8875Q309.8125 344.77814 309.8125 346.27814L309.8125 346.35626Q309.8125 347.27814 309.45312 348.0125Q309.09375 348.7469 308.4375 349.16876Q307.78125 349.575 306.92188 349.575Q305.64062 349.575 304.82812 348.6844Q304.03125 347.77814 304.03125 346.29376L304.03125 346.21564ZM305.125 346.35626Q305.125 347.40314 305.60938 348.04376Q306.10938 348.6844 306.92188 348.6844Q307.75 348.6844 308.23438 348.04376Q308.71875 347.3875 308.71875 346.21564Q308.71875 345.1844 308.21875 344.54376Q307.73438 343.8875 306.90625 343.8875Q306.10938 343.8875 305.60938 344.52814Q305.125 345.15314 305.125 346.35626ZM311.85938 349.45L311.85938 343.95L310.85938 343.95L310.85938 343.10626L311.85938 343.10626L311.85938 342.46564Q311.85938 341.4344 312.39062 340.8875Q312.9375 340.325 313.9375 340.325Q314.3125 340.325 314.6875 340.41876L314.625 341.3094Q314.34375 341.2469 314.04688 341.2469Q313.51562 341.2469 313.21875 341.5594Q312.9375 341.8719 312.9375 342.4344L312.9375 343.10626L314.29688 343.10626L314.29688 343.95L312.9375 343.95L312.9375 349.45L311.85938 349.45ZM321.39062 344.075Q321.14062 344.04376 320.85938 344.04376Q319.78125 344.04376 319.40625 344.95L319.40625 349.45L318.32812 349.45L318.32812 343.10626L319.375 343.10626L319.39062 343.84064Q319.92188 342.9969 320.90625 342.9969Q321.21875 342.9969 321.39062 343.075L321.39062 344.075ZM326.23438 349.45Q326.14062 349.2625 326.07812 348.77814Q325.32812 349.575 324.28125 349.575Q323.34375 349.575 322.73438 349.04376Q322.14062 348.5125 322.14062 347.6844Q322.14062 346.7 322.89062 346.15314Q323.64062 345.60626 325.01562 345.60626L326.0625 345.60626L326.0625 345.10626Q326.0625 344.54376 325.71875 344.21564Q325.39062 343.8719 324.71875 343.8719Q324.14062 343.8719 323.75 344.16876Q323.35938 344.45 323.35938 344.8719L322.26562 344.8719Q322.26562 344.3875 322.59375 343.95Q322.9375 343.5125 323.51562 343.2625Q324.09375 342.9969 324.78125 342.9969Q325.89062 342.9969 326.5 343.54376Q327.125 344.09064 327.15625 345.04376L327.15625 347.96564Q327.15625 348.84064 327.375 349.35626L327.375 349.45L326.23438 349.45ZM324.4375 348.6219Q324.95312 348.6219 325.40625 348.35626Q325.85938 348.09064 326.0625 347.66876L326.0625 346.3719L325.21875 346.3719Q323.21875 346.3719 323.21875 347.54376Q323.21875 348.04376 323.5625 348.34064Q323.90625 348.6219 324.4375 348.6219ZM331.85938 348.6844Q332.4375 348.6844 332.875 348.34064Q333.3125 347.98126 333.35938 347.45L334.39062 347.45Q334.35938 347.9969 334.0 348.4969Q333.65625 348.98126 333.07812 349.27814Q332.51562 349.575 331.85938 349.575Q330.5625 349.575 329.79688 348.71564Q329.04688 347.84064 329.04688 346.34064L329.04688 346.15314Q329.04688 345.23126 329.375 344.5125Q329.71875 343.79376 330.34375 343.40314Q330.98438 342.9969 331.85938 342.9969Q332.92188 342.9969 333.625 343.6375Q334.34375 344.2625 334.39062 345.29376L333.35938 345.29376Q333.3125 344.66876 332.89062 344.27814Q332.46875 343.8875 331.85938 343.8875Q331.03125 343.8875 330.57812 344.48126Q330.125 345.075 330.125 346.2L330.125 346.40314Q330.125 347.4969 330.57812 348.09064Q331.03125 348.6844 331.85938 348.6844ZM337.95312 349.575Q336.65625 349.575 335.84375 348.73126Q335.04688 347.8719 335.04688 346.45L335.04688 346.2625Q335.04688 345.3094 335.40625 344.575Q335.76562 343.825 336.40625 343.41876Q337.0625 342.9969 337.8125 342.9969Q339.04688 342.9969 339.73438 343.8094Q340.42188 344.6219 340.42188 346.1375L340.42188 346.59064L336.125 346.59064Q336.15625 347.52814 336.67188 348.10626Q337.20312 348.6844 338.01562 348.6844Q338.57812 348.6844 338.96875 348.45Q339.375 348.21564 339.6875 347.825L340.34375 348.34064Q339.54688 349.575 337.95312 349.575ZM337.8125 343.8875Q337.15625 343.8875 336.70312 344.3719Q336.26562 344.84064 336.17188 345.7L339.34375 345.7L339.34375 345.6219Q339.29688 344.79376 338.89062 344.34064Q338.5 343.8875 337.8125 343.8875ZM345.89062 350.34064L340.53125 350.34064L340.53125 349.45L345.89062 349.45L345.89062 350.34064ZM349.76562 349.45L348.6875 349.45L348.6875 342.23126L346.5 343.02814L346.5 342.04376L349.60938 340.8719L349.76562 340.8719L349.76562 349.45ZM358.5625 345.8094Q358.5625 347.71564 357.90625 348.65314Q357.26562 349.575 355.875 349.575Q354.51562 349.575 353.85938 348.66876Q353.20312 347.7625 353.17188 345.95L353.17188 344.5125Q353.17188 342.6219 353.8125 341.71564Q354.46875 340.79376 355.85938 340.79376Q357.23438 340.79376 357.89062 341.6844Q358.54688 342.5594 358.5625 344.40314L358.5625 345.8094ZM357.46875 344.325Q357.46875 342.95 357.07812 342.325Q356.70312 341.6844 355.85938 341.6844Q355.03125 341.6844 354.64062 342.325Q354.26562 342.95 354.26562 344.2469L354.26562 345.98126Q354.26562 347.35626 354.65625 348.02814Q355.0625 348.6844 355.875 348.6844Q356.67188 348.6844 357.0625 348.0594Q357.45312 347.4344 357.46875 346.10626L357.46875 344.325Z" fill-rule="nonzero"/><path fill="#757575" d="M38.6125 299.3094Q38.6125 301.21564 37.95625 302.15314Q37.315624 303.075 35.925 303.075Q34.565624 303.075 33.909374 302.16876Q33.253124 301.2625 33.221874 299.45L33.221874 298.0125Q33.221874 296.1219 33.8625 295.21564Q34.51875 294.29376 35.909374 294.29376Q37.284374 294.29376 37.940624 295.1844Q38.596874 296.0594 38.6125 297.90314L38.6125 299.3094ZM37.51875 297.825Q37.51875 296.45 37.128124 295.825Q36.753124 295.1844 35.909374 295.1844Q35.08125 295.1844 34.690624 295.825Q34.315624 296.45 34.315624 297.7469L34.315624 299.48126Q34.315624 300.85626 34.70625 301.52814Q35.1125 302.1844 35.925 302.1844Q36.721874 302.1844 37.1125 301.5594Q37.503124 300.9344 37.51875 299.60626L37.51875 297.825Z" fill-rule="nonzero"/><path fill="#757575" d="M31.846874 224.27222L26.253124 224.27222L26.253124 223.49097L29.20625 220.20972Q29.8625 219.45972 30.1125 219.00659Q30.3625 218.53784 30.3625 218.03784Q30.3625 217.36597 29.95625 216.94409Q29.565624 216.50659 28.878124 216.50659Q28.08125 216.50659 27.628124 216.97534Q27.175 217.42847 27.175 218.25659L26.096874 218.25659Q26.096874 217.06909 26.846874 216.35034Q27.6125 215.61597 28.878124 215.61597Q30.08125 215.61597 30.76875 216.24097Q31.45625 216.86597 31.45625 217.91284Q31.45625 219.16284 29.846874 220.91284L27.565624 223.38159L31.846874 223.38159L31.846874 224.27222ZM38.6125 220.63159Q38.6125 222.53784 37.95625 223.47534Q37.315624 224.39722 35.925 224.39722Q34.565624 224.39722 33.909374 223.49097Q33.253124 222.58472 33.221874 220.77222L33.221874 219.33472Q33.221874 217.44409 33.8625 216.53784Q34.51875 215.61597 35.909374 215.61597Q37.284374 215.61597 37.940624 216.50659Q38.596874 217.38159 38.6125 219.22534L38.6125 220.63159ZM37.51875 219.14722Q37.51875 217.77222 37.128124 217.14722Q36.753124 216.50659 35.909374 216.50659Q35.08125 216.50659 34.690624 217.14722Q34.315624 217.77222 34.315624 219.06909L34.315624 220.80347Q34.315624 222.17847 34.70625 222.85034Q35.1125 223.50659 35.925 223.50659Q36.721874 223.50659 37.1125 222.88159Q37.503124 222.25659 37.51875 220.92847L37.51875 219.14722Z" fill-rule="nonzero"/><path fill="#757575" d="M30.83125 142.73508L32.01875 142.73508L32.01875 143.61008L30.83125 143.61008L30.83125 145.59445L29.753124 145.59445L29.753124 143.61008L25.8625 143.61008L25.8625 142.96945L29.675 137.0632L30.83125 137.0632L30.83125 142.73508ZM27.096874 142.73508L29.753124 142.73508L29.753124 138.54758L29.6125 138.78195L27.096874 142.73508ZM38.6125 141.95383Q38.6125 143.86008 37.95625 144.79758Q37.315624 145.71945 35.925 145.71945Q34.565624 145.71945 33.909374 144.8132Q33.253124 143.90695 33.221874 142.09445L33.221874 140.65695Q33.221874 138.76633 33.8625 137.86008Q34.51875 136.9382 35.909374 136.9382Q37.284374 136.9382 37.940624 137.82883Q38.596874 138.70383 38.6125 140.54758L38.6125 141.95383ZM37.51875 140.46945Q37.51875 139.09445 37.128124 138.46945Q36.753124 137.82883 35.909374 137.82883Q35.08125 137.82883 34.690624 138.46945Q34.315624 139.09445 34.315624 140.39133L34.315624 142.1257Q34.315624 143.5007 34.70625 144.17258Q35.1125 144.82883 35.925 144.82883Q36.721874 144.82883 37.1125 144.20383Q37.503124 143.57883 37.51875 142.2507L37.51875 140.46945Z" fill-rule="nonzero"/><path fill="#757575" d="M30.51875 58.385414L30.51875 59.291664L30.315624 59.291664Q29.05 59.322914 28.3 60.05729Q27.55 60.77604 27.425 62.08854Q28.1125 61.322914 29.26875 61.322914Q30.378124 61.322914 31.05 62.104164Q31.721874 62.885414 31.721874 64.135414Q31.721874 65.447914 31.003124 66.24479Q30.284374 67.041664 29.065624 67.041664Q27.846874 67.041664 27.08125 66.104164Q26.33125 65.15104 26.33125 63.666664L26.33125 63.260414Q26.33125 60.90104 27.33125 59.65104Q28.33125 58.40104 30.315624 58.385414L30.51875 58.385414ZM29.096874 62.229164Q28.534374 62.229164 28.065624 62.55729Q27.596874 62.885414 27.409374 63.40104L27.409374 63.791664Q27.409374 64.854164 27.878124 65.49479Q28.3625 66.135414 29.065624 66.135414Q29.8 66.135414 30.221874 65.604164Q30.64375 65.05729 30.64375 64.18229Q30.64375 63.30729 30.221874 62.77604Q29.8 62.229164 29.096874 62.229164ZM38.6125 63.27604Q38.6125 65.18229 37.95625 66.11979Q37.315624 67.041664 35.925 67.041664Q34.565624 67.041664 33.909374 66.135414Q33.253124 65.229164 33.221874 63.416664L33.221874 61.979164Q33.221874 60.08854 33.8625 59.18229Q34.51875 58.260414 35.909374 58.260414Q37.284374 58.260414 37.940624 59.15104Q38.596874 60.02604 38.6125 61.86979L38.6125 63.27604ZM37.51875 61.791664Q37.51875 60.416664 37.128124 59.791664Q36.753124 59.15104 35.909374 59.15104Q35.08125 59.15104 34.690624 59.791664Q34.315624 60.416664 34.315624 61.71354L34.315624 63.447914Q34.315624 64.822914 34.70625 65.49479Q35.1125 66.15104 35.925 66.15104Q36.721874 66.15104 37.1125 65.52604Q37.503124 64.90104 37.51875 63.572914L37.51875 61.791664Z" fill-rule="nonzero"/><path fill="#757575" d="M196.80685 313.7625L196.97873 314.8875L197.2131 313.8719L198.9006 307.91876L199.85373 307.91876L201.49435 313.8719L201.72873 314.90314L201.91623 313.7469L203.24435 307.91876L204.36935 307.91876L202.30685 316.45L201.2756 316.45L199.50998 310.23126L199.38498 309.575L199.24435 310.23126L197.43185 316.45L196.4006 316.45L194.3381 307.91876L195.4631 307.91876L196.80685 313.7625Z" fill-rule="nonzero"/><path fill="#757575" d="M425.00565 316.45L425.00565 307.91876L427.80252 307.91876Q429.19315 307.91876 429.88065 308.4969Q430.58377 309.0594 430.58377 310.1844Q430.58377 310.79376 430.24002 311.2625Q429.9119 311.71564 429.31815 311.96564Q430.02127 312.15314 430.4119 312.7Q430.81815 313.23126 430.81815 313.98126Q430.81815 315.1375 430.06815 315.79376Q429.33377 316.45 427.9744 316.45L425.00565 316.45ZM426.13065 312.46564L426.13065 315.52814L427.99002 315.52814Q428.7869 315.52814 429.24002 315.1219Q429.69315 314.71564 429.69315 313.9969Q429.69315 312.46564 428.00565 312.46564L426.13065 312.46564ZM426.13065 311.5594L427.83377 311.5594Q428.56815 311.5594 429.00565 311.2Q429.45877 310.825 429.45877 310.1844Q429.45877 309.48126 429.05252 309.16876Q428.64627 308.84064 427.80252 308.84064L426.13065 308.84064L426.13065 311.5594Z" fill-rule="nonzero"/><path fill="#757575" d="M30.659374 33.034374Q30.39375 35.3 28.9875 36.534374Q27.596874 37.753124 25.26875 37.753124Q22.753124 37.753124 21.221874 35.940624Q19.70625 34.128124 19.70625 31.096874L19.70625 29.7375Q19.70625 27.753124 20.409374 26.253124Q21.128124 24.753124 22.425 23.940624Q23.721874 23.128124 25.440624 23.128124Q27.70625 23.128124 29.065624 24.39375Q30.440624 25.659374 30.659374 27.89375L28.76875 27.89375Q28.534374 26.20625 27.70625 25.440624Q26.89375 24.675 25.440624 24.675Q23.64375 24.675 22.6125 26.003124Q21.596874 27.33125 21.596874 29.784374L21.596874 31.159374Q21.596874 33.471874 22.565624 34.846874Q23.534374 36.20625 25.26875 36.20625Q26.83125 36.20625 27.659374 35.503124Q28.503124 34.8 28.76875 33.034374L30.659374 33.034374ZM32.440624 32.175Q32.440624 30.6125 33.05 29.378124Q33.659374 28.128124 34.7375 27.45625Q35.83125 26.784374 37.2375 26.784374Q39.39375 26.784374 40.721874 28.284374Q42.065624 29.76875 42.065624 32.253124L42.065624 32.378124Q42.065624 33.925 41.471874 35.159374Q40.878124 36.378124 39.76875 37.065624Q38.675 37.753124 37.253124 37.753124Q35.1125 37.753124 33.76875 36.253124Q32.440624 34.753124 32.440624 32.3L32.440624 32.175ZM34.253124 32.378124Q34.253124 34.14375 35.065624 35.20625Q35.89375 36.26875 37.253124 36.26875Q38.628124 36.26875 39.440624 35.190624Q40.253124 34.1125 40.253124 32.175Q40.253124 30.425 39.425 29.346874Q38.596874 28.26875 37.2375 28.26875Q35.89375 28.26875 35.065624 29.33125Q34.253124 30.39375 34.253124 32.378124ZM50.440624 36.503124Q49.39375 37.753124 47.346874 37.753124Q45.659374 37.753124 44.76875 36.76875Q43.89375 35.784374 43.878124 33.8625L43.878124 26.9875L45.690624 26.9875L45.690624 33.815624Q45.690624 36.20625 47.64375 36.20625Q49.70625 36.20625 50.39375 34.675L50.39375 26.9875L52.20625 26.9875L52.20625 37.55L50.4875 37.55L50.440624 36.503124ZM56.628124 26.9875L56.690624 28.315624Q57.89375 26.784374 59.846874 26.784374Q63.20625 26.784374 63.221874 30.565624L63.221874 37.55L61.425 37.55L61.425 30.55Q61.409374 29.409374 60.89375 28.8625Q60.39375 28.315624 59.3 28.315624Q58.425 28.315624 57.753124 28.784374Q57.096874 29.253124 56.721874 30.01875L56.721874 37.55L54.925 37.55L54.925 26.9875L56.628124 26.9875ZM68.3625 24.425L68.3625 26.9875L70.34688 26.9875L70.34688 28.378124L68.3625 28.378124L68.3625 34.925Q68.3625 35.565624 68.62813 35.89375Q68.89375 36.20625 69.53438 36.20625Q69.84688 36.20625 70.39375 36.08125L70.39375 37.55Q69.675 37.753124 69.00313 37.753124Q67.8 37.753124 67.175 37.01875Q66.56563 36.284374 66.56563 34.925L66.56563 28.378124L64.64375 28.378124L64.64375 26.9875L66.56563 26.9875L66.56563 24.425L68.3625 24.425ZM77.44063 32.175Q77.44063 30.6125 78.05 29.378124Q78.65938 28.128124 79.7375 27.45625Q80.83125 26.784374 82.2375 26.784374Q84.39375 26.784374 85.72188 28.284374Q87.06563 29.76875 87.06563 32.253124L87.06563 32.378124Q87.06563 33.925 86.47188 35.159374Q85.87813 36.378124 84.76875 37.065624Q83.675 37.753124 82.25313 37.753124Q80.1125 37.753124 78.76875 36.253124Q77.44063 34.753124 77.44063 32.3L77.44063 32.175ZM79.25313 32.378124Q79.25313 34.14375 80.06563 35.20625Q80.89375 36.26875 82.25313 36.26875Q83.62813 36.26875 84.44063 35.190624Q85.25313 34.1125 85.25313 32.175Q85.25313 30.425 84.425 29.346874Q83.59688 28.26875 82.2375 28.26875Q80.89375 28.26875 80.06563 29.33125Q79.25313 30.39375 79.25313 32.378124ZM89.8 37.55L89.8 28.378124L88.14375 28.378124L88.14375 26.9875L89.8 26.9875L89.8 25.89375Q89.8 24.20625 90.70625 23.284374Q91.62813 22.346874 93.28438 22.346874Q93.90938 22.346874 94.51875 22.503124L94.425 23.971874Q93.97188 23.89375 93.45625 23.89375Q92.56563 23.89375 92.08125 24.409374Q91.6125 24.909374 91.6125 25.8625L91.6125 26.9875L93.8625 26.9875L93.8625 28.378124L91.6125 28.378124L91.6125 37.55L89.8 37.55ZM106.01875 28.596874Q105.6125 28.534374 105.14375 28.534374Q103.3625 28.534374 102.72188 30.05L102.72188 37.55L100.925 37.55L100.925 26.9875L102.675 26.9875L102.70625 28.20625Q103.59688 26.784374 105.22188 26.784374Q105.75313 26.784374 106.01875 26.925L106.01875 28.596874ZM114.44063 37.55Q114.28438 37.2375 114.19063 36.440624Q112.925 37.753124 111.175 37.753124Q109.6125 37.753124 108.6125 36.8625Q107.6125 35.971874 107.6125 34.6125Q107.6125 32.971874 108.8625 32.065624Q110.12813 31.14375 112.39375 31.14375L114.15938 31.14375L114.15938 30.315624Q114.15938 29.3625 113.58125 28.8Q113.01875 28.2375 111.925 28.2375Q110.95625 28.2375 110.3 28.7375Q109.64375 29.221874 109.64375 29.909374L107.83125 29.909374Q107.83125 29.128124 108.39375 28.39375Q108.95625 27.64375 109.90938 27.221874Q110.87813 26.784374 112.03438 26.784374Q113.8625 26.784374 114.89375 27.70625Q115.925 28.6125 115.97188 30.221874L115.97188 35.08125Q115.97188 36.534374 116.33125 37.39375L116.33125 37.55L114.44063 37.55ZM111.44063 36.175Q112.3 36.175 113.05 35.7375Q113.81563 35.3 114.15938 34.596874L114.15938 32.425L112.7375 32.425Q109.425 32.425 109.425 34.3625Q109.425 35.221874 109.9875 35.70625Q110.55 36.175 111.44063 36.175ZM123.15938 36.26875Q124.12813 36.26875 124.84688 35.690624Q125.56563 35.096874 125.64375 34.221874L127.3625 34.221874Q127.3 35.128124 126.72188 35.95625Q126.15938 36.76875 125.19063 37.26875Q124.2375 37.753124 123.15938 37.753124Q121.00313 37.753124 119.72188 36.315624Q118.45625 34.8625 118.45625 32.3625L118.45625 32.065624Q118.45625 30.51875 119.01875 29.315624Q119.58125 28.1125 120.64375 27.45625Q121.70625 26.784374 123.14375 26.784374Q124.925 26.784374 126.09688 27.846874Q127.28438 28.909374 127.3625 30.6125L125.64375 30.6125Q125.56563 29.596874 124.8625 28.940624Q124.175 28.26875 123.14375 28.26875Q121.76875 28.26875 121.00313 29.26875Q120.25313 30.253124 120.25313 32.128124L120.25313 32.471874Q120.25313 34.3 121.00313 35.284374Q121.75313 36.26875 123.15938 36.26875ZM133.3 37.753124Q131.15938 37.753124 129.8 36.346874Q128.45625 34.925 128.45625 32.565624L128.45625 32.221874Q128.45625 30.659374 129.05 29.425Q129.65938 28.190624 130.7375 27.4875Q131.81563 26.784374 133.08125 26.784374Q135.14375 26.784374 136.28438 28.14375Q137.425 29.503124 137.425 32.034374L137.425 32.784374L130.26875 32.784374Q130.3 34.346874 131.175 35.315624Q132.05 36.26875 133.39375 36.26875Q134.3625 36.26875 135.01875 35.878124Q135.69063 35.4875 136.19063 34.846874L137.28438 35.70625Q135.95625 37.753124 133.3 37.753124ZM133.08125 28.26875Q131.9875 28.26875 131.2375 29.065624Q130.50313 29.8625 130.33125 31.3L135.6125 31.3L135.6125 31.159374Q135.53438 29.784374 134.8625 29.034374Q134.20625 28.26875 133.08125 28.26875ZM147.53438 39.01875L138.59688 39.01875L138.59688 37.55L147.53438 37.55L147.53438 39.01875ZM154.675 37.55L152.84688 37.55L152.84688 25.503124L149.20625 26.846874L149.20625 25.20625L154.39375 23.26875L154.675 23.26875L154.675 37.55ZM168.64375 31.4875Q168.64375 34.659374 167.56563 36.20625Q166.4875 37.753124 164.175 37.753124Q161.89375 37.753124 160.8 36.2375Q159.70625 34.721874 159.675 31.721874L159.675 29.315624Q159.675 26.175 160.75313 24.659374Q161.84688 23.128124 164.15938 23.128124Q166.45625 23.128124 167.53438 24.6125Q168.6125 26.08125 168.64375 29.14375L168.64375 31.4875ZM166.84688 29.01875Q166.84688 26.721874 166.19063 25.675Q165.55 24.6125 164.15938 24.6125Q162.76875 24.6125 162.12813 25.659374Q161.50313 26.70625 161.4875 28.878124L161.4875 31.76875Q161.4875 34.065624 162.14375 35.175Q162.81563 36.26875 164.175 36.26875Q165.51875 36.26875 166.15938 35.2375Q166.81563 34.20625 166.84688 31.971874L166.84688 29.01875Z" fill-rule="nonzero"/></svg>