<svg version="1.1" viewBox="0.0 0.0 600.0 371.0" fill="none" stroke="none" stroke-linecap="square" stroke-miterlimit="10" width="600" height="371" xmlns:xlink="http://www.w3.org/1999/xlink" xmlns="http://www.w3.org/2000/svg"><path fill="#ffffff" d="M0 0L600.0 0L600.0 371.0L0 371.0L0 0Z" fill-rule="nonzero"/><path stroke="#333333" stroke-width="1.0" stroke-linecap="butt" d="M45.5 298.5L581.5 298.5" fill-rule="nonzero"/><path stroke="#cccccc" stroke-width="1.0" stroke-linecap="butt" d="M45.5 239.5L581.5 239.5" fill-rule="nonzero"/><path stroke="#cccccc" stroke-width="1.0" stroke-linecap="butt" d="M45.5 180.5L581.5 180.5" fill-rule="nonzero"/><path stroke="#cccccc" stroke-width="1.0" stroke-linecap="butt" d="M45.5 121.5L581.5 121.5" fill-rule="nonzero"/><path stroke="#cccccc" stroke-width="1.0" stroke-linecap="butt" d="M45.5 62.5L581.5 62.5" fill-rule="nonzero"/><clipPath id="id_0"><path d="M45.55 62.416668L581.45 62.416668L581.45 298.45L45.55 298.45L45.55 62.416668Z" clip-rule="nonzero"/></clipPath><path stroke="#000000" stroke-width="2.0" stroke-linecap="butt" stroke-opacity="0.0" clip-path="url(#id_0)" d="M206.0 298.0L102.0 298.0L102.0 88.0C102.0 86.89543 102.89543 86.0 104.0 86.0L204.0 86.0C205.10457 86.0 206.0 86.89543 206.0 88.0Z" fill-rule="nonzero"/><path fill="#4285f4" clip-path="url(#id_0)" d="M206.0 298.0L102.0 298.0L102.0 88.0C102.0 86.89543 102.89543 86.0 104.0 86.0L204.0 86.0C205.10457 86.0 206.0 86.89543 206.0 88.0Z" fill-rule="nonzero"/><path stroke="#000000" stroke-width="2.0" stroke-linecap="butt" stroke-opacity="0.0" clip-path="url(#id_0)" d="M366.0 298.0L262.0 298.0L262.0 200.0C262.0 198.89543 262.89542 198.0 264.0 198.0L364.0 198.0C365.10458 198.0 366.0 198.89543 366.0 200.0Z" fill-rule="nonzero"/><path fill="#4285f4" clip-path="url(#id_0)" d="M366.0 298.0L262.0 298.0L262.0 200.0C262.0 198.89543 262.89542 198.0 264.0 198.0L364.0 198.0C365.10458 198.0 366.0 198.89543 366.0 200.0Z" fill-rule="nonzero"/><path stroke="#000000" stroke-width="2.0" stroke-linecap="butt" stroke-opacity="0.0" clip-path="url(#id_0)" d="M525.0 298.0L421.0 298.0L421.0 295.0C421.0 293.89542 421.89542 293.0 423.0 293.0L523.0 293.0C524.10455 293.0 525.0 293.89542 525.0 295.0Z" fill-rule="nonzero"/><path fill="#4285f4" clip-path="url(#id_0)" d="M525.0 298.0L421.0 298.0L421.0 295.0C421.0 293.89542 421.89542 293.0 423.0 293.0L523.0 293.0C524.10455 293.0 525.0 293.89542 525.0 295.0Z" fill-rule="nonzero"/><path fill="#424242" d="M280.76562 346.7469Q280.60938 348.09064 279.76562 348.84064Q278.92188 349.575 277.53125 349.575Q276.01562 349.575 275.10938 348.4969Q274.20312 347.40314 274.20312 345.575L274.20312 344.7625Q274.20312 343.575 274.625 342.66876Q275.04688 341.7625 275.82812 341.27814Q276.60938 340.79376 277.625 340.79376Q278.98438 340.79376 279.79688 341.5594Q280.625 342.325 280.76562 343.65314L279.64062 343.65314Q279.48438 342.6375 279.0 342.1844Q278.51562 341.73126 277.625 341.73126Q276.54688 341.73126 275.9375 342.52814Q275.32812 343.325 275.32812 344.79376L275.32812 345.6219Q275.32812 347.0125 275.90625 347.84064Q276.48438 348.65314 277.53125 348.65314Q278.46875 348.65314 278.96875 348.23126Q279.46875 347.79376 279.64062 346.7469L280.76562 346.7469ZM282.03125 346.21564Q282.03125 345.29376 282.39062 344.54376Q282.76562 343.79376 283.42188 343.40314Q284.07812 342.9969 284.90625 342.9969Q286.20312 342.9969 287.0 343.8875Q287.8125 344.77814 287.8125 346.27814L287.8125 346.35626Q287.8125 347.27814 287.45312 348.0125Q287.09375 348.7469 286.4375 349.16876Q285.78125 349.575 284.92188 349.575Q283.64062 349.575 282.82812 348.6844Q282.03125 347.77814 282.03125 346.29376L282.03125 346.21564ZM283.125 346.35626Q283.125 347.40314 283.60938 348.04376Q284.10938 348.6844 284.92188 348.6844Q285.75 348.6844 286.23438 348.04376Q286.71875 347.3875 286.71875 346.21564Q286.71875 345.1844 286.21875 344.54376Q285.73438 343.8875 284.90625 343.8875Q284.10938 343.8875 283.60938 344.52814Q283.125 345.15314 283.125 346.35626ZM293.23438 348.825Q292.60938 349.575 291.375 349.575Q290.35938 349.575 289.82812 348.98126Q289.29688 348.3875 289.29688 347.23126L289.29688 343.10626L290.375 343.10626L290.375 347.2Q290.375 348.65314 291.54688 348.65314Q292.79688 348.65314 293.20312 347.71564L293.20312 343.10626L294.29688 343.10626L294.29688 349.45L293.26562 349.45L293.23438 348.825ZM297.34375 343.10626L297.375 343.90314Q298.10938 342.9969 299.28125 342.9969Q301.29688 342.9969 301.3125 345.2625L301.3125 349.45L300.21875 349.45L300.21875 345.2469Q300.21875 344.575 299.90625 344.2469Q299.60938 343.91876 298.95312 343.91876Q298.42188 343.91876 298.01562 344.2Q297.625 344.48126 297.40625 344.9344L297.40625 349.45L296.32812 349.45L296.32812 343.10626L297.34375 343.10626ZM304.79688 341.575L304.79688 343.10626L305.96875 343.10626L305.96875 343.95L304.79688 343.95L304.79688 347.8719Q304.79688 348.2625 304.95312 348.45Q305.10938 348.6375 305.48438 348.6375Q305.67188 348.6375 306.0 348.575L306.0 349.45Q305.57812 349.575 305.17188 349.575Q304.45312 349.575 304.07812 349.1375Q303.70312 348.6844 303.70312 347.8719L303.70312 343.95L302.54688 343.95L302.54688 343.10626L303.70312 343.10626L303.70312 341.575L304.79688 341.575ZM310.03125 346.21564Q310.03125 345.29376 310.39062 344.54376Q310.76562 343.79376 311.42188 343.40314Q312.07812 342.9969 312.90625 342.9969Q314.20312 342.9969 315.0 343.8875Q315.8125 344.77814 315.8125 346.27814L315.8125 346.35626Q315.8125 347.27814 315.45312 348.0125Q315.09375 348.7469 314.4375 349.16876Q313.78125 349.575 312.92188 349.575Q311.64062 349.575 310.82812 348.6844Q310.03125 347.77814 310.03125 346.29376L310.03125 346.21564ZM311.125 346.35626Q311.125 347.40314 311.60938 348.04376Q312.10938 348.6844 312.92188 348.6844Q313.75 348.6844 314.23438 348.04376Q314.71875 347.3875 314.71875 346.21564Q314.71875 345.1844 314.21875 344.54376Q313.73438 343.8875 312.90625 343.8875Q312.10938 343.8875 311.60938 344.52814Q311.125 345.15314 311.125 346.35626ZM317.85938 349.45L317.85938 343.95L316.85938 343.95L316.85938 343.10626L317.85938 343.10626L317.85938 342.46564Q317.85938 341.4344 318.39062 340.8875Q318.9375 340.325 319.9375 340.325Q320.3125 340.325 320.6875 340.41876L320.625 341.3094Q320.34375 341.2469 320.04688 341.2469Q319.51562 341.2469 319.21875 341.5594Q318.9375 341.8719 318.9375 342.4344L318.9375 343.10626L320.29688 343.10626L320.29688 343.95L318.9375 343.95L318.9375 349.45L317.85938 349.45ZM328.01562 347.7625Q328.01562 347.325 327.67188 347.09064Q327.34375 346.84064 326.51562 346.66876Q325.70312 346.4969 325.21875 346.2469Q324.73438 345.9969 324.5 345.66876Q324.28125 345.325 324.28125 344.85626Q324.28125 344.075 324.9375 343.54376Q325.59375 342.9969 326.625 342.9969Q327.70312 342.9969 328.35938 343.5594Q329.03125 344.10626 329.03125 344.96564L327.95312 344.96564Q327.95312 344.52814 327.5625 344.21564Q327.1875 343.8875 326.625 343.8875Q326.03125 343.8875 325.6875 344.15314Q325.35938 344.40314 325.35938 344.8094Q325.35938 345.2 325.67188 345.40314Q325.98438 345.60626 326.79688 345.79376Q327.60938 345.96564 328.10938 346.21564Q328.60938 346.46564 328.84375 346.825Q329.09375 347.1844 329.09375 347.6844Q329.09375 348.54376 328.40625 349.0594Q327.73438 349.575 326.65625 349.575Q325.89062 349.575 325.29688 349.3094Q324.71875 349.02814 324.39062 348.54376Q324.0625 348.0594 324.0625 347.4969L325.14062 347.4969Q325.17188 348.04376 325.57812 348.3719Q325.98438 348.6844 326.65625 348.6844Q327.26562 348.6844 327.64062 348.4344Q328.01562 348.1844 328.01562 347.7625ZM332.95312 349.575Q331.65625 349.575 330.84375 348.73126Q330.04688 347.8719 330.04688 346.45L330.04688 346.2625Q330.04688 345.3094 330.40625 344.575Q330.76562 343.825 331.40625 343.41876Q332.0625 342.9969 332.8125 342.9969Q334.04688 342.9969 334.73438 343.8094Q335.42188 344.6219 335.42188 346.1375L335.42188 346.59064L331.125 346.59064Q331.15625 347.52814 331.67188 348.10626Q332.20312 348.6844 333.01562 348.6844Q333.57812 348.6844 333.96875 348.45Q334.375 348.21564 334.6875 347.825L335.34375 348.34064Q334.54688 349.575 332.95312 349.575ZM332.8125 343.8875Q332.15625 343.8875 331.70312 344.3719Q331.26562 344.84064 331.17188 345.7L334.34375 345.7L334.34375 345.6219Q334.29688 344.79376 333.89062 344.34064Q333.5 343.8875 332.8125 343.8875ZM338.45312 345.41876L339.85938 343.10626L341.125 343.10626L339.04688 346.2469L341.1875 349.45L339.9375 349.45L338.46875 347.075L337.0 349.45L335.73438 349.45L337.875 346.2469L335.8125 343.10626L337.0625 343.10626L338.45312 345.41876ZM346.89062 350.34064L341.53125 350.34064L341.53125 349.45L346.89062 349.45L346.89062 350.34064ZM351.35938 345.7Q351.03125 346.10626 350.54688 346.35626Q350.07812 346.59064 349.51562 346.59064Q348.78125 346.59064 348.23438 346.23126Q347.6875 345.8719 347.39062 345.21564Q347.09375 344.54376 347.09375 343.7469Q347.09375 342.90314 347.40625 342.21564Q347.73438 341.52814 348.32812 341.16876Q348.9375 340.79376 349.73438 340.79376Q351.0 340.79376 351.71875 341.7469Q352.45312 342.7 352.45312 344.325L352.45312 344.6375Q352.45312 347.1375 351.46875 348.27814Q350.48438 349.41876 348.5 349.45L348.28125 349.45L348.28125 348.54376L348.51562 348.54376Q349.85938 348.5125 350.57812 347.84064Q351.29688 347.16876 351.35938 345.7ZM349.6875 345.7Q350.23438 345.7 350.6875 345.3719Q351.15625 345.02814 351.375 344.54376L351.375 344.10626Q351.375 343.04376 350.90625 342.3719Q350.4375 341.7 349.73438 341.7Q349.01562 341.7 348.57812 342.2469Q348.15625 342.79376 348.15625 343.7Q348.15625 344.575 348.5625 345.1375Q348.98438 345.7 349.6875 345.7Z" fill-rule="nonzero"/><path fill="#757575" d="M38.6125 299.3094Q38.6125 301.21564 37.95625 302.15314Q37.315624 303.075 35.925 303.075Q34.565624 303.075 33.909374 302.16876Q33.253124 301.2625 33.221874 299.45L33.221874 298.0125Q33.221874 296.1219 33.8625 295.21564Q34.51875 294.29376 35.909374 294.29376Q37.284374 294.29376 37.940624 295.1844Q38.596874 296.0594 38.6125 297.90314L38.6125 299.3094ZM37.51875 297.825Q37.51875 296.45 37.128124 295.825Q36.753124 295.1844 35.909374 295.1844Q35.08125 295.1844 34.690624 295.825Q34.315624 296.45 34.315624 297.7469L34.315624 299.48126Q34.315624 300.85626 34.70625 301.52814Q35.1125 302.1844 35.925 302.1844Q36.721874 302.1844 37.1125 301.5594Q37.503124 300.9344 37.51875 299.60626L37.51875 297.825Z" fill-rule="nonzero"/><path fill="#757575" d="M29.815624 243.94167L28.7375 243.94167L28.7375 236.72292L26.55 237.51979L26.55 236.53542L29.659374 235.36354L29.815624 235.36354L29.815624 243.94167ZM38.6125 240.30104Q38.6125 242.20729 37.95625 243.14479Q37.315624 244.06667 35.925 244.06667Q34.565624 244.06667 33.909374 243.16042Q33.253124 242.25417 33.221874 240.44167L33.221874 239.00417Q33.221874 237.11354 33.8625 236.20729Q34.51875 235.28542 35.909374 235.28542Q37.284374 235.28542 37.940624 236.17604Q38.596874 237.05104 38.6125 238.89479L38.6125 240.30104ZM37.51875 238.81667Q37.51875 237.44167 37.128124 236.81667Q36.753124 236.17604 35.909374 236.17604Q35.08125 236.17604 34.690624 236.81667Q34.315624 237.44167 34.315624 238.73854L34.315624 240.47292Q34.315624 241.84792 34.70625 242.51979Q35.1125 243.17604 35.925 243.17604Q36.721874 243.17604 37.1125 242.55104Q37.503124 241.92604 37.51875 240.59792L37.51875 238.81667Z" fill-rule="nonzero"/><path fill="#757575" d="M31.846874 184.93333L26.253124 184.93333L26.253124 184.15208L29.20625 180.87083Q29.8625 180.12083 30.1125 179.66771Q30.3625 179.19896 30.3625 178.69896Q30.3625 178.02708 29.95625 177.60521Q29.565624 177.16771 28.878124 177.16771Q28.08125 177.16771 27.628124 177.63646Q27.175 178.08958 27.175 178.91771L26.096874 178.91771Q26.096874 177.73021 26.846874 177.01146Q27.6125 176.27708 28.878124 176.27708Q30.08125 176.27708 30.76875 176.90208Q31.45625 177.52708 31.45625 178.57396Q31.45625 179.82396 29.846874 181.57396L27.565624 184.04271L31.846874 184.04271L31.846874 184.93333ZM38.6125 181.29271Q38.6125 183.19896 37.95625 184.13646Q37.315624 185.05833 35.925 185.05833Q34.565624 185.05833 33.909374 184.15208Q33.253124 183.24583 33.221874 181.43333L33.221874 179.99583Q33.221874 178.10521 33.8625 177.19896Q34.51875 176.27708 35.909374 176.27708Q37.284374 176.27708 37.940624 177.16771Q38.596874 178.04271 38.6125 179.88646L38.6125 181.29271ZM37.51875 179.80833Q37.51875 178.43333 37.128124 177.80833Q36.753124 177.16771 35.909374 177.16771Q35.08125 177.16771 34.690624 177.80833Q34.315624 178.43333 34.315624 179.73021L34.315624 181.46458Q34.315624 182.83958 34.70625 183.51146Q35.1125 184.16771 35.925 184.16771Q36.721874 184.16771 37.1125 183.54271Q37.503124 182.91771 37.51875 181.58958L37.51875 179.80833Z" fill-rule="nonzero"/><path fill="#757575" d="M27.83125 121.12813L28.64375 121.12813Q29.425 121.1125 29.8625 120.72188Q30.3 120.33125 30.3 119.65938Q30.3 118.15938 28.8 118.15938Q28.096874 118.15938 27.675 118.56563Q27.26875 118.97188 27.26875 119.62813L26.175 119.62813Q26.175 118.6125 26.909374 117.94063Q27.659374 117.26875 28.8 117.26875Q30.003124 117.26875 30.690624 117.90938Q31.378124 118.55 31.378124 119.69063Q31.378124 120.25313 31.01875 120.76875Q30.659374 121.28438 30.034374 121.55Q30.7375 121.76875 31.1125 122.28438Q31.503124 122.8 31.503124 123.55Q31.503124 124.69063 30.753124 125.37813Q30.003124 126.05 28.8 126.05Q27.6125 126.05 26.846874 125.39375Q26.096874 124.7375 26.096874 123.675L27.190624 123.675Q27.190624 124.34688 27.628124 124.75313Q28.065624 125.15938 28.815624 125.15938Q29.596874 125.15938 30.003124 124.75313Q30.425 124.33125 30.425 123.56563Q30.425 122.83125 29.971874 122.44063Q29.51875 122.03438 28.64375 122.01875L27.83125 122.01875L27.83125 121.12813ZM38.6125 122.28438Q38.6125 124.19063 37.95625 125.12813Q37.315624 126.05 35.925 126.05Q34.565624 126.05 33.909374 125.14375Q33.253124 124.2375 33.221874 122.425L33.221874 120.9875Q33.221874 119.09688 33.8625 118.19063Q34.51875 117.26875 35.909374 117.26875Q37.284374 117.26875 37.940624 118.15938Q38.596874 119.03438 38.6125 120.87813L38.6125 122.28438ZM37.51875 120.8Q37.51875 119.425 37.128124 118.8Q36.753124 118.15938 35.909374 118.15938Q35.08125 118.15938 34.690624 118.8Q34.315624 119.425 34.315624 120.72188L34.315624 122.45625Q34.315624 123.83125 34.70625 124.50313Q35.1125 125.15938 35.925 125.15938Q36.721874 125.15938 37.1125 124.53438Q37.503124 123.90938 37.51875 122.58125L37.51875 120.8Z" fill-rule="nonzero"/><path fill="#757575" d="M30.83125 64.05729L32.01875 64.05729L32.01875 64.93229L30.83125 64.93229L30.83125 66.916664L29.753124 66.916664L29.753124 64.93229L25.8625 64.93229L25.8625 64.291664L29.675 58.385414L30.83125 58.385414L30.83125 64.05729ZM27.096874 64.05729L29.753124 64.05729L29.753124 59.86979L29.6125 60.104164L27.096874 64.05729ZM38.6125 63.27604Q38.6125 65.18229 37.95625 66.11979Q37.315624 67.041664 35.925 67.041664Q34.565624 67.041664 33.909374 66.135414Q33.253124 65.229164 33.221874 63.416664L33.221874 61.979164Q33.221874 60.08854 33.8625 59.18229Q34.51875 58.260414 35.909374 58.260414Q37.284374 58.260414 37.940624 59.15104Q38.596874 60.02604 38.6125 61.86979L38.6125 63.27604ZM37.51875 61.791664Q37.51875 60.416664 37.128124 59.791664Q36.753124 59.15104 35.909374 59.15104Q35.08125 59.15104 34.690624 59.791664Q34.315624 60.416664 34.315624 61.71354L34.315624 63.447914Q34.315624 64.822914 34.70625 65.49479Q35.1125 66.15104 35.925 66.15104Q36.721874 66.15104 37.1125 65.52604Q37.503124 64.90104 37.51875 63.572914L37.51875 61.791664Z" fill-rule="nonzero"/><path fill="#757575" d="M150.96735 307.91876L153.76422 314.8719L156.54547 307.91876L158.01422 307.91876L158.01422 316.45L156.88922 316.45L156.88922 313.1219L156.9986 309.54376L154.1861 316.45L153.32672 316.45L150.52985 309.5594L150.63922 313.1219L150.63922 316.45L149.51422 316.45L149.51422 307.91876L150.96735 307.91876Z" fill-rule="nonzero"/><path fill="#757575" d="M315.70312 312.6844L312.10938 312.6844L312.10938 316.45L310.98438 316.45L310.98438 307.91876L316.28125 307.91876L316.28125 308.84064L312.10938 308.84064L312.10938 311.7625L315.70312 311.7625L315.70312 312.6844Z" fill-rule="nonzero"/><path fill="#757575" d="M462.67328 312.6844L459.07953 312.6844L459.07953 316.45L457.95453 316.45L457.95453 307.91876L463.2514 307.91876L463.2514 308.84064L459.07953 308.84064L459.07953 311.7625L462.67328 311.7625L462.67328 312.6844ZM467.7514 312.98126Q467.7514 311.66876 468.09515 310.45Q468.45453 309.23126 469.15765 308.23126Q469.86078 307.23126 470.6264 306.825L470.84515 307.54376Q469.98578 308.2 469.4389 309.54376Q468.89203 310.8875 468.84515 312.5594L468.82953 313.0594Q468.82953 315.325 469.65765 316.98126Q470.15765 317.98126 470.84515 318.54376L470.6264 319.2Q469.84515 318.77814 469.1264 317.7469Q467.7514 315.7625 467.7514 312.98126ZM475.48578 314.7625Q475.48578 314.325 475.14203 314.09064Q474.8139 313.84064 473.98578 313.66876Q473.17328 313.4969 472.6889 313.2469Q472.20453 312.9969 471.97015 312.66876Q471.7514 312.325 471.7514 311.85626Q471.7514 311.075 472.40765 310.54376Q473.0639 309.9969 474.09515 309.9969Q475.17328 309.9969 475.82953 310.5594Q476.5014 311.10626 476.5014 311.96564L475.42328 311.96564Q475.42328 311.52814 475.03265 311.21564Q474.65765 310.8875 474.09515 310.8875Q473.5014 310.8875 473.15765 311.15314Q472.82953 311.40314 472.82953 311.8094Q472.82953 312.2 473.14203 312.40314Q473.45453 312.60626 474.26703 312.79376Q475.07953 312.96564 475.57953 313.21564Q476.07953 313.46564 476.3139 313.825Q476.5639 314.1844 476.5639 314.6844Q476.5639 315.54376 475.8764 316.0594Q475.20453 316.575 474.1264 316.575Q473.36078 316.575 472.76703 316.3094Q472.1889 316.02814 471.86078 315.54376Q471.53265 315.0594 471.53265 314.4969L472.61078 314.4969Q472.64203 315.04376 473.04828 315.3719Q473.45453 315.6844 474.1264 315.6844Q474.73578 315.6844 475.11078 315.4344Q475.48578 315.1844 475.48578 314.7625ZM478.97015 316.45L477.89203 316.45L477.89203 310.10626L478.97015 310.10626L478.97015 316.45ZM477.79828 308.4344Q477.79828 308.16876 477.95453 307.98126Q478.1264 307.79376 478.4389 307.79376Q478.7514 307.79376 478.90765 307.98126Q479.07953 308.16876 479.07953 308.4344Q479.07953 308.6844 478.90765 308.8719Q478.7514 309.04376 478.4389 309.04376Q478.1264 309.04376 477.95453 308.8719Q477.79828 308.6844 477.79828 308.4344ZM483.32953 315.6844Q483.90765 315.6844 484.34515 315.34064Q484.78265 314.98126 484.82953 314.45L485.86078 314.45Q485.82953 314.9969 485.47015 315.4969Q485.1264 315.98126 484.54828 316.27814Q483.98578 316.575 483.32953 316.575Q482.03265 316.575 481.26703 315.71564Q480.51703 314.84064 480.51703 313.34064L480.51703 313.15314Q480.51703 312.23126 480.84515 311.5125Q481.1889 310.79376 481.8139 310.40314Q482.45453 309.9969 483.32953 309.9969Q484.39203 309.9969 485.09515 310.6375Q485.8139 311.2625 485.86078 312.29376L484.82953 312.29376Q484.78265 311.66876 484.36078 311.27814Q483.9389 310.8875 483.32953 310.8875Q482.5014 310.8875 482.04828 311.48126Q481.59515 312.075 481.59515 313.2L481.59515 313.40314Q481.59515 314.4969 482.04828 315.09064Q482.5014 315.6844 483.32953 315.6844ZM489.29828 313.04376Q489.29828 314.35626 488.95453 315.5594Q488.61078 316.7469 487.89203 317.7625Q487.1889 318.77814 486.42328 319.2L486.1889 318.54376Q487.09515 317.85626 487.64203 316.40314Q488.1889 314.9344 488.20453 313.16876L488.20453 312.98126Q488.20453 311.7469 487.9389 310.6844Q487.6889 309.6219 487.22015 308.79376Q486.76703 307.95 486.1889 307.48126L486.42328 306.825Q487.1889 307.2469 487.89203 308.2469Q488.59515 309.2469 488.9389 310.46564Q489.29828 311.66876 489.29828 313.04376Z" fill-rule="nonzero"/><path fill="#757575" d="M30.659374 33.034374Q30.39375 35.3 28.9875 36.534374Q27.596874 37.753124 25.26875 37.753124Q22.753124 37.753124 21.221874 35.940624Q19.70625 34.128124 19.70625 31.096874L19.70625 29.7375Q19.70625 27.753124 20.409374 26.253124Q21.128124 24.753124 22.425 23.940624Q23.721874 23.128124 25.440624 23.128124Q27.70625 23.128124 29.065624 24.39375Q30.440624 25.659374 30.659374 27.89375L28.76875 27.89375Q28.534374 26.20625 27.70625 25.440624Q26.89375 24.675 25.440624 24.675Q23.64375 24.675 22.6125 26.003124Q21.596874 27.33125 21.596874 29.784374L21.596874 31.159374Q21.596874 33.471874 22.565624 34.846874Q23.534374 36.20625 25.26875 36.20625Q26.83125 36.20625 27.659374 35.503124Q28.503124 34.8 28.76875 33.034374L30.659374 33.034374ZM32.440624 32.175Q32.440624 30.6125 33.05 29.378124Q33.659374 28.128124 34.7375 27.45625Q35.83125 26.784374 37.2375 26.784374Q39.39375 26.784374 40.721874 28.284374Q42.065624 29.76875 42.065624 32.253124L42.065624 32.378124Q42.065624 33.925 41.471874 35.159374Q40.878124 36.378124 39.76875 37.065624Q38.675 37.753124 37.253124 37.753124Q35.1125 37.753124 33.76875 36.253124Q32.440624 34.753124 32.440624 32.3L32.440624 32.175ZM34.253124 32.378124Q34.253124 34.14375 35.065624 35.20625Q35.89375 36.26875 37.253124 36.26875Q38.628124 36.26875 39.440624 35.190624Q40.253124 34.1125 40.253124 32.175Q40.253124 30.425 39.425 29.346874Q38.596874 28.26875 37.2375 28.26875Q35.89375 28.26875 35.065624 29.33125Q34.253124 30.39375 34.253124 32.378124ZM50.440624 36.503124Q49.39375 37.753124 47.346874 37.753124Q45.659374 37.753124 44.76875 36.76875Q43.89375 35.784374 43.878124 33.8625L43.878124 26.9875L45.690624 26.9875L45.690624 33.815624Q45.690624 36.20625 47.64375 36.20625Q49.70625 36.20625 50.39375 34.675L50.39375 26.9875L52.20625 26.9875L52.20625 37.55L50.4875 37.55L50.440624 36.503124ZM56.628124 26.9875L56.690624 28.315624Q57.89375 26.784374 59.846874 26.784374Q63.20625 26.784374 63.221874 30.565624L63.221874 37.55L61.425 37.55L61.425 30.55Q61.409374 29.409374 60.89375 28.8625Q60.39375 28.315624 59.3 28.315624Q58.425 28.315624 57.753124 28.784374Q57.096874 29.253124 56.721874 30.01875L56.721874 37.55L54.925 37.55L54.925 26.9875L56.628124 26.9875ZM68.3625 24.425L68.3625 26.9875L70.34688 26.9875L70.34688 28.378124L68.3625 28.378124L68.3625 34.925Q68.3625 35.565624 68.62813 35.89375Q68.89375 36.20625 69.53438 36.20625Q69.84688 36.20625 70.39375 36.08125L70.39375 37.55Q69.675 37.753124 69.00313 37.753124Q67.8 37.753124 67.175 37.01875Q66.56563 36.284374 66.56563 34.925L66.56563 28.378124L64.64375 28.378124L64.64375 26.9875L66.56563 26.9875L66.56563 24.425L68.3625 24.425ZM77.44063 32.175Q77.44063 30.6125 78.05 29.378124Q78.65938 28.128124 79.7375 27.45625Q80.83125 26.784374 82.2375 26.784374Q84.39375 26.784374 85.72188 28.284374Q87.06563 29.76875 87.06563 32.253124L87.06563 32.378124Q87.06563 33.925 86.47188 35.159374Q85.87813 36.378124 84.76875 37.065624Q83.675 37.753124 82.25313 37.753124Q80.1125 37.753124 78.76875 36.253124Q77.44063 34.753124 77.44063 32.3L77.44063 32.175ZM79.25313 32.378124Q79.25313 34.14375 80.06563 35.20625Q80.89375 36.26875 82.25313 36.26875Q83.62813 36.26875 84.44063 35.190624Q85.25313 34.1125 85.25313 32.175Q85.25313 30.425 84.425 29.346874Q83.59688 28.26875 82.2375 28.26875Q80.89375 28.26875 80.06563 29.33125Q79.25313 30.39375 79.25313 32.378124ZM89.8 37.55L89.8 28.378124L88.14375 28.378124L88.14375 26.9875L89.8 26.9875L89.8 25.89375Q89.8 24.20625 90.70625 23.284374Q91.62813 22.346874 93.28438 22.346874Q93.90938 22.346874 94.51875 22.503124L94.425 23.971874Q93.97188 23.89375 93.45625 23.89375Q92.56563 23.89375 92.08125 24.409374Q91.6125 24.909374 91.6125 25.8625L91.6125 26.9875L93.8625 26.9875L93.8625 28.378124L91.6125 28.378124L91.6125 37.55L89.8 37.55ZM107.06563 34.753124Q107.06563 34.01875 106.51875 33.6125Q105.97188 33.20625 104.59688 32.909374Q103.22188 32.6125 102.40938 32.20625Q101.6125 31.8 101.22188 31.2375Q100.84688 30.659374 100.84688 29.878124Q100.84688 28.58125 101.94063 27.690624Q103.03438 26.784374 104.75313 26.784374Q106.55 26.784374 107.65938 27.721874Q108.78438 28.64375 108.78438 30.08125L106.95625 30.08125Q106.95625 29.346874 106.33125 28.815624Q105.70625 28.26875 104.75313 28.26875Q103.75313 28.26875 103.19063 28.70625Q102.64375 29.128124 102.64375 29.83125Q102.64375 30.471874 103.15938 30.815624Q103.675 31.14375 105.03438 31.45625Q106.39375 31.753124 107.22188 32.175Q108.06563 32.58125 108.47188 33.175Q108.87813 33.76875 108.87813 34.6125Q108.87813 36.034374 107.7375 36.89375Q106.6125 37.753124 104.8 37.753124Q103.53438 37.753124 102.55 37.3Q101.58125 36.846874 101.01875 36.05Q100.47188 35.2375 100.47188 34.3L102.28438 34.3Q102.33125 35.20625 103.00313 35.7375Q103.69063 36.26875 104.8 36.26875Q105.83125 36.26875 106.44063 35.8625Q107.06563 35.440624 107.06563 34.753124ZM115.3 37.753124Q113.15938 37.753124 111.8 36.346874Q110.45625 34.925 110.45625 32.565624L110.45625 32.221874Q110.45625 30.659374 111.05 29.425Q111.65938 28.190624 112.7375 27.4875Q113.81563 26.784374 115.08125 26.784374Q117.14375 26.784374 118.28438 28.14375Q119.425 29.503124 119.425 32.034374L119.425 32.784374L112.26875 32.784374Q112.3 34.346874 113.175 35.315624Q114.05 36.26875 115.39375 36.26875Q116.3625 36.26875 117.01875 35.878124Q117.69063 35.4875 118.19063 34.846874L119.28438 35.70625Q117.95625 37.753124 115.3 37.753124ZM115.08125 28.26875Q113.9875 28.26875 113.2375 29.065624Q112.50313 29.8625 112.33125 31.3L117.6125 31.3L117.6125 31.159374Q117.53438 29.784374 116.8625 29.034374Q116.20625 28.26875 115.08125 28.26875ZM125.45625 30.846874L127.8 26.9875L129.90938 26.9875L126.45625 32.20625L130.01875 37.55L127.94063 37.55L125.4875 33.596874L123.05 37.55L120.95625 37.55L124.51875 32.20625L121.06563 26.9875L123.14375 26.9875L125.45625 30.846874ZM139.53438 39.01875L130.59688 39.01875L130.59688 37.55L139.53438 37.55L139.53438 39.01875ZM147.65938 31.3Q147.09688 31.971874 146.3 32.39375Q145.51875 32.8 144.58125 32.8Q143.34688 32.8 142.425 32.190624Q141.51875 31.58125 141.01875 30.4875Q140.53438 29.378124 140.53438 28.05Q140.53438 26.628124 141.06563 25.4875Q141.6125 24.346874 142.59688 23.7375Q143.59688 23.128124 144.925 23.128124Q147.03438 23.128124 148.25313 24.70625Q149.47188 26.284374 149.47188 29.01875L149.47188 29.534374Q149.47188 33.690624 147.83125 35.596874Q146.19063 37.503124 142.87813 37.565624L142.53438 37.565624L142.53438 36.034374L142.90938 36.034374Q145.14375 36.003124 146.34688 34.878124Q147.55 33.7375 147.65938 31.3ZM144.87813 31.3Q145.78438 31.3 146.55 30.753124Q147.31563 30.190624 147.65938 29.3625L147.65938 28.64375Q147.65938 26.8625 146.89375 25.753124Q146.12813 24.64375 144.94063 24.64375Q143.75313 24.64375 143.01875 25.565624Q142.3 26.471874 142.3 27.95625Q142.3 29.409374 143.00313 30.3625Q143.70625 31.3 144.87813 31.3Z" fill-rule="nonzero"/></svg>